<svg xmlns="http://www.w3.org/2000/svg" width="50" height="70" viewBox="0 0 50 70">
    <g fill="none" fill-rule="nonzero">
        <path fill="#4E87BB" d="M25 40.923c-3.582.021-10.316.384-13.043 1.155L25 52.769l13.043-10.691c-2.727-.77-9.461-1.134-13.043-1.155z"/>
        <path fill="#F6B47B" d="M49.97 65.785l-1.614-12.658c-.244-1.91-1.586-3.515-3.45-4.124l-4.613-1.507c.012-.073.174-1.184-1.197-2.08-1.116-.728.346-2.057-1.355-2.916l-4.278 3.774a2.475 2.475 0 0 1-.81-1.826v-4.032l5.493-2.243c2.852-1.164 4.71-3.895 4.71-6.923V30c2.112 0 3.825-1.679 3.825-3.75a3.708 3.708 0 0 0-1.26-2.782l.483-8.995C46.327 6.606 39.932 0 31.894 0H18.106C10.068 0 3.673 6.606 4.096 14.473l.483 8.995a3.708 3.708 0 0 0-1.26 2.782c0 2.071 1.713 3.75 3.826 3.75v1.25c0 3.028 1.857 5.759 4.709 6.923l5.494 2.244v4.031c0 .711-.308 1.368-.817 1.831L12.246 42.5c-1.7.86-.239 2.188-1.355 2.917-1.417.926-1.196 2.082-1.195 2.083l-4.603 1.504c-1.863.608-3.205 2.212-3.449 4.123L.03 65.785C-.255 68.023 1.525 70 3.827 70h42.346c2.302 0 4.082-1.977 3.797-4.215z"/>
        <path fill="#8D5F3D" d="M19.282 0C11.35 0 5.037 6.59 5.454 14.438l.492 9.254h40.282l.492-9.255C47.137 6.59 40.825 0 32.892 0h-13.61z"/>
        <path fill="#835438" d="M3.28 14.438l.5 9.254H13.368C18.242 8.962 29.348 0 29.348 0H17.323C9.267 0 2.857 6.59 3.281 14.438z"/>
        <path fill="#8DB9E2" d="M49.97 65.735l-1.614-12.809a5.07 5.07 0 0 0-3.45-4.172l-7.2-2.38c-.574-.19-1.214.04-1.504.568-2.16 3.938-10.708 6.615-11.202 6.615-.494 0-9.042-2.677-11.202-6.615-.29-.528-.93-.758-1.504-.569l-7.2 2.381a5.07 5.07 0 0 0-3.45 4.172L.03 65.735C-.255 68 1.525 70 3.827 70h42.346c2.302 0 4.082-2 3.797-4.265z"/>
        <path fill="#6AA2DE" d="M2.683 50.615a4.976 4.976 0 0 0-1.054 2.48L.03 65.777C-.252 68.019 1.512 70 3.792 70h7.079v-8.15c0-1.205-.439-2.37-1.235-3.28l-6.952-7.955zM47.317 50.615a4.976 4.976 0 0 1 1.054 2.48l1.6 12.682C50.252 68.019 48.488 70 46.208 70H39.13v-8.15c0-1.205.439-2.37 1.235-3.28l6.952-7.955z"/>
        <path fill="#E2A071" d="M32.609 39.921l-16.051-3.306v7.305c0 .892-.533 1.678-1.34 2.116 11.217 1.82 17.39-6.115 17.39-6.115z"/>
        <path fill="#FDC88E" d="M42.903 22.85V20.32c0-3.49-2.863-6.321-6.394-6.321H13.491c-3.531 0-6.394 2.83-6.394 6.321v2.528c-2.119 0-3.836 1.698-3.836 3.793s1.717 3.793 3.836 3.793v1.264c0 3.062 1.863 5.824 4.722 7.002l8.262 3.403a12.917 12.917 0 0 0 9.837 0l8.263-3.403c2.86-1.178 4.722-3.94 4.722-7.002v-1.264c2.119 0 3.836-1.698 3.836-3.793s-1.717-3.793-3.836-3.793z"/>
        <path fill="#623F33" d="M15.76 26.923c-.896 0-1.63-.485-1.63-1.077V24.77c0-.592.734-1.077 1.63-1.077.898 0 1.631.485 1.631 1.077v1.077c0 .592-.733 1.077-1.63 1.077zM34.24 26.923c-.898 0-1.631-.485-1.631-1.077V24.77c0-.592.733-1.077 1.63-1.077.897 0 1.63.485 1.63 1.077v1.077c0 .592-.733 1.077-1.63 1.077z"/>
        <path fill="#E2A071" d="M25 35.538c-2.319 0-4.488-.466-5.951-1.28-.595-.332-.75-.996-.344-1.483.404-.487 1.216-.613 1.811-.282 1.026.57 2.702.911 4.484.911s3.458-.34 4.484-.911c.596-.332 1.406-.205 1.811.282.406.487.251 1.15-.344 1.482-1.463.815-3.632 1.281-5.951 1.281z"/>
        <path fill="#F6B47B" d="M19.405 23.842c7.247-4.257 11.03-9.812 11.03-9.812L12.212 14c-2.918.577-5.115 3.09-5.115 6.104v2.492c-2.119 0-3.836 1.673-3.836 3.738 0 2.064 1.717 3.737 3.836 3.737v1.246c0 3.018 1.863 5.74 4.722 6.9l8.262 3.355c.405.164.817.305 1.235.428-3.651-2.603-6.082-4.878-7.506-6.365a5.759 5.759 0 0 1-1.598-3.991V20.519l7.193 3.323z"/>
        <path fill="#6AA2DE" d="M37.93 45.841c-1.11-.691.343-1.95-1.347-2.764l-12.67 10.656-12.67-10.656c-1.69.814-.237 2.073-1.346 2.764-1.41.878-1.189 1.974-1.189 1.974l15.199 7.102v.006l.006-.003.006.003v-.006l15.199-7.102s.22-1.096-1.189-1.974z"/>
        <path fill="#8D5F3D" d="M8.696 16.692l5.076 2.425 3.8-1.213-1.265 2.424 2.534 1.21s4.32-2.044 8.876-6.814v5.603s3.488-.076 5.073-1.212l1.268-4.846s1.268 3.534 2.536 6.058l2.536-1.212v-7.269H8.696v4.846z"/>
        <path fill="#835438" d="M8.696 11.846v4.307l5.135 2.155 3.085-.866a46 46 0 0 1 3.736-5.596H8.696z"/>
    </g>
</svg>
