<svg xmlns="http://www.w3.org/2000/svg" xmlns:xlink="http://www.w3.org/1999/xlink" width="260" height="196" viewBox="0 0 260 196">
    <defs>
        <path id="a" d="M.019.463h6.364v10.315H.019z"/>
        <path id="c" d="M.06.463h6.297v10.49H.06z"/>
    </defs>
    <g fill="none" fill-rule="evenodd">
        <g>
            <rect width="259.193" height="196" fill="#F2F2F2" rx="3.512"/>
            <path fill="#2B1405" d="M3.512 0h252.169a3.512 3.512 0 0 1 3.512 3.512v28.506H0V3.512A3.512 3.512 0 0 1 3.512 0z"/>
            <path fill="#251910" d="M229.638 55.813a.084.084 0 0 0 .007.074.066.066 0 0 0 .06.033h2.819c.09 0 .135-.044.135-.134v-2.967c0-.189.027-.79.08-1.806 0-.018-.009-.028-.026-.028-.018 0-.032.01-.041.028-.216.431-.481.917-.796 1.456l-2.238 3.344zm5.057.107c.143 0 .265.05.364.149.099.099.148.218.148.357 0 .14-.05.259-.148.357a.494.494 0 0 1-.364.149h-.701c-.09 0-.136.044-.136.134v2.05c0 .171-.057.315-.174.432a.579.579 0 0 1-.425.175.578.578 0 0 1-.425-.175.586.586 0 0 1-.175-.432v-2.05c0-.09-.045-.134-.135-.134h-3.856a.405.405 0 0 1-.297-.121.404.404 0 0 1-.121-.298c0-.269.076-.52.229-.754l3.613-5.57a1.205 1.205 0 0 1 1.079-.592c.189 0 .35.07.485.208.135.14.202.304.202.493v5.488c0 .09.046.134.136.134h.7zM26.643 82.562c-1.089 0-2.032-.328-2.832-.984a.525.525 0 0 1-.189-.418c0-.126.041-.243.122-.351a.422.422 0 0 1 .323-.175.498.498 0 0 1 .364.121 3.25 3.25 0 0 0 2.104.755c.61 0 1.123-.218 1.537-.654.413-.436.62-1.013.62-1.733 0-.718-.191-1.282-.573-1.692-.382-.408-.892-.613-1.53-.613-.459 0-.909.13-1.349.391a.73.73 0 0 1-.35.094.632.632 0 0 1-.324-.094.608.608 0 0 1-.31-.607l.216-3.168c.018-.324.148-.6.39-.83.244-.229.53-.343.864-.343h3.209c.152 0 .28.054.384.161a.536.536 0 0 1 .155.385.515.515 0 0 1-.155.377.521.521 0 0 1-.384.155h-3.142c-.09 0-.14.045-.148.135l-.23 2.656c0 .036.012.06.034.074a.083.083 0 0 0 .074.007 2.968 2.968 0 0 1 1.39-.337c.889 0 1.62.27 2.19.809.571.54.856 1.34.856 2.4 0 .72-.159 1.349-.478 1.888-.32.54-.726.939-1.22 1.2a3.417 3.417 0 0 1-1.618.391M61.697 81.591c.494 0 .904-.215 1.227-.647.324-.431.486-.984.486-1.659 0-.7-.153-1.249-.459-1.645-.306-.395-.76-.593-1.362-.593-.728 0-1.393.396-1.995 1.187a.339.339 0 0 0-.068.242c.09 1.008.32 1.778.688 2.313.368.535.863.802 1.483.802m2.346-8.845c.108.099.164.223.17.37a.53.53 0 0 1-.143.385c-.09.1-.204.15-.344.155a.565.565 0 0 1-.37-.115 2.064 2.064 0 0 0-1.254-.417c-.746 0-1.357.32-1.834.963-.476.643-.733 1.68-.769 3.108 0 .028.01.043.027.048a.08.08 0 0 0 .055-.007 3.502 3.502 0 0 1 1.05-.83 2.537 2.537 0 0 1 1.16-.303c.881 0 1.57.27 2.063.81.495.539.743 1.33.743 2.372 0 .953-.281 1.738-.844 2.354-.561.615-1.247.923-2.056.923-1.006 0-1.822-.43-2.447-1.288-.625-.858-.937-2.096-.937-3.715 0-.961.1-1.804.303-2.527.202-.724.481-1.295.836-1.713.355-.418.75-.73 1.187-.937.435-.206.91-.31 1.422-.31.756 0 1.416.224 1.982.674M95.651 81.726a.678.678 0 0 1-.687.66.58.58 0 0 1-.445-.188.6.6 0 0 1-.175-.418c0-1.43.26-2.944.781-4.544.414-1.259 1.066-2.522 1.956-3.789.018-.018.02-.04.006-.067-.013-.027-.033-.04-.06-.04h-4.234a.526.526 0 0 1-.378-.156.502.502 0 0 1-.161-.378c0-.148.054-.276.161-.384a.515.515 0 0 1 .378-.162h5.42c.108 0 .198.039.27.115a.391.391 0 0 1 .108.277c0 .242-.077.467-.23.674-.97 1.304-1.642 2.568-2.015 3.796-.373 1.226-.604 2.761-.695 4.604M130.106 76.845a.179.179 0 0 0 .216-.04c.638-.593.957-1.245.957-1.955 0-.513-.154-.942-.465-1.288-.31-.346-.73-.52-1.26-.52-.468 0-.853.151-1.154.452-.301.302-.45.7-.45 1.194 0 .279.053.53.16.755.108.224.275.422.5.593.224.17.447.315.666.431.222.117.498.243.83.378m-.54 4.786c.576 0 1.043-.159 1.403-.478.36-.32.54-.73.54-1.234 0-.26-.048-.496-.142-.708a2.004 2.004 0 0 0-.345-.54 2.475 2.475 0 0 0-.58-.444 7.527 7.527 0 0 0-.673-.357c-.198-.09-.468-.207-.81-.35a.454.454 0 0 0-.107-.014.26.26 0 0 0-.135.04c-.396.27-.705.596-.93.977a2.394 2.394 0 0 0-.337 1.234c0 .54.2.987.6 1.342.4.355.906.532 1.517.532m-.027.93c-.935 0-1.708-.253-2.32-.76-.61-.508-.916-1.15-.916-1.922 0-.62.175-1.166.526-1.639.35-.471.786-.85 1.307-1.139.019-.009.027-.025.027-.047a.081.081 0 0 0-.027-.06c-.89-.62-1.334-1.39-1.334-2.306 0-.764.26-1.384.782-1.861.521-.476 1.186-.715 1.995-.715.845 0 1.52.248 2.022.742.504.494.756 1.137.756 1.928 0 .476-.133.928-.398 1.355-.265.427-.577.78-.938 1.058a.085.085 0 0 0-.026.062c0 .022.008.037.026.047 1.125.656 1.686 1.536 1.686 2.642 0 .746-.294 1.369-.883 1.867-.589.5-1.35.749-2.285.749M163.37 77.613c.745 0 1.424-.418 2.035-1.253a.337.337 0 0 0 .068-.243c-.08-.998-.308-1.755-.681-2.272-.374-.517-.879-.775-1.517-.775-.494 0-.903.21-1.227.634-.323.422-.485.975-.485 1.658 0 .701.155 1.252.465 1.651.31.4.757.6 1.342.6m-2.414 4.275a.445.445 0 0 1-.182-.358.57.57 0 0 1 .142-.397.47.47 0 0 1 .35-.155.58.58 0 0 1 .378.114 2.28 2.28 0 0 0 1.32.418c.702 0 1.284-.324 1.747-.97.463-.648.726-1.686.788-3.115 0-.018-.01-.031-.033-.04-.022-.01-.038-.005-.047.013-.306.35-.656.629-1.052.836-.395.207-.795.31-1.2.31-.863 0-1.544-.274-2.043-.823-.499-.548-.748-1.334-.748-2.36 0-.96.28-1.75.842-2.366.562-.615 1.248-.923 2.057-.923 1.015 0 1.836.413 2.46 1.24.626.828.938 2.018.938 3.573 0 .989-.101 1.859-.303 2.61-.203.75-.477 1.343-.823 1.78-.346.436-.733.759-1.16.97a3.077 3.077 0 0 1-1.382.317c-.782 0-1.465-.225-2.049-.674M191.786 82.387a.505.505 0 0 1-.37-.155.507.507 0 0 1-.156-.372c0-.143.052-.266.155-.37a.506.506 0 0 1 .371-.155h1.59c.091 0 .136-.045.136-.135v-7.28c0-.09-.045-.136-.135-.136h-1.254a.393.393 0 0 1-.404-.404.499.499 0 0 1 .39-.472 6.694 6.694 0 0 0 1.282-.418c.323-.153.625-.23.903-.23.135 0 .25.048.344.142a.466.466 0 0 1 .142.344V81.2c0 .09.044.135.135.135h1.375c.143 0 .267.052.37.155a.505.505 0 0 1 .155.37.506.506 0 0 1-.154.372.506.506 0 0 1-.371.155h-4.504zM201.548 81.564c.593 0 1.06-.352 1.402-1.058.342-.706.513-1.778.513-3.216 0-1.42-.171-2.474-.513-3.162-.341-.688-.809-1.031-1.402-1.031-.61 0-1.088.343-1.43 1.031-.34.688-.511 1.742-.511 3.162 0 1.438.17 2.51.512 3.216.341.706.818 1.058 1.43 1.058m0 .998c-.99 0-1.765-.447-2.327-1.342-.561-.894-.842-2.204-.842-3.93 0-1.717.278-3.016.835-3.897.558-.88 1.336-1.321 2.333-1.321.98 0 1.748.44 2.306 1.321.557.881.835 2.18.835 3.897 0 1.726-.278 3.036-.835 3.93-.558.895-1.326 1.342-2.306 1.342M127.423 59.723a.505.505 0 0 1-.37-.155.507.507 0 0 1-.156-.371c0-.144.052-.267.155-.37a.506.506 0 0 1 .37-.156h1.591c.09 0 .136-.045.136-.135v-7.28c0-.09-.045-.136-.136-.136h-1.253a.393.393 0 0 1-.405-.404.499.499 0 0 1 .39-.472 6.694 6.694 0 0 0 1.283-.418c.323-.153.624-.23.903-.23.135 0 .25.048.343.142a.466.466 0 0 1 .142.344v8.454c0 .09.045.135.135.135h1.375c.144 0 .268.052.371.155a.505.505 0 0 1 .155.37.506.506 0 0 1-.155.372.506.506 0 0 1-.37.155h-4.504z"/>
            <g transform="translate(160.358 48.945)">
                <mask id="b" fill="#fff">
                    <use xlink:href="#a"/>
                </mask>
                <path fill="#251910" d="M.396 10.778a.368.368 0 0 1-.377-.378c0-.243.094-.449.283-.62 1.5-1.33 2.602-2.5 3.303-3.506.7-1.007 1.052-1.933 1.052-2.778 0-.602-.16-1.085-.479-1.45-.319-.363-.782-.545-1.389-.545-.606 0-1.189.265-1.746.795a.512.512 0 0 1-.357.156.462.462 0 0 1-.357-.142.506.506 0 0 1-.155-.357.446.446 0 0 1 .155-.358C1.12.84 1.991.463 2.944.463c.9 0 1.614.271 2.144.816.53.544.796 1.27.796 2.177 0 .944-.33 1.92-.99 2.926-.662 1.007-1.617 2.108-2.866 3.303-.019.018-.023.039-.014.061s.022.03.04.02a23.23 23.23 0 0 1 1.524-.08h2.265c.144 0 .27.053.378.161a.523.523 0 0 1 .162.384.525.525 0 0 1-.162.385.517.517 0 0 1-.378.162H.396z" mask="url(#b)"/>
            </g>
            <g transform="translate(194.408 48.945)">
                <mask id="d" fill="#fff">
                    <use xlink:href="#c"/>
                </mask>
                <path fill="#251910" d="M3.108 10.953c-1.133 0-2.09-.337-2.872-1.011a.546.546 0 0 1-.176-.419c0-.134.041-.256.122-.363a.429.429 0 0 1 .33-.176.511.511 0 0 1 .371.121c.63.531 1.34.796 2.13.796.612 0 1.109-.168 1.49-.506.382-.337.573-.793.573-1.368 0-1.25-.89-1.92-2.67-2.009a.516.516 0 0 1-.343-.155.466.466 0 0 1-.142-.344c0-.135.047-.25.142-.344a.52.52 0 0 1 .344-.155c.809-.063 1.397-.263 1.766-.6.368-.337.553-.775.553-1.314 0-.495-.153-.888-.459-1.18-.305-.293-.724-.443-1.254-.452-.593.018-1.16.238-1.698.66a.565.565 0 0 1-.391.122.476.476 0 0 1-.351-.176.527.527 0 0 1-.121-.383.466.466 0 0 1 .188-.358C1.386.755 2.195.463 3.068.463c.871 0 1.579.224 2.123.674.543.45.816 1.07.816 1.86 0 .594-.157 1.097-.472 1.511-.315.414-.75.723-1.308.93-.019.01-.027.023-.027.04 0 .019.008.027.027.027.629.153 1.141.455 1.537.904.396.45.593 1.003.593 1.658 0 .881-.31 1.583-.93 2.104-.62.521-1.393.782-2.32.782" mask="url(#d)"/>
            </g>
            <path fill="#251910" d="M225.89 82.387a.505.505 0 0 1-.37-.155.507.507 0 0 1-.156-.372c0-.143.052-.266.156-.37a.506.506 0 0 1 .37-.155h1.59c.091 0 .136-.045.136-.135v-7.28c0-.09-.045-.136-.135-.136h-1.254a.393.393 0 0 1-.404-.404.499.499 0 0 1 .39-.472 6.694 6.694 0 0 0 1.282-.418c.323-.153.625-.23.903-.23.135 0 .25.048.344.142a.466.466 0 0 1 .142.344V81.2c0 .09.044.135.135.135h1.375c.143 0 .267.052.37.155a.505.505 0 0 1 .155.37.506.506 0 0 1-.154.372.506.506 0 0 1-.371.155h-4.504zM233.549 82.387a.505.505 0 0 1-.371-.155.507.507 0 0 1-.155-.372c0-.143.052-.266.155-.37a.506.506 0 0 1 .37-.155h1.591c.09 0 .136-.045.136-.135v-7.28c0-.09-.045-.136-.136-.136h-1.253a.393.393 0 0 1-.405-.404.499.499 0 0 1 .39-.472 6.694 6.694 0 0 0 1.283-.418c.323-.153.624-.23.903-.23.135 0 .25.048.343.142a.466.466 0 0 1 .142.344V81.2c0 .09.045.135.135.135h1.375c.144 0 .268.052.371.155a.505.505 0 0 1 .155.37.506.506 0 0 1-.155.372.506.506 0 0 1-.37.155h-4.504zM20.953 104.729a.505.505 0 0 1-.37-.155.507.507 0 0 1-.156-.371c0-.144.052-.267.155-.37a.506.506 0 0 1 .371-.156h1.59c.09 0 .136-.045.136-.135v-7.28c0-.09-.045-.136-.135-.136H21.29a.393.393 0 0 1-.404-.404.499.499 0 0 1 .39-.472 6.694 6.694 0 0 0 1.282-.418c.323-.152.624-.23.903-.23.135 0 .25.048.344.143a.466.466 0 0 1 .141.343v8.454c0 .09.045.135.135.135h1.375c.144 0 .268.052.371.155a.505.505 0 0 1 .155.37.506.506 0 0 1-.155.372.506.506 0 0 1-.37.155h-4.504zM27.856 104.729a.368.368 0 0 1-.377-.378c0-.242.094-.449.283-.62 1.5-1.33 2.602-2.499 3.304-3.506.7-1.006 1.051-1.932 1.051-2.777 0-.602-.16-1.086-.479-1.45-.318-.364-.782-.546-1.388-.546-.607 0-1.19.265-1.747.796a.512.512 0 0 1-.357.155.462.462 0 0 1-.357-.142.506.506 0 0 1-.155-.357.446.446 0 0 1 .155-.358c.791-.754 1.663-1.132 2.616-1.132.898 0 1.614.272 2.144.816.53.544.795 1.27.795 2.177 0 .944-.33 1.92-.99 2.926-.662 1.007-1.617 2.108-2.866 3.304-.018.018-.023.038-.014.06.01.023.022.03.04.02a23.23 23.23 0 0 1 1.525-.08h2.265c.143 0 .27.054.377.161a.523.523 0 0 1 .162.385.525.525 0 0 1-.162.384.517.517 0 0 1-.377.162h-5.448zM55.455 104.729a.505.505 0 0 1-.371-.155.507.507 0 0 1-.155-.371c0-.144.052-.267.155-.37a.506.506 0 0 1 .37-.156h1.591c.09 0 .136-.045.136-.135v-7.28c0-.09-.045-.136-.136-.136h-1.253a.393.393 0 0 1-.405-.404.499.499 0 0 1 .39-.472 6.694 6.694 0 0 0 1.283-.418c.323-.152.624-.23.903-.23.135 0 .25.048.343.143a.466.466 0 0 1 .142.343v8.454c0 .09.045.135.135.135h1.375c.144 0 .268.052.371.155a.505.505 0 0 1 .155.37.506.506 0 0 1-.155.372.506.506 0 0 1-.37.155h-4.504zM65.014 104.904c-1.132 0-2.09-.337-2.872-1.01a.546.546 0 0 1-.175-.42c0-.134.04-.256.121-.363a.429.429 0 0 1 .33-.176.511.511 0 0 1 .372.122c.629.53 1.339.795 2.13.795.611 0 1.108-.168 1.49-.505.382-.337.573-.794.573-1.369 0-1.25-.89-1.919-2.67-2.009a.516.516 0 0 1-.343-.155.466.466 0 0 1-.142-.344c0-.135.047-.25.142-.344a.52.52 0 0 1 .343-.155c.81-.062 1.398-.262 1.767-.6.368-.336.552-.775.552-1.314 0-.495-.152-.888-.458-1.18-.306-.292-.724-.443-1.254-.452-.593.019-1.16.238-1.699.66a.565.565 0 0 1-.39.123.476.476 0 0 1-.352-.176.527.527 0 0 1-.12-.384.466.466 0 0 1 .188-.357c.746-.585 1.555-.877 2.427-.877.872 0 1.58.225 2.123.674.544.45.816 1.07.816 1.86 0 .594-.157 1.098-.471 1.511-.315.414-.751.723-1.309.93-.018.01-.026.023-.026.041 0 .018.008.027.026.027.63.153 1.141.454 1.538.904.395.449.593 1.002.593 1.658 0 .88-.31 1.582-.93 2.103-.621.522-1.394.782-2.32.782M89.49 104.729a.505.505 0 0 1-.37-.155.507.507 0 0 1-.156-.371c0-.144.052-.267.155-.37a.506.506 0 0 1 .371-.156h1.59c.09 0 .136-.045.136-.135v-7.28c0-.09-.045-.136-.136-.136h-1.253a.393.393 0 0 1-.405-.404.499.499 0 0 1 .39-.472 6.694 6.694 0 0 0 1.283-.418c.323-.152.624-.23.903-.23.135 0 .25.048.344.143a.466.466 0 0 1 .141.343v8.454c0 .09.045.135.135.135h1.375c.144 0 .268.052.371.155a.505.505 0 0 1 .155.37.506.506 0 0 1-.155.372.506.506 0 0 1-.37.155H89.49zM97.067 100.819a.084.084 0 0 0 .007.074.066.066 0 0 0 .06.033h2.819c.09 0 .135-.044.135-.134v-2.967c0-.189.027-.79.08-1.806 0-.018-.009-.028-.026-.028-.018 0-.032.01-.041.028-.215.431-.481.917-.796 1.456l-2.238 3.344zm5.057.107c.143 0 .265.05.364.149.099.099.148.218.148.357 0 .14-.05.259-.148.357a.494.494 0 0 1-.364.149h-.701c-.09 0-.136.045-.136.134v2.05c0 .171-.057.315-.174.432a.579.579 0 0 1-.425.175.578.578 0 0 1-.425-.175.586.586 0 0 1-.175-.432v-2.05c0-.09-.045-.134-.135-.134h-3.856a.405.405 0 0 1-.297-.121.404.404 0 0 1-.121-.298c0-.269.076-.52.229-.754l3.614-5.57a1.205 1.205 0 0 1 1.078-.592c.189 0 .35.07.485.208.135.14.202.304.202.493v5.488c0 .09.046.134.136.134h.7zM123.594 104.729a.505.505 0 0 1-.37-.155.507.507 0 0 1-.156-.371c0-.144.052-.267.155-.37a.506.506 0 0 1 .371-.156h1.59c.09 0 .136-.045.136-.135v-7.28c0-.09-.045-.136-.135-.136h-1.254a.393.393 0 0 1-.404-.404.499.499 0 0 1 .39-.472 6.694 6.694 0 0 0 1.282-.418c.323-.152.624-.23.903-.23.135 0 .25.048.344.143a.466.466 0 0 1 .141.343v8.454c0 .09.045.135.135.135h1.375c.144 0 .268.052.371.155a.505.505 0 0 1 .155.37.506.506 0 0 1-.155.372.506.506 0 0 1-.37.155h-4.504zM133.113 104.904c-1.088 0-2.032-.328-2.831-.984a.525.525 0 0 1-.19-.418c0-.126.042-.243.122-.351a.422.422 0 0 1 .324-.175.498.498 0 0 1 .364.122 3.25 3.25 0 0 0 2.103.754c.611 0 1.124-.218 1.537-.653.414-.436.62-1.014.62-1.733 0-.72-.19-1.283-.572-1.692-.383-.409-.893-.614-1.531-.614-.458 0-.908.13-1.349.391a.73.73 0 0 1-.35.095.632.632 0 0 1-.323-.095.608.608 0 0 1-.31-.606l.215-3.169c.018-.324.148-.6.391-.83.243-.229.53-.343.863-.343h3.21c.152 0 .28.054.383.161a.536.536 0 0 1 .156.385.515.515 0 0 1-.156.378.521.521 0 0 1-.384.154h-3.141c-.09 0-.14.046-.149.135l-.229 2.656c0 .036.011.061.034.075a.083.083 0 0 0 .073.006 2.968 2.968 0 0 1 1.39-.336c.89 0 1.62.269 2.191.808.57.54.856 1.34.856 2.4 0 .72-.16 1.349-.479 1.888-.32.54-.726.94-1.22 1.2a3.417 3.417 0 0 1-1.618.391M157.68 104.729a.505.505 0 0 1-.37-.155.507.507 0 0 1-.156-.371c0-.144.052-.267.155-.37a.506.506 0 0 1 .37-.156h1.591c.09 0 .136-.045.136-.135v-7.28c0-.09-.045-.136-.136-.136h-1.253a.393.393 0 0 1-.405-.404.499.499 0 0 1 .39-.472 6.694 6.694 0 0 0 1.283-.418c.323-.152.624-.23.903-.23.135 0 .25.048.344.143a.466.466 0 0 1 .141.343v8.454c0 .09.045.135.135.135h1.375c.144 0 .268.052.371.155a.505.505 0 0 1 .155.37.506.506 0 0 1-.155.372.506.506 0 0 1-.37.155h-4.504zM167.752 103.933c.494 0 .903-.215 1.226-.647.325-.431.486-.984.486-1.658 0-.701-.153-1.25-.458-1.645-.306-.396-.76-.593-1.362-.593-.729 0-1.393.395-1.995 1.186a.339.339 0 0 0-.068.243c.09 1.007.32 1.778.688 2.313.368.534.863.801 1.483.801m2.346-8.845c.108.1.164.223.169.37a.53.53 0 0 1-.142.385c-.09.1-.204.15-.344.155a.565.565 0 0 1-.37-.114 2.064 2.064 0 0 0-1.255-.418c-.746 0-1.357.321-1.834.964-.476.642-.732 1.679-.768 3.108 0 .027.009.042.027.047a.08.08 0 0 0 .054-.007 3.502 3.502 0 0 1 1.051-.83 2.537 2.537 0 0 1 1.16-.303c.881 0 1.569.27 2.063.81.495.539.742 1.33.742 2.373 0 .952-.28 1.737-.843 2.353-.562.615-1.247.923-2.056.923-1.007 0-1.823-.429-2.447-1.288-.625-.858-.938-2.096-.938-3.714 0-.962.101-1.804.304-2.528.202-.724.48-1.295.836-1.713.355-.418.75-.73 1.186-.937.436-.206.91-.31 1.423-.31.755 0 1.416.225 1.982.674M191.786 104.729a.505.505 0 0 1-.37-.155.507.507 0 0 1-.156-.371c0-.144.052-.267.155-.37a.506.506 0 0 1 .371-.156h1.59c.091 0 .136-.045.136-.135v-7.28c0-.09-.045-.136-.135-.136h-1.254a.393.393 0 0 1-.404-.404.499.499 0 0 1 .39-.472 6.694 6.694 0 0 0 1.282-.418c.323-.152.625-.23.903-.23.135 0 .25.048.344.143a.466.466 0 0 1 .142.343v8.454c0 .09.044.135.135.135h1.375c.143 0 .267.052.37.155a.505.505 0 0 1 .155.37.506.506 0 0 1-.154.372.506.506 0 0 1-.371.155h-4.504zM201.777 104.068a.678.678 0 0 1-.687.66.58.58 0 0 1-.445-.188.6.6 0 0 1-.175-.418c0-1.429.26-2.943.781-4.544.414-1.258 1.066-2.521 1.956-3.789.018-.018.02-.04.006-.067-.013-.027-.033-.04-.06-.04h-4.234a.526.526 0 0 1-.378-.156.502.502 0 0 1-.161-.377c0-.148.053-.277.161-.384a.515.515 0 0 1 .378-.162h5.42c.108 0 .198.038.27.114a.391.391 0 0 1 .108.277c0 .242-.077.467-.23.674-.97 1.304-1.642 2.569-2.015 3.796-.373 1.226-.604 2.762-.695 4.604M225.89 104.729a.505.505 0 0 1-.37-.155.507.507 0 0 1-.156-.371c0-.144.052-.267.156-.37a.506.506 0 0 1 .37-.156h1.59c.091 0 .136-.045.136-.135v-7.28c0-.09-.045-.136-.135-.136h-1.254a.393.393 0 0 1-.404-.404.499.499 0 0 1 .39-.472 6.694 6.694 0 0 0 1.282-.418c.323-.152.625-.23.903-.23.135 0 .25.048.344.143a.466.466 0 0 1 .142.343v8.454c0 .09.044.135.135.135h1.375c.143 0 .267.052.37.155a.505.505 0 0 1 .155.37.506.506 0 0 1-.154.372.506.506 0 0 1-.371.155h-4.504zM236.232 99.187a.179.179 0 0 0 .216-.04c.638-.593.957-1.245.957-1.955 0-.513-.155-.942-.465-1.288-.31-.346-.73-.52-1.26-.52-.468 0-.853.152-1.154.453-.301.301-.451.698-.451 1.193 0 .279.054.53.161.755.108.225.275.422.499.593.225.17.448.315.667.431.221.117.498.243.83.378m-.54 4.786c.576 0 1.043-.159 1.403-.478.36-.319.54-.73.54-1.233 0-.261-.048-.497-.143-.709a2.004 2.004 0 0 0-.344-.539 2.475 2.475 0 0 0-.58-.445 7.527 7.527 0 0 0-.673-.357c-.198-.09-.468-.207-.81-.35a.453.453 0 0 0-.107-.014.26.26 0 0 0-.135.04c-.396.27-.705.596-.93.978a2.394 2.394 0 0 0-.337 1.233c0 .54.2.987.6 1.342.4.355.906.532 1.517.532m-.027.93c-.935 0-1.709-.253-2.32-.76-.61-.508-.917-1.149-.917-1.922 0-.62.176-1.166.527-1.638.35-.472.786-.852 1.307-1.14.019-.009.027-.024.027-.047a.081.081 0 0 0-.027-.06c-.89-.62-1.335-1.389-1.335-2.306 0-.764.261-1.384.783-1.86.521-.477 1.186-.716 1.995-.716.845 0 1.519.248 2.022.742.504.494.756 1.138.756 1.928 0 .476-.133.928-.398 1.355-.265.427-.577.78-.938 1.059a.085.085 0 0 0-.026.06c0 .023.008.039.026.048 1.125.656 1.686 1.536 1.686 2.642 0 .746-.294 1.37-.883 1.867-.59.5-1.35.749-2.285.749M20.953 127.477a.505.505 0 0 1-.37-.154.507.507 0 0 1-.156-.372c0-.143.052-.267.155-.37a.506.506 0 0 1 .371-.155h1.59c.09 0 .136-.045.136-.135v-7.281c0-.09-.045-.135-.135-.135H21.29a.393.393 0 0 1-.404-.404.499.499 0 0 1 .39-.472 6.694 6.694 0 0 0 1.282-.419c.323-.152.624-.229.903-.229.135 0 .25.047.344.142a.466.466 0 0 1 .141.344v8.454c0 .09.045.135.135.135h1.375c.144 0 .268.052.371.155a.505.505 0 0 1 .155.37.506.506 0 0 1-.155.372.506.506 0 0 1-.37.154h-4.504zM30.472 122.704c.746 0 1.425-.418 2.036-1.254a.337.337 0 0 0 .068-.242c-.081-.998-.309-1.755-.682-2.272-.373-.517-.878-.776-1.516-.776-.494 0-.904.212-1.227.634-.324.423-.486.976-.486 1.658 0 .702.156 1.252.466 1.652.31.4.757.6 1.341.6m-2.413 4.274a.445.445 0 0 1-.183-.357.57.57 0 0 1 .142-.397.47.47 0 0 1 .35-.156.58.58 0 0 1 .378.115 2.28 2.28 0 0 0 1.322.418c.701 0 1.283-.324 1.746-.971.462-.647.726-1.685.788-3.115 0-.017-.011-.03-.033-.04-.023-.009-.039-.004-.047.014-.306.35-.657.629-1.052.835-.396.207-.796.31-1.2.31-.863 0-1.544-.274-2.043-.822-.5-.548-.748-1.334-.748-2.36 0-.961.28-1.75.842-2.366.562-.615 1.248-.924 2.057-.924 1.015 0 1.836.414 2.46 1.241.625.827.937 2.018.937 3.573 0 .989-.1 1.859-.302 2.61-.203.75-.478 1.343-.823 1.779-.346.436-.733.76-1.16.97a3.077 3.077 0 0 1-1.382.318c-.782 0-1.465-.225-2.049-.675M54.7 127.477a.368.368 0 0 1-.377-.377c0-.243.094-.45.283-.62 1.5-1.33 2.602-2.5 3.303-3.506.7-1.007 1.051-1.933 1.051-2.778 0-.602-.16-1.085-.478-1.45-.319-.363-.782-.545-1.389-.545s-1.19.265-1.746.795a.512.512 0 0 1-.358.156.462.462 0 0 1-.356-.142.506.506 0 0 1-.156-.357.446.446 0 0 1 .156-.358c.79-.755 1.662-1.133 2.615-1.133.899 0 1.614.272 2.144.816.53.545.796 1.27.796 2.178 0 .944-.331 1.92-.991 2.926-.661 1.006-1.617 2.108-2.865 3.303-.019.018-.023.039-.015.061.01.022.023.03.041.02a23.23 23.23 0 0 1 1.524-.08h2.265c.144 0 .27.053.377.16a.523.523 0 0 1 .163.385.525.525 0 0 1-.163.385.517.517 0 0 1-.377.161H54.7zM65.217 126.655c.593 0 1.06-.352 1.402-1.058.341-.706.513-1.778.513-3.217 0-1.42-.172-2.473-.513-3.161-.342-.688-.81-1.032-1.402-1.032-.611 0-1.088.344-1.43 1.032-.341.688-.512 1.741-.512 3.161 0 1.439.171 2.511.512 3.217.342.706.819 1.058 1.43 1.058m0 .998c-.99 0-1.765-.447-2.326-1.342-.562-.894-.843-2.204-.843-3.93 0-1.717.279-3.016.836-3.897.557-.881 1.335-1.321 2.333-1.321.98 0 1.747.44 2.306 1.32.556.882.835 2.18.835 3.897 0 1.727-.279 3.037-.835 3.931-.559.895-1.327 1.342-2.306 1.342M88.735 127.477a.368.368 0 0 1-.377-.377c0-.243.094-.45.283-.62 1.5-1.33 2.602-2.5 3.303-3.506.7-1.007 1.052-1.933 1.052-2.778 0-.602-.16-1.085-.479-1.45-.319-.363-.782-.545-1.389-.545-.606 0-1.189.265-1.746.795a.512.512 0 0 1-.357.156.462.462 0 0 1-.357-.142.506.506 0 0 1-.155-.357.446.446 0 0 1 .155-.358c.79-.755 1.662-1.133 2.615-1.133.899 0 1.614.272 2.144.816.53.545.796 1.27.796 2.178 0 .944-.331 1.92-.991 2.926-.661 1.006-1.616 2.108-2.865 3.303-.019.018-.023.039-.014.061s.022.03.04.02a23.23 23.23 0 0 1 1.524-.08h2.265c.144 0 .27.053.377.16a.523.523 0 0 1 .163.385.525.525 0 0 1-.163.385.517.517 0 0 1-.377.161h-5.447zM97.148 127.477a.505.505 0 0 1-.37-.154.507.507 0 0 1-.156-.372c0-.143.052-.267.156-.37a.506.506 0 0 1 .37-.155h1.59c.091 0 .136-.045.136-.135v-7.281c0-.09-.045-.135-.135-.135h-1.254a.393.393 0 0 1-.404-.404.499.499 0 0 1 .39-.472 6.694 6.694 0 0 0 1.282-.419c.323-.152.625-.229.903-.229.135 0 .25.047.344.142a.466.466 0 0 1 .142.344v8.454c0 .09.044.135.135.135h1.375c.143 0 .267.052.37.155a.505.505 0 0 1 .155.37.506.506 0 0 1-.154.372.506.506 0 0 1-.371.154h-4.504zM122.839 127.477a.368.368 0 0 1-.377-.377c0-.243.094-.45.283-.62 1.5-1.33 2.602-2.5 3.303-3.506.7-1.007 1.052-1.933 1.052-2.778 0-.602-.16-1.085-.479-1.45-.319-.363-.782-.545-1.389-.545-.606 0-1.189.265-1.746.795a.512.512 0 0 1-.357.156.462.462 0 0 1-.357-.142.506.506 0 0 1-.155-.357.446.446 0 0 1 .155-.358c.79-.755 1.662-1.133 2.615-1.133.899 0 1.614.272 2.144.816.53.545.796 1.27.796 2.178 0 .944-.331 1.92-.991 2.926-.661 1.006-1.616 2.108-2.865 3.303-.019.018-.023.039-.014.061s.022.03.04.02a23.229 23.229 0 0 1 1.524-.08h2.265c.144 0 .27.053.377.16a.523.523 0 0 1 .163.385.525.525 0 0 1-.163.385.517.517 0 0 1-.377.161h-5.447zM130.497 127.477a.368.368 0 0 1-.377-.377c0-.243.094-.45.283-.62 1.5-1.33 2.602-2.5 3.304-3.506.7-1.007 1.051-1.933 1.051-2.778 0-.602-.16-1.085-.479-1.45-.318-.363-.781-.545-1.388-.545-.607 0-1.19.265-1.747.795a.512.512 0 0 1-.357.156.462.462 0 0 1-.357-.142.506.506 0 0 1-.155-.357.446.446 0 0 1 .155-.358c.791-.755 1.663-1.133 2.616-1.133.898 0 1.614.272 2.144.816.53.545.795 1.27.795 2.178 0 .944-.33 1.92-.99 2.926-.662 1.006-1.617 2.108-2.866 3.303-.018.018-.023.039-.014.061.01.022.022.03.04.02a23.23 23.23 0 0 1 1.525-.08h2.265c.143 0 .27.053.377.16a.523.523 0 0 1 .162.385.525.525 0 0 1-.162.385.517.517 0 0 1-.377.161h-5.448zM156.925 127.477a.368.368 0 0 1-.377-.377c0-.243.094-.45.283-.62 1.5-1.33 2.602-2.5 3.303-3.506.7-1.007 1.051-1.933 1.051-2.778 0-.602-.16-1.085-.478-1.45-.319-.363-.782-.545-1.389-.545-.606 0-1.19.265-1.746.795a.512.512 0 0 1-.357.156.462.462 0 0 1-.357-.142.506.506 0 0 1-.155-.357.446.446 0 0 1 .155-.358c.79-.755 1.662-1.133 2.615-1.133.899 0 1.614.272 2.144.816.53.545.796 1.27.796 2.178 0 .944-.331 1.92-.991 2.926-.661 1.006-1.617 2.108-2.865 3.303-.019.018-.023.039-.014.061s.022.03.04.02a23.23 23.23 0 0 1 1.524-.08h2.265c.144 0 .27.053.377.16a.523.523 0 0 1 .163.385.525.525 0 0 1-.163.385.517.517 0 0 1-.377.161h-5.447zM167.24 127.653c-1.133 0-2.09-.337-2.873-1.011a.546.546 0 0 1-.175-.419c0-.134.04-.256.121-.363a.429.429 0 0 1 .33-.176.511.511 0 0 1 .372.121c.629.53 1.339.796 2.13.796.611 0 1.108-.169 1.49-.506.382-.337.573-.793.573-1.368 0-1.25-.89-1.92-2.67-2.01a.516.516 0 0 1-.343-.155.466.466 0 0 1-.142-.343c0-.135.047-.25.142-.344a.52.52 0 0 1 .343-.155c.81-.063 1.398-.263 1.767-.6.368-.337.552-.775.552-1.314 0-.495-.152-.888-.458-1.18-.305-.293-.724-.443-1.254-.452-.593.018-1.16.238-1.699.66a.565.565 0 0 1-.39.122.476.476 0 0 1-.351-.176.527.527 0 0 1-.122-.384.466.466 0 0 1 .189-.357c.746-.584 1.555-.876 2.428-.876.87 0 1.578.224 2.122.674.544.45.816 1.07.816 1.86 0 .594-.157 1.097-.471 1.51-.315.414-.751.724-1.309.93-.018.01-.026.024-.026.042 0 .018.008.026.026.026.63.153 1.141.455 1.538.904.395.45.593 1.002.593 1.658 0 .881-.31 1.583-.93 2.104-.621.521-1.394.782-2.32.782M191.031 127.477a.368.368 0 0 1-.377-.377c0-.243.094-.45.283-.62 1.5-1.33 2.602-2.5 3.304-3.506.7-1.007 1.05-1.933 1.05-2.778 0-.602-.159-1.085-.478-1.45-.319-.363-.782-.545-1.388-.545-.607 0-1.19.265-1.747.795a.512.512 0 0 1-.357.156.462.462 0 0 1-.357-.142.506.506 0 0 1-.155-.357.446.446 0 0 1 .155-.358c.79-.755 1.663-1.133 2.615-1.133.9 0 1.614.272 2.144.816.531.545.796 1.27.796 2.178 0 .944-.33 1.92-.99 2.926-.662 1.006-1.617 2.108-2.866 3.303-.018.018-.023.039-.014.061.01.022.022.03.04.02a23.23 23.23 0 0 1 1.524-.08h2.266c.143 0 .269.053.377.16a.523.523 0 0 1 .162.385.525.525 0 0 1-.162.385.517.517 0 0 1-.377.161h-5.448zM199.364 123.567a.084.084 0 0 0 .007.074.066.066 0 0 0 .06.034h2.818c.09 0 .135-.045.135-.134v-2.967c0-.19.027-.79.08-1.807 0-.018-.008-.027-.026-.027s-.031.01-.04.027c-.216.432-.482.917-.796 1.456l-2.238 3.344zm5.056.108c.144 0 .266.05.364.148.1.1.149.218.149.358 0 .139-.05.258-.149.357a.494.494 0 0 1-.364.148h-.7c-.09 0-.136.045-.136.135v2.05c0 .17-.058.314-.175.431a.579.579 0 0 1-.425.175.578.578 0 0 1-.424-.175.586.586 0 0 1-.176-.431v-2.05c0-.09-.045-.135-.135-.135h-3.856a.405.405 0 0 1-.297-.12.404.404 0 0 1-.12-.298c0-.27.075-.52.228-.755l3.614-5.569a1.205 1.205 0 0 1 1.078-.593c.19 0 .35.07.486.209.135.14.202.304.202.492v5.489c0 .09.045.134.135.134h.701zM225.135 127.477a.368.368 0 0 1-.377-.377c0-.243.094-.45.283-.62 1.5-1.33 2.602-2.5 3.304-3.506.7-1.007 1.05-1.933 1.05-2.778 0-.602-.159-1.085-.478-1.45-.318-.363-.782-.545-1.388-.545-.607 0-1.19.265-1.747.795a.512.512 0 0 1-.357.156.462.462 0 0 1-.357-.142.506.506 0 0 1-.155-.357.446.446 0 0 1 .155-.358c.791-.755 1.663-1.133 2.615-1.133.9 0 1.615.272 2.144.816.531.545.796 1.27.796 2.178 0 .944-.33 1.92-.99 2.926-.662 1.006-1.617 2.108-2.866 3.303-.018.018-.023.039-.014.061.01.022.022.03.04.02a23.23 23.23 0 0 1 1.524-.08h2.266c.143 0 .27.053.377.16a.523.523 0 0 1 .162.385.525.525 0 0 1-.162.385.517.517 0 0 1-.377.161h-5.448zM235.41 127.653c-1.089 0-2.032-.328-2.832-.985a.525.525 0 0 1-.189-.418c0-.125.041-.242.121-.35a.422.422 0 0 1 .324-.175.498.498 0 0 1 .364.121 3.25 3.25 0 0 0 2.103.755c.611 0 1.124-.218 1.538-.654.413-.436.62-1.013.62-1.733 0-.719-.191-1.283-.573-1.692-.382-.408-.892-.613-1.53-.613-.459 0-.909.13-1.35.39a.73.73 0 0 1-.35.095.632.632 0 0 1-.323-.094.608.608 0 0 1-.31-.607l.216-3.168c.018-.324.148-.6.39-.83.244-.229.53-.344.864-.344h3.209c.152 0 .28.054.384.162a.536.536 0 0 1 .155.384.515.515 0 0 1-.155.378.521.521 0 0 1-.384.155h-3.142c-.09 0-.14.045-.148.135l-.23 2.656c0 .036.012.06.034.074a.083.083 0 0 0 .074.007 2.968 2.968 0 0 1 1.39-.337c.889 0 1.62.27 2.19.809.57.539.856 1.34.856 2.4 0 .72-.159 1.348-.478 1.888-.32.539-.726.939-1.22 1.2a3.417 3.417 0 0 1-1.618.39M20.198 150.296a.368.368 0 0 1-.377-.378c0-.242.094-.448.283-.62 1.5-1.33 2.602-2.499 3.303-3.505.7-1.007 1.052-1.933 1.052-2.778 0-.602-.16-1.086-.479-1.45-.319-.364-.782-.546-1.389-.546-.606 0-1.189.265-1.746.796a.512.512 0 0 1-.357.155.462.462 0 0 1-.357-.141.506.506 0 0 1-.155-.358.446.446 0 0 1 .155-.358c.79-.754 1.662-1.132 2.615-1.132.9 0 1.614.272 2.144.816.53.544.796 1.27.796 2.177 0 .945-.33 1.92-.99 2.926-.662 1.007-1.617 2.108-2.866 3.304-.019.018-.023.038-.014.06.009.023.022.03.04.021a23.23 23.23 0 0 1 1.524-.081h2.265c.144 0 .27.054.377.162a.523.523 0 0 1 .163.384.525.525 0 0 1-.163.384.517.517 0 0 1-.377.162h-5.447zM31.025 149.5c.494 0 .903-.215 1.226-.647.325-.431.486-.984.486-1.658 0-.701-.152-1.25-.458-1.645-.306-.396-.76-.593-1.362-.593-.728 0-1.393.395-1.995 1.186a.339.339 0 0 0-.068.243c.09 1.007.32 1.778.688 2.313.368.534.863.801 1.483.801m2.346-8.845c.108.1.164.223.169.371a.53.53 0 0 1-.142.385c-.09.099-.204.15-.344.154a.565.565 0 0 1-.37-.114 2.064 2.064 0 0 0-1.255-.418c-.746 0-1.357.321-1.833.964-.477.642-.733 1.679-.769 3.108 0 .027.009.042.027.047a.08.08 0 0 0 .054-.006 3.502 3.502 0 0 1 1.052-.83 2.537 2.537 0 0 1 1.16-.303c.88 0 1.568.27 2.062.809.495.539.742 1.33.742 2.373 0 .953-.28 1.737-.843 2.353-.561.615-1.247.923-2.056.923-1.007 0-1.823-.429-2.447-1.288-.625-.858-.938-2.096-.938-3.714 0-.962.101-1.804.304-2.528.202-.724.48-1.295.836-1.713.355-.417.75-.73 1.186-.937.436-.206.911-.31 1.423-.31.755 0 1.416.225 1.982.674M54.7 150.296a.368.368 0 0 1-.377-.378c0-.242.094-.448.283-.62 1.5-1.33 2.602-2.499 3.303-3.505.7-1.007 1.051-1.933 1.051-2.778 0-.602-.16-1.086-.478-1.45-.319-.364-.782-.546-1.389-.546s-1.19.265-1.746.796a.512.512 0 0 1-.358.155.462.462 0 0 1-.356-.141.506.506 0 0 1-.156-.358.446.446 0 0 1 .156-.358c.79-.754 1.662-1.132 2.615-1.132.899 0 1.614.272 2.144.816.53.544.796 1.27.796 2.177 0 .945-.331 1.92-.991 2.926-.661 1.007-1.617 2.108-2.865 3.304-.019.018-.023.038-.015.06.01.023.023.03.041.021a23.23 23.23 0 0 1 1.524-.081h2.265c.144 0 .27.054.377.162a.523.523 0 0 1 .163.384.525.525 0 0 1-.163.384.517.517 0 0 1-.377.162H54.7zM65.446 149.635a.678.678 0 0 1-.687.66.58.58 0 0 1-.446-.187.6.6 0 0 1-.175-.419c0-1.429.26-2.943.782-4.544.413-1.258 1.065-2.521 1.955-3.788.018-.018.02-.041.007-.068-.013-.027-.034-.04-.06-.04h-4.235a.526.526 0 0 1-.377-.156.502.502 0 0 1-.162-.377c0-.148.054-.276.162-.384a.515.515 0 0 1 .377-.162h5.42c.108 0 .198.038.27.114a.391.391 0 0 1 .108.277c0 .243-.076.467-.229.674-.97 1.304-1.643 2.569-2.016 3.796-.373 1.226-.604 2.762-.694 4.604M88.735 150.296a.368.368 0 0 1-.377-.378c0-.242.094-.448.283-.62 1.5-1.33 2.602-2.499 3.303-3.505.7-1.007 1.052-1.933 1.052-2.778 0-.602-.16-1.086-.479-1.45-.319-.364-.782-.546-1.389-.546-.606 0-1.189.265-1.746.796a.512.512 0 0 1-.357.155.462.462 0 0 1-.357-.141.506.506 0 0 1-.155-.358.446.446 0 0 1 .155-.358c.79-.754 1.662-1.132 2.615-1.132.899 0 1.614.272 2.144.816.53.544.796 1.27.796 2.177 0 .945-.331 1.92-.991 2.926-.661 1.007-1.616 2.108-2.865 3.304-.019.018-.023.038-.014.06.009.023.022.03.04.021a23.23 23.23 0 0 1 1.524-.081h2.265c.144 0 .27.054.377.162a.523.523 0 0 1 .163.384.525.525 0 0 1-.163.384.517.517 0 0 1-.377.162h-5.447zM99.832 144.754a.179.179 0 0 0 .216-.04c.637-.593.957-1.245.957-1.955 0-.513-.155-.942-.465-1.288-.31-.346-.73-.52-1.261-.52-.468 0-.852.152-1.153.453-.302.301-.451.699-.451 1.193 0 .279.053.53.16.755.109.225.275.422.5.593.224.171.447.315.667.432.221.117.497.242.83.377m-.54 4.787c.575 0 1.042-.16 1.403-.479.36-.319.539-.73.539-1.233 0-.26-.048-.497-.142-.708a2.004 2.004 0 0 0-.344-.54 2.475 2.475 0 0 0-.58-.445 7.527 7.527 0 0 0-.674-.357c-.197-.09-.467-.207-.809-.35a.454.454 0 0 0-.107-.014.26.26 0 0 0-.135.04c-.396.27-.706.596-.93.978a2.394 2.394 0 0 0-.337 1.234c0 .54.199.986.6 1.341.399.356.905.533 1.516.533m-.027.93c-.935 0-1.708-.254-2.32-.761-.61-.508-.916-1.149-.916-1.922 0-.62.176-1.166.526-1.638.35-.472.787-.852 1.308-1.14.018-.009.026-.024.026-.047a.081.081 0 0 0-.026-.06c-.89-.62-1.335-1.389-1.335-2.306 0-.764.26-1.384.783-1.86.52-.477 1.186-.716 1.994-.716.845 0 1.52.248 2.023.743.503.494.755 1.137.755 1.927 0 .477-.132.928-.398 1.355-.265.427-.577.78-.937 1.059a.085.085 0 0 0-.027.061c0 .022.009.038.027.047 1.124.656 1.686 1.537 1.686 2.642 0 .746-.294 1.37-.884 1.868-.589.5-1.35.748-2.285.748M122.828 150.296a.368.368 0 0 1-.377-.378c0-.242.094-.448.283-.62 1.5-1.33 2.602-2.499 3.303-3.505.7-1.007 1.052-1.933 1.052-2.778 0-.602-.16-1.086-.479-1.45-.319-.364-.782-.546-1.389-.546-.606 0-1.189.265-1.746.796a.512.512 0 0 1-.357.155.462.462 0 0 1-.357-.141.506.506 0 0 1-.155-.358.446.446 0 0 1 .155-.358c.79-.754 1.662-1.132 2.615-1.132.9 0 1.614.272 2.144.816.53.544.796 1.27.796 2.177 0 .945-.33 1.92-.99 2.926-.662 1.007-1.617 2.108-2.866 3.304-.019.018-.023.038-.014.06.009.023.022.03.04.021a23.23 23.23 0 0 1 1.524-.081h2.266c.143 0 .269.054.377.162a.523.523 0 0 1 .162.384.525.525 0 0 1-.162.384.517.517 0 0 1-.377.162h-5.448zM133.103 145.523c.745 0 1.424-.418 2.035-1.254a.337.337 0 0 0 .068-.243c-.08-.998-.309-1.755-.681-2.272-.374-.517-.879-.775-1.517-.775-.494 0-.903.211-1.227.634-.323.422-.486.975-.486 1.658 0 .701.156 1.252.466 1.652.31.4.757.6 1.342.6m-2.414 4.274a.445.445 0 0 1-.182-.357.57.57 0 0 1 .141-.398.47.47 0 0 1 .35-.155.58.58 0 0 1 .378.114 2.28 2.28 0 0 0 1.322.418c.701 0 1.283-.323 1.746-.97.463-.647.726-1.686.788-3.115 0-.017-.01-.031-.033-.04-.022-.009-.039-.005-.047.013-.306.35-.656.63-1.052.836-.396.207-.796.31-1.2.31-.863 0-1.544-.274-2.043-.823-.499-.547-.748-1.334-.748-2.359 0-.961.28-1.75.842-2.366.562-.616 1.248-.924 2.057-.924 1.015 0 1.836.414 2.46 1.24.625.828.937 2.018.937 3.574 0 .988-.1 1.858-.302 2.61-.203.75-.478 1.343-.823 1.779-.346.436-.733.76-1.16.97a3.077 3.077 0 0 1-1.382.317c-.782 0-1.465-.224-2.049-.674M159.59 150.471c-1.132 0-2.09-.336-2.872-1.01a.546.546 0 0 1-.175-.42c0-.133.041-.255.122-.363a.429.429 0 0 1 .33-.175.511.511 0 0 1 .371.121c.629.53 1.34.796 2.13.796.611 0 1.108-.169 1.49-.506.382-.337.573-.793.573-1.369 0-1.249-.89-1.919-2.67-2.009a.516.516 0 0 1-.343-.155.466.466 0 0 1-.142-.344c0-.134.047-.249.142-.344a.52.52 0 0 1 .344-.155c.809-.062 1.397-.262 1.766-.6.368-.336.553-.775.553-1.314 0-.494-.153-.888-.459-1.18-.305-.292-.724-.442-1.254-.452-.593.019-1.16.239-1.699.66a.565.565 0 0 1-.39.123.476.476 0 0 1-.351-.176.527.527 0 0 1-.122-.384.466.466 0 0 1 .19-.357c.745-.585 1.554-.877 2.427-.877.87 0 1.578.225 2.123.674.543.45.816 1.07.816 1.86 0 .595-.158 1.098-.472 1.511-.315.414-.751.724-1.308.93-.019.01-.027.023-.027.041 0 .018.008.027.027.027.629.153 1.14.454 1.537.904.396.45.593 1.002.593 1.658 0 .88-.31 1.582-.93 2.103-.62.522-1.393.782-2.32.782M167.451 149.473c.593 0 1.06-.352 1.403-1.058.34-.705.512-1.778.512-3.216 0-1.42-.171-2.474-.512-3.162-.342-.687-.81-1.031-1.403-1.031-.61 0-1.087.344-1.43 1.031-.34.688-.511 1.742-.511 3.162 0 1.438.17 2.51.512 3.216.342.706.818 1.058 1.43 1.058m0 .998c-.99 0-1.765-.447-2.327-1.341-.561-.895-.842-2.205-.842-3.93 0-1.718.278-3.016.836-3.897.557-.881 1.335-1.322 2.332-1.322.98 0 1.748.44 2.307 1.322.556.88.835 2.18.835 3.896 0 1.726-.279 3.036-.835 3.93-.559.895-1.327 1.342-2.307 1.342M193.692 150.479c-1.132 0-2.09-.337-2.872-1.011a.546.546 0 0 1-.175-.419c0-.134.04-.256.121-.363a.429.429 0 0 1 .33-.176.511.511 0 0 1 .372.121c.629.53 1.339.796 2.13.796.611 0 1.108-.169 1.49-.506.382-.337.573-.793.573-1.368 0-1.25-.89-1.92-2.67-2.01a.516.516 0 0 1-.343-.155.466.466 0 0 1-.142-.343c0-.135.047-.25.142-.345a.52.52 0 0 1 .343-.154c.81-.063 1.398-.263 1.767-.6.368-.337.552-.775.552-1.315 0-.494-.153-.887-.458-1.18-.306-.292-.724-.442-1.254-.452-.593.02-1.16.239-1.699.661a.565.565 0 0 1-.39.122.476.476 0 0 1-.352-.176.527.527 0 0 1-.12-.384.466.466 0 0 1 .188-.357c.746-.584 1.554-.877 2.427-.877.872 0 1.58.225 2.123.675.544.45.816 1.07.816 1.86 0 .594-.157 1.097-.471 1.51-.316.414-.751.724-1.309.93-.018.01-.026.024-.026.041 0 .018.008.027.026.027.63.153 1.141.455 1.538.904.395.45.593 1.002.593 1.658 0 .88-.31 1.582-.93 2.104-.621.521-1.394.782-2.32.782M199.45 150.303a.505.505 0 0 1-.371-.154.507.507 0 0 1-.156-.372c0-.144.052-.267.156-.37a.506.506 0 0 1 .37-.156h1.591c.09 0 .136-.044.136-.135v-7.28c0-.09-.046-.135-.136-.135h-1.254a.393.393 0 0 1-.404-.404.499.499 0 0 1 .39-.472 6.694 6.694 0 0 0 1.282-.419c.324-.152.625-.229.904-.229.135 0 .25.047.343.142a.466.466 0 0 1 .142.344v8.453c0 .09.045.135.135.135h1.375c.144 0 .267.052.37.156a.505.505 0 0 1 .156.37.506.506 0 0 1-.155.372.506.506 0 0 1-.371.154h-4.503z"/>
            <text fill="#FFF" font-family="GenJyuuGothicX-Regular, Gen Jyuu GothicX" font-size="16.771">
                <tspan x="116.559" y="22.215">8月</tspan>
            </text>
        </g>
        <path stroke="#8EB912" stroke-linecap="round" stroke-linejoin="round" stroke-width="2.287" d="M118.543 67.199h126.091M14.01 87.782h230.624M14.01 110.652h230.624M14.01 133.522h230.624M14.01 156.392h188.77M200 151.704l4.574 4.574-4.574 4.574"/>
        <text fill="#8EB912" font-family="GenJyuuGothicX-Medium, Gen Jyuu GothicX" font-size="12.96" font-weight="400">
            <tspan x="64.081" y="63">無料期間</tspan>
        </text>
        <text fill="#251910" font-family="GenJyuuGothicX-Medium, Gen Jyuu GothicX" font-size="12.96" font-weight="400">
            <tspan x="112" y="182">[8月31日まで無料期間]</tspan>
        </text>
    </g>
</svg>
