<svg xmlns="http://www.w3.org/2000/svg" xmlns:xlink="http://www.w3.org/1999/xlink" width="260" height="196" viewBox="0 0 260 196">
    <defs>
        <path id="a" d="M.579.477h6.393v10.362H.579z"/>
        <path id="c" d="M.131.035H6.47v10.538H.13z"/>
    </defs>
    <g fill="none" fill-rule="evenodd">
        <rect width="259.193" height="196" fill="#F2F2F2" rx="3.512"/>
        <path fill="#2B1405" d="M3.512 0h252.169a3.512 3.512 0 0 1 3.512 3.512v28.506H0V3.512A3.512 3.512 0 0 1 3.512 0z"/>
        <path fill="#251910" d="M232.255 59.109a.681.681 0 0 1-.69.664.583.583 0 0 1-.447-.19.602.602 0 0 1-.176-.42c0-1.435.261-2.957.784-4.564.416-1.265 1.07-2.533 1.965-3.806.018-.018.02-.041.006-.068-.013-.027-.033-.04-.06-.04h-4.253a.528.528 0 0 1-.38-.157.505.505 0 0 1-.162-.379c0-.149.054-.277.162-.386a.518.518 0 0 1 .38-.163h5.445c.108 0 .198.039.27.116.072.077.109.17.109.278 0 .243-.077.47-.23.677-.975 1.31-1.65 2.58-2.025 3.813-.375 1.232-.607 2.774-.698 4.625M24.052 59.775a.507.507 0 0 1-.373-.155.51.51 0 0 1-.156-.373c0-.145.052-.268.156-.372a.508.508 0 0 1 .373-.156h1.598c.09 0 .136-.045.136-.136v-7.314c0-.09-.046-.135-.136-.135h-1.26a.395.395 0 0 1-.406-.406.501.501 0 0 1 .392-.475 6.725 6.725 0 0 0 1.288-.42c.325-.153.627-.23.907-.23.136 0 .25.047.345.143.096.094.143.21.143.345v8.492c0 .09.045.136.135.136h1.382c.144 0 .268.052.372.156a.507.507 0 0 1 .156.372c0 .144-.052.269-.156.373a.508.508 0 0 1-.372.155h-4.524z"/>
        <g transform="translate(56.995 48.934)">
            <mask id="b" fill="#fff">
                <use xlink:href="#a"/>
            </mask>
            <path fill="#251910" d="M.958 10.839a.37.37 0 0 1-.379-.38.81.81 0 0 1 .284-.623C2.371 8.5 3.477 7.326 4.182 6.315c.703-1.011 1.056-1.942 1.056-2.79 0-.605-.16-1.091-.48-1.457-.321-.365-.786-.548-1.396-.548-.61 0-1.195.266-1.754.799a.515.515 0 0 1-.36.156.465.465 0 0 1-.357-.142.508.508 0 0 1-.157-.36.448.448 0 0 1 .157-.359C1.685.856 2.56.477 3.518.477c.903 0 1.62.273 2.153.82.533.546.8 1.275.8 2.187 0 .948-.333 1.928-.996 2.939-.664 1.011-1.623 2.118-2.878 3.319-.019.018-.023.038-.014.06.01.023.022.03.04.021a23.335 23.335 0 0 1 1.531-.081H6.43a.52.52 0 0 1 .379.162.526.526 0 0 1 .163.386.528.528 0 0 1-.163.386.52.52 0 0 1-.379.163H.958z" mask="url(#b)"/>
        </g>
        <path fill="#251910" d="M96.126 59.951c-1.137 0-2.099-.338-2.885-1.015a.549.549 0 0 1-.176-.42c0-.136.041-.258.122-.366a.43.43 0 0 1 .332-.176.514.514 0 0 1 .373.122c.632.532 1.345.799 2.14.799.614 0 1.113-.17 1.497-.508.383-.339.575-.797.575-1.375 0-1.255-.894-1.928-2.682-2.018a.518.518 0 0 1-.345-.156.468.468 0 0 1-.142-.345.47.47 0 0 1 .142-.346.523.523 0 0 1 .345-.156c.813-.062 1.404-.263 1.775-.602.37-.338.555-.779.555-1.32 0-.497-.153-.892-.46-1.186-.307-.293-.728-.445-1.26-.454-.596.019-1.165.24-1.707.664a.567.567 0 0 1-.392.122.478.478 0 0 1-.353-.176.53.53 0 0 1-.122-.386.469.469 0 0 1 .19-.359c.75-.587 1.562-.88 2.439-.88.875 0 1.586.225 2.132.677.546.451.82 1.074.82 1.869 0 .596-.158 1.102-.474 1.517-.317.416-.754.727-1.314.934-.019.01-.027.023-.027.041 0 .018.008.027.027.027.632.154 1.146.457 1.544.908.397.452.596 1.007.596 1.666 0 .885-.312 1.59-.935 2.113-.623.523-1.4.785-2.33.785M127.07 55.847a.085.085 0 0 0 .007.075.066.066 0 0 0 .061.033h2.831c.09 0 .136-.044.136-.135v-2.98c0-.19.027-.794.08-1.815 0-.018-.009-.027-.026-.027-.018 0-.032.01-.041.027a26.03 26.03 0 0 1-.8 1.463l-2.247 3.36zm5.08.108c.144 0 .267.05.365.15.1.1.15.219.15.359 0 .14-.05.26-.15.358a.496.496 0 0 1-.365.15h-.704c-.09 0-.136.044-.136.135v2.059a.588.588 0 0 1-.176.433.581.581 0 0 1-.426.176.58.58 0 0 1-.427-.176.589.589 0 0 1-.176-.433v-2.06c0-.09-.045-.134-.136-.134h-3.874a.407.407 0 0 1-.297-.122.406.406 0 0 1-.122-.299c0-.27.076-.523.23-.758l3.63-5.594a1.21 1.21 0 0 1 1.083-.596c.19 0 .352.07.488.21.135.14.203.305.203.494v5.513c0 .09.046.135.136.135h.704zM163.273 59.949c-1.093 0-2.041-.33-2.845-.989a.527.527 0 0 1-.19-.42.58.58 0 0 1 .123-.352.424.424 0 0 1 .325-.176.5.5 0 0 1 .366.122 3.265 3.265 0 0 0 2.112.758c.614 0 1.129-.219 1.544-.656.416-.438.624-1.019.624-1.741 0-.722-.193-1.289-.576-1.7-.384-.41-.896-.616-1.538-.616-.46 0-.912.131-1.354.393a.733.733 0 0 1-.352.094.635.635 0 0 1-.325-.094.611.611 0 0 1-.311-.61l.216-3.183a1.2 1.2 0 0 1 .393-.833 1.22 1.22 0 0 1 .867-.345h3.223c.153 0 .282.054.386.162a.539.539 0 0 1 .156.386.517.517 0 0 1-.156.38.524.524 0 0 1-.386.155h-3.155c-.091 0-.14.046-.15.136l-.23 2.668c0 .036.012.06.034.074a.083.083 0 0 0 .074.007c.434-.226.9-.338 1.396-.338.893 0 1.627.27 2.201.812.573.542.86 1.346.86 2.411 0 .723-.16 1.355-.481 1.897-.321.541-.73.943-1.226 1.205a3.433 3.433 0 0 1-1.625.393M198.087 58.976c.496 0 .908-.216 1.232-.65.326-.433.488-.989.488-1.666 0-.704-.153-1.255-.46-1.653-.308-.397-.764-.595-1.369-.595-.731 0-1.399.397-2.004 1.191a.34.34 0 0 0-.068.244c.09 1.012.321 1.786.691 2.324.37.536.867.805 1.49.805m2.357-8.885c.108.1.164.223.17.372a.532.532 0 0 1-.143.386.466.466 0 0 1-.346.156.568.568 0 0 1-.372-.115c-.38-.28-.799-.42-1.26-.42-.75 0-1.363.323-1.842.968-.478.646-.736 1.687-.772 3.122 0 .028.009.043.027.048a.08.08 0 0 0 .055-.007c.306-.352.659-.63 1.056-.833a2.548 2.548 0 0 1 1.165-.305c.885 0 1.576.271 2.072.813.497.542.746 1.337.746 2.384 0 .957-.283 1.745-.847 2.364-.565.618-1.253.927-2.066.927-1.011 0-1.83-.43-2.458-1.293-.628-.862-.942-2.106-.942-3.732 0-.966.101-1.812.305-2.54.203-.726.483-1.3.84-1.72.356-.42.754-.733 1.192-.941a3.302 3.302 0 0 1 1.429-.311c.759 0 1.422.225 1.99.677M26.738 76.968a.18.18 0 0 0 .217-.04c.64-.596.961-1.251.961-1.965 0-.515-.155-.945-.467-1.293-.312-.348-.734-.522-1.267-.522-.47 0-.856.152-1.158.454-.303.303-.453.702-.453 1.2 0 .279.054.531.161.757.11.226.277.424.502.596.226.172.45.317.67.434.222.117.5.243.834.379m-.542 4.808c.578 0 1.047-.16 1.409-.48.36-.321.541-.734.541-1.24 0-.261-.048-.498-.142-.711a2.013 2.013 0 0 0-.346-.542 2.486 2.486 0 0 0-.582-.447 7.561 7.561 0 0 0-.677-.359c-.199-.09-.47-.208-.813-.352a.456.456 0 0 0-.108-.014.261.261 0 0 0-.135.04 3.07 3.07 0 0 0-.935.983 2.405 2.405 0 0 0-.338 1.24c0 .542.2.99.602 1.347.401.357.91.535 1.524.535m-.027.935c-.94 0-1.716-.255-2.33-.765-.614-.51-.921-1.154-.921-1.93 0-.624.176-1.172.528-1.646.352-.474.79-.855 1.314-1.145.019-.009.027-.025.027-.048a.081.081 0 0 0-.027-.06c-.894-.623-1.341-1.395-1.341-2.316 0-.767.262-1.39.786-1.87.524-.478 1.192-.718 2.004-.718.849 0 1.526.25 2.032.746.505.496.758 1.142.758 1.937 0 .478-.133.932-.4 1.36a3.97 3.97 0 0 1-.941 1.064.086.086 0 0 0-.027.061c0 .023.009.038.027.048 1.13.659 1.693 1.543 1.693 2.654 0 .75-.295 1.375-.887 1.876-.591.502-1.356.752-2.295.752M60.573 77.74c.748 0 1.43-.42 2.045-1.26a.339.339 0 0 0 .067-.243c-.08-1.003-.31-1.764-.684-2.283-.375-.52-.882-.778-1.524-.778-.496 0-.907.212-1.232.636-.325.425-.488.98-.488 1.666 0 .705.156 1.257.468 1.66.31.4.76.602 1.348.602m-2.425 4.294a.447.447 0 0 1-.183-.36.572.572 0 0 1 .142-.399c.09-.1.207-.151.352-.156a.583.583 0 0 1 .38.115c.406.28.848.42 1.327.42.705 0 1.29-.325 1.754-.975.465-.65.73-1.693.792-3.129 0-.017-.011-.031-.034-.04-.022-.009-.038-.005-.047.013-.307.352-.659.632-1.056.84-.398.208-.8.312-1.206.312-.867 0-1.55-.276-2.052-.827-.501-.55-.751-1.34-.751-2.37 0-.966.281-1.758.845-2.377.565-.618 1.254-.928 2.066-.928 1.02 0 1.845.415 2.472 1.246.628.831.942 2.027.942 3.59 0 .993-.102 1.866-.305 2.62-.203.755-.479 1.35-.826 1.788-.348.439-.736.763-1.165.975-.43.212-.892.319-1.389.319-.785 0-1.471-.226-2.058-.677M89.047 82.535a.507.507 0 0 1-.373-.156.51.51 0 0 1-.156-.373c0-.144.052-.268.156-.372a.508.508 0 0 1 .373-.156h1.597c.091 0 .137-.045.137-.135v-7.314c0-.09-.046-.136-.137-.136h-1.259a.395.395 0 0 1-.406-.406.501.501 0 0 1 .392-.475 6.725 6.725 0 0 0 1.288-.42c.324-.152.627-.23.907-.23.136 0 .25.048.345.143.095.095.143.21.143.345v8.493c0 .09.044.135.135.135h1.381c.145 0 .27.052.373.156a.507.507 0 0 1 .155.372c0 .145-.051.27-.155.373a.508.508 0 0 1-.373.156h-4.523zM98.853 81.708c.596 0 1.065-.353 1.408-1.062.343-.71.515-1.787.515-3.231 0-1.427-.172-2.485-.515-3.176-.343-.691-.812-1.037-1.408-1.037-.614 0-1.093.346-1.436 1.037-.343.69-.515 1.75-.515 3.176 0 1.444.172 2.522.515 3.23.343.71.822 1.063 1.436 1.063m0 1.003c-.994 0-1.773-.449-2.337-1.348-.564-.898-.846-2.214-.846-3.948 0-1.725.28-3.03.84-3.915.56-.885 1.34-1.327 2.343-1.327.984 0 1.755.442 2.316 1.327.56.885.84 2.19.84 3.915 0 1.734-.28 3.05-.84 3.948-.56.899-1.332 1.348-2.316 1.348M123.3 82.535a.507.507 0 0 1-.372-.156.51.51 0 0 1-.156-.373c0-.144.052-.268.156-.372a.508.508 0 0 1 .373-.156h1.598c.09 0 .136-.045.136-.135v-7.314c0-.09-.046-.136-.136-.136h-1.26a.395.395 0 0 1-.406-.406.501.501 0 0 1 .392-.475 6.725 6.725 0 0 0 1.288-.42c.324-.152.627-.23.907-.23.136 0 .25.048.345.143.096.095.143.21.143.345v8.493c0 .09.045.135.135.135h1.382c.144 0 .268.052.372.156a.507.507 0 0 1 .156.372c0 .145-.052.27-.156.373a.508.508 0 0 1-.372.156H123.3zM130.994 82.535a.507.507 0 0 1-.373-.156.51.51 0 0 1-.156-.373c0-.144.053-.268.156-.372a.508.508 0 0 1 .373-.156h1.598c.09 0 .136-.045.136-.135v-7.314c0-.09-.045-.136-.136-.136h-1.26a.395.395 0 0 1-.406-.406.501.501 0 0 1 .392-.475 6.725 6.725 0 0 0 1.288-.42c.325-.152.628-.23.907-.23.136 0 .251.048.346.143.095.095.142.21.142.345v8.493c0 .09.045.135.136.135h1.38c.145 0 .27.052.373.156a.507.507 0 0 1 .156.372c0 .145-.052.27-.156.373a.508.508 0 0 1-.372.156h-4.524zM157.55 82.535a.507.507 0 0 1-.372-.156.51.51 0 0 1-.157-.373c0-.144.053-.268.157-.372a.508.508 0 0 1 .372-.156h1.598c.09 0 .136-.045.136-.135v-7.314c0-.09-.045-.136-.136-.136h-1.26a.395.395 0 0 1-.406-.406.501.501 0 0 1 .392-.475 6.725 6.725 0 0 0 1.288-.42c.325-.152.628-.23.907-.23.136 0 .251.048.346.143.095.095.142.21.142.345v8.493c0 .09.045.135.136.135h1.38c.145 0 .27.052.373.156a.507.507 0 0 1 .156.372c0 .145-.052.27-.156.373a.508.508 0 0 1-.372.156h-4.524zM164.485 82.535a.37.37 0 0 1-.379-.38.81.81 0 0 1 .284-.623c1.508-1.336 2.614-2.51 3.319-3.521.703-1.011 1.056-1.942 1.056-2.79 0-.605-.16-1.09-.481-1.457-.32-.365-.785-.548-1.395-.548s-1.195.266-1.754.8a.515.515 0 0 1-.36.155.465.465 0 0 1-.357-.142.508.508 0 0 1-.157-.36.448.448 0 0 1 .157-.359c.794-.758 1.67-1.137 2.627-1.137.903 0 1.62.273 2.153.82.533.546.8 1.275.8 2.187 0 .948-.333 1.928-.996 2.94-.664 1.01-1.623 2.117-2.878 3.318-.019.018-.023.038-.014.06.01.023.022.03.04.021a23.335 23.335 0 0 1 1.531-.081h2.276a.52.52 0 0 1 .379.162.526.526 0 0 1 .163.386.528.528 0 0 1-.163.386.52.52 0 0 1-.379.163h-5.472zM191.805 82.535a.507.507 0 0 1-.372-.156.51.51 0 0 1-.156-.373c0-.144.052-.268.156-.372a.508.508 0 0 1 .372-.156h1.598c.09 0 .136-.045.136-.135v-7.314c0-.09-.045-.136-.136-.136h-1.26a.395.395 0 0 1-.405-.406.501.501 0 0 1 .392-.475 6.725 6.725 0 0 0 1.287-.42c.325-.152.628-.23.908-.23.135 0 .25.048.345.143.095.095.142.21.142.345v8.493c0 .09.045.135.136.135h1.381c.145 0 .269.052.373.156a.507.507 0 0 1 .155.372c0 .145-.051.27-.155.373a.508.508 0 0 1-.373.156h-4.524zM201.408 82.71c-1.137 0-2.099-.337-2.885-1.015a.549.549 0 0 1-.176-.42c0-.135.041-.258.122-.365a.43.43 0 0 1 .332-.177.514.514 0 0 1 .373.122c.631.533 1.345.8 2.14.8.613 0 1.113-.17 1.497-.509.383-.338.575-.797.575-1.374 0-1.255-.894-1.928-2.682-2.018a.518.518 0 0 1-.345-.157.468.468 0 0 1-.142-.345.47.47 0 0 1 .142-.345.523.523 0 0 1 .345-.156c.813-.063 1.404-.264 1.774-.603.37-.338.556-.778.556-1.32 0-.497-.154-.892-.461-1.185-.307-.294-.727-.445-1.26-.454-.595.018-1.164.24-1.706.663a.567.567 0 0 1-.392.123.478.478 0 0 1-.353-.177.53.53 0 0 1-.122-.385.469.469 0 0 1 .19-.36c.75-.586 1.561-.88 2.438-.88.875 0 1.586.226 2.133.677.546.452.82 1.075.82 1.87 0 .596-.158 1.101-.474 1.517-.317.415-.755.726-1.314.934-.02.01-.027.023-.027.04 0 .019.008.028.027.028.631.153 1.146.456 1.544.908.397.451.596 1.007.596 1.665 0 .885-.312 1.59-.935 2.113-.623.524-1.4.786-2.33.786M226.066 82.535a.507.507 0 0 1-.373-.156.51.51 0 0 1-.156-.373c0-.144.052-.268.156-.372a.508.508 0 0 1 .373-.156h1.597c.091 0 .136-.045.136-.135v-7.314c0-.09-.045-.136-.136-.136h-1.26a.395.395 0 0 1-.405-.406.501.501 0 0 1 .392-.475 6.725 6.725 0 0 0 1.288-.42c.324-.152.627-.23.907-.23.136 0 .25.048.345.143.095.095.143.21.143.345v8.493c0 .09.044.135.135.135h1.381c.145 0 .27.052.373.156a.507.507 0 0 1 .155.372c0 .145-.051.27-.155.373a.508.508 0 0 1-.373.156h-4.523zM233.677 78.607a.085.085 0 0 0 .007.074.066.066 0 0 0 .061.034h2.831c.09 0 .136-.045.136-.135V75.6c0-.19.027-.794.08-1.815 0-.018-.009-.027-.026-.027-.018 0-.032.009-.041.027a26.03 26.03 0 0 1-.8 1.463l-2.248 3.359zm5.08.108c.144 0 .266.05.365.15.1.099.15.218.15.358 0 .14-.05.26-.15.359a.496.496 0 0 1-.365.15h-.704c-.09 0-.137.044-.137.134v2.06a.588.588 0 0 1-.175.433.581.581 0 0 1-.427.176.58.58 0 0 1-.426-.176.589.589 0 0 1-.176-.434v-2.059c0-.09-.046-.135-.136-.135h-3.874a.407.407 0 0 1-.298-.122.406.406 0 0 1-.122-.298c0-.27.077-.523.23-.758l3.63-5.594a1.21 1.21 0 0 1 1.084-.596c.19 0 .352.07.488.21.135.14.202.305.202.494v5.513c0 .09.046.135.137.135h.704zM20.196 104.979a.507.507 0 0 1-.373-.156.51.51 0 0 1-.156-.373c0-.144.052-.268.156-.372a.508.508 0 0 1 .373-.156h1.598c.09 0 .136-.045.136-.136v-7.313c0-.09-.046-.136-.136-.136h-1.26a.395.395 0 0 1-.406-.406.501.501 0 0 1 .392-.475 6.725 6.725 0 0 0 1.288-.42c.325-.152.627-.23.907-.23.136 0 .25.048.345.143.096.094.143.21.143.345v8.492c0 .091.045.136.135.136h1.382c.144 0 .268.052.372.156a.507.507 0 0 1 .156.372c0 .145-.052.27-.156.373a.508.508 0 0 1-.372.156h-4.524zM29.758 105.155c-1.093 0-2.04-.33-2.844-.99a.527.527 0 0 1-.19-.419.58.58 0 0 1 .122-.353.424.424 0 0 1 .325-.175.5.5 0 0 1 .366.122 3.265 3.265 0 0 0 2.113.758c.613 0 1.128-.219 1.544-.657.415-.438.623-1.018.623-1.74 0-.723-.192-1.29-.575-1.7-.385-.41-.897-.617-1.538-.617-.46 0-.913.132-1.355.394a.733.733 0 0 1-.352.094.635.635 0 0 1-.324-.094.611.611 0 0 1-.312-.61l.216-3.183a1.2 1.2 0 0 1 .393-.833 1.22 1.22 0 0 1 .867-.345h3.224c.153 0 .282.054.385.162a.539.539 0 0 1 .157.386.517.517 0 0 1-.157.38.524.524 0 0 1-.385.155h-3.156c-.09 0-.14.045-.15.135l-.23 2.669c0 .036.012.06.034.074a.083.083 0 0 0 .074.007c.435-.226.9-.338 1.397-.338.893 0 1.627.27 2.2.812.573.542.86 1.346.86 2.411 0 .723-.16 1.355-.48 1.896-.322.542-.73.944-1.226 1.206a3.433 3.433 0 0 1-1.626.393M54.857 104.979a.507.507 0 0 1-.373-.156.51.51 0 0 1-.156-.373c0-.144.052-.268.156-.372a.508.508 0 0 1 .373-.156h1.598c.09 0 .136-.045.136-.136v-7.313c0-.09-.046-.136-.136-.136h-1.26a.395.395 0 0 1-.406-.406.501.501 0 0 1 .392-.475 6.725 6.725 0 0 0 1.288-.42c.325-.152.627-.23.907-.23.136 0 .25.048.345.143.096.094.143.21.143.345v8.492c0 .091.045.136.135.136h1.382c.144 0 .268.052.372.156a.507.507 0 0 1 .156.372c0 .145-.052.27-.156.373a.508.508 0 0 1-.372.156h-4.524zM64.975 104.18c.496 0 .907-.217 1.232-.65.326-.434.488-.99.488-1.667 0-.704-.154-1.255-.461-1.652-.307-.398-.763-.596-1.368-.596-.732 0-1.4.397-2.004 1.192a.34.34 0 0 0-.068.243c.09 1.012.32 1.787.69 2.324.37.537.867.805 1.49.805m2.357-8.885c.109.1.165.224.17.372a.532.532 0 0 1-.143.387.466.466 0 0 1-.345.155.568.568 0 0 1-.372-.115c-.38-.28-.8-.42-1.26-.42-.75 0-1.363.323-1.842.969-.479.645-.736 1.686-.772 3.122 0 .027.009.043.027.048a.08.08 0 0 0 .054-.007c.307-.353.66-.63 1.056-.834a2.548 2.548 0 0 1 1.165-.304c.885 0 1.576.27 2.072.812.497.542.746 1.337.746 2.384 0 .957-.282 1.745-.847 2.364-.564.618-1.253.927-2.065.927-1.012 0-1.831-.43-2.459-1.293-.627-.862-.941-2.106-.941-3.732 0-.966.101-1.812.304-2.539.204-.727.484-1.3.84-1.72.357-.42.754-.734 1.192-.942a3.302 3.302 0 0 1 1.43-.31c.758 0 1.422.224 1.99.676M89.047 104.979a.507.507 0 0 1-.373-.156.51.51 0 0 1-.156-.373c0-.144.052-.268.156-.372a.508.508 0 0 1 .373-.156h1.597c.091 0 .137-.045.137-.136v-7.313c0-.09-.046-.136-.137-.136h-1.259a.395.395 0 0 1-.406-.406.501.501 0 0 1 .392-.475 6.725 6.725 0 0 0 1.288-.42c.324-.152.627-.23.907-.23.136 0 .25.048.345.143.095.094.143.21.143.345v8.492c0 .091.044.136.135.136h1.381c.145 0 .27.052.373.156a.507.507 0 0 1 .155.372c0 .145-.051.27-.155.373a.508.508 0 0 1-.373.156h-4.523zM99.083 104.315a.681.681 0 0 1-.69.663.583.583 0 0 1-.448-.189.602.602 0 0 1-.176-.42c0-1.436.262-2.957.785-4.564.416-1.265 1.07-2.534 1.965-3.807.018-.018.02-.04.006-.067-.013-.027-.033-.04-.06-.04h-4.253a.528.528 0 0 1-.38-.157.505.505 0 0 1-.162-.38c0-.148.054-.277.162-.385a.518.518 0 0 1 .38-.163h5.444c.109 0 .199.039.271.115.072.077.109.17.109.278 0 .244-.077.47-.23.678-.975 1.31-1.65 2.58-2.025 3.813-.375 1.232-.607 2.774-.698 4.625M123.3 104.979a.507.507 0 0 1-.372-.156.51.51 0 0 1-.156-.373c0-.144.052-.268.156-.372a.508.508 0 0 1 .373-.156h1.598c.09 0 .136-.045.136-.136v-7.313c0-.09-.046-.136-.136-.136h-1.26a.395.395 0 0 1-.406-.406.501.501 0 0 1 .392-.475 6.725 6.725 0 0 0 1.288-.42c.324-.152.627-.23.907-.23.136 0 .25.048.345.143.096.094.143.21.143.345v8.492c0 .091.045.136.135.136h1.382c.144 0 .268.052.372.156a.507.507 0 0 1 .156.372c0 .145-.052.27-.156.373a.508.508 0 0 1-.372.156H123.3zM133.69 99.412a.18.18 0 0 0 .216-.04c.641-.597.962-1.251.962-1.965 0-.515-.156-.946-.467-1.293-.312-.348-.734-.522-1.267-.522-.47 0-.856.152-1.158.454-.303.303-.453.702-.453 1.199 0 .28.054.532.161.758.11.226.276.424.502.596.225.171.45.316.67.433.222.118.5.244.833.38m-.541 4.808c.577 0 1.046-.16 1.408-.481.362-.32.542-.733.542-1.239 0-.262-.048-.499-.142-.711a2.013 2.013 0 0 0-.346-.542 2.486 2.486 0 0 0-.582-.447 7.561 7.561 0 0 0-.678-.36c-.198-.09-.47-.207-.812-.351a.456.456 0 0 0-.108-.014.261.261 0 0 0-.136.04 3.07 3.07 0 0 0-.934.983 2.405 2.405 0 0 0-.339 1.24c0 .541.2.99.603 1.347.401.357.91.535 1.524.535m-.028.934c-.939 0-1.716-.255-2.33-.765-.613-.51-.92-1.153-.92-1.93 0-.623.176-1.171.528-1.646.352-.473.79-.855 1.314-1.144.018-.01.026-.025.026-.048a.081.081 0 0 0-.026-.06c-.894-.623-1.341-1.395-1.341-2.316 0-.768.262-1.39.786-1.87.524-.478 1.192-.718 2.004-.718.849 0 1.526.249 2.032.746.505.496.758 1.142.758 1.936 0 .479-.133.933-.4 1.361a3.97 3.97 0 0 1-.941 1.064.086.086 0 0 0-.027.061c0 .023.009.038.027.047 1.13.66 1.693 1.544 1.693 2.655 0 .75-.295 1.375-.887 1.876-.592.501-1.357.751-2.296.751M157.55 104.979a.507.507 0 0 1-.372-.156.51.51 0 0 1-.157-.373c0-.144.053-.268.157-.372a.508.508 0 0 1 .372-.156h1.598c.09 0 .136-.045.136-.136v-7.313c0-.09-.045-.136-.136-.136h-1.26a.395.395 0 0 1-.406-.406.501.501 0 0 1 .392-.475 6.725 6.725 0 0 0 1.288-.42c.325-.152.628-.23.907-.23.136 0 .251.048.346.143.095.094.142.21.142.345v8.492c0 .091.045.136.136.136h1.38c.145 0 .27.052.373.156a.507.507 0 0 1 .156.372c0 .145-.052.27-.156.373a.508.508 0 0 1-.372.156h-4.524zM167.113 100.184c.748 0 1.43-.42 2.045-1.26a.339.339 0 0 0 .067-.244c-.08-1.002-.31-1.763-.684-2.282-.375-.52-.882-.779-1.524-.779-.496 0-.907.212-1.232.637-.325.424-.488.98-.488 1.666 0 .704.156 1.257.468 1.659.31.402.76.603 1.348.603m-2.425 4.293a.447.447 0 0 1-.183-.359.572.572 0 0 1 .142-.399c.09-.1.207-.152.352-.156a.583.583 0 0 1 .38.115c.406.28.848.42 1.327.42.705 0 1.29-.325 1.754-.975.465-.65.73-1.693.792-3.13 0-.017-.011-.03-.034-.04-.022-.008-.038-.004-.047.014-.307.352-.659.632-1.056.84-.398.207-.8.311-1.206.311-.867 0-1.55-.275-2.052-.826-.501-.55-.751-1.34-.751-2.37 0-.966.281-1.759.845-2.377.565-.619 1.254-.928 2.066-.928 1.02 0 1.845.415 2.472 1.246.628.831.942 2.027.942 3.59 0 .992-.102 1.866-.305 2.62s-.479 1.35-.826 1.788c-.348.438-.736.763-1.165.975-.429.212-.892.319-1.389.319-.785 0-1.471-.226-2.058-.678M191.047 104.979a.37.37 0 0 1-.379-.38.81.81 0 0 1 .284-.623c1.508-1.336 2.614-2.51 3.319-3.521.703-1.012 1.056-1.942 1.056-2.79 0-.605-.16-1.091-.48-1.457-.321-.365-.786-.548-1.396-.548-.61 0-1.195.266-1.754.799a.515.515 0 0 1-.36.156.465.465 0 0 1-.357-.142.508.508 0 0 1-.156-.36.448.448 0 0 1 .156-.359c.794-.758 1.67-1.137 2.627-1.137.903 0 1.621.273 2.153.82.533.546.8 1.275.8 2.187 0 .948-.333 1.928-.996 2.939-.664 1.011-1.623 2.118-2.878 3.318-.018.018-.023.039-.014.061.01.023.022.03.04.02a23.335 23.335 0 0 1 1.531-.08h2.276a.52.52 0 0 1 .379.162.526.526 0 0 1 .163.386.528.528 0 0 1-.163.386.52.52 0 0 1-.379.163h-5.472zM201.612 104.152c.595 0 1.065-.354 1.408-1.063.343-.709.515-1.786.515-3.23 0-1.427-.172-2.486-.515-3.177-.343-.69-.813-1.036-1.408-1.036-.614 0-1.093.345-1.436 1.036-.343.691-.515 1.75-.515 3.176 0 1.445.172 2.522.515 3.231.343.71.822 1.063 1.436 1.063m0 1.003c-.994 0-1.773-.45-2.337-1.348-.564-.899-.846-2.215-.846-3.949 0-1.724.28-3.029.84-3.914.559-.885 1.34-1.327 2.343-1.327.983 0 1.755.442 2.316 1.327.56.885.84 2.19.84 3.914 0 1.734-.28 3.05-.84 3.95-.56.898-1.333 1.347-2.316 1.347M225.307 104.979a.37.37 0 0 1-.379-.38.81.81 0 0 1 .285-.623c1.507-1.336 2.613-2.51 3.318-3.521.703-1.012 1.056-1.942 1.056-2.79 0-.605-.16-1.091-.48-1.457-.321-.365-.786-.548-1.396-.548-.61 0-1.194.266-1.754.799a.515.515 0 0 1-.359.156.465.465 0 0 1-.358-.142.508.508 0 0 1-.156-.36.448.448 0 0 1 .156-.359c.794-.758 1.67-1.137 2.627-1.137.903 0 1.621.273 2.154.82.533.546.799 1.275.799 2.187 0 .948-.332 1.928-.995 2.939-.665 1.011-1.624 2.118-2.879 3.318-.018.018-.023.039-.014.061.01.023.022.03.041.02a23.335 23.335 0 0 1 1.53-.08h2.276a.52.52 0 0 1 .379.162.526.526 0 0 1 .163.386.528.528 0 0 1-.163.386.52.52 0 0 1-.379.163h-5.472zM233.759 104.979a.507.507 0 0 1-.373-.156.51.51 0 0 1-.156-.373c0-.144.052-.268.156-.372a.508.508 0 0 1 .373-.156h1.598c.09 0 .136-.045.136-.136v-7.313c0-.09-.046-.136-.136-.136h-1.26a.395.395 0 0 1-.406-.406.501.501 0 0 1 .392-.475 6.724 6.724 0 0 0 1.288-.42c.325-.152.627-.23.907-.23.136 0 .25.048.345.143.096.094.143.21.143.345v8.492c0 .091.045.136.135.136h1.382c.144 0 .268.052.372.156a.507.507 0 0 1 .156.372c0 .145-.052.27-.156.373a.508.508 0 0 1-.372.156h-4.524zM19.437 127.83a.37.37 0 0 1-.378-.379.81.81 0 0 1 .284-.623c1.507-1.336 2.614-2.51 3.318-3.521.704-1.012 1.056-1.942 1.056-2.791 0-.604-.16-1.09-.48-1.456-.32-.366-.786-.548-1.395-.548-.61 0-1.195.266-1.755.799a.515.515 0 0 1-.359.156.465.465 0 0 1-.358-.143.508.508 0 0 1-.156-.358.448.448 0 0 1 .156-.36c.794-.758 1.67-1.137 2.627-1.137.903 0 1.621.273 2.154.82.533.546.799 1.275.799 2.187 0 .948-.332 1.928-.995 2.939-.664 1.011-1.624 2.117-2.878 3.318-.019.018-.023.039-.015.061.01.023.023.03.041.02a23.335 23.335 0 0 1 1.531-.08h2.276a.52.52 0 0 1 .378.162.526.526 0 0 1 .163.386.528.528 0 0 1-.163.386.52.52 0 0 1-.378.162h-5.473zM27.13 127.83a.37.37 0 0 1-.378-.379.81.81 0 0 1 .284-.623c1.507-1.336 2.614-2.51 3.319-3.521.703-1.012 1.056-1.942 1.056-2.791 0-.604-.16-1.09-.481-1.456-.32-.366-.786-.548-1.395-.548-.61 0-1.195.266-1.755.799a.515.515 0 0 1-.358.156.465.465 0 0 1-.359-.143.508.508 0 0 1-.156-.358.448.448 0 0 1 .156-.36c.795-.758 1.67-1.137 2.627-1.137.903 0 1.622.273 2.154.82.533.546.8 1.275.8 2.187 0 .948-.333 1.928-.996 2.939-.664 1.011-1.624 2.117-2.878 3.318-.019.018-.023.039-.014.061.009.023.022.03.04.02a23.335 23.335 0 0 1 1.531-.08h2.276a.52.52 0 0 1 .379.162.526.526 0 0 1 .162.386.528.528 0 0 1-.162.386.52.52 0 0 1-.38.162H27.13zM54.098 127.83a.37.37 0 0 1-.378-.379.81.81 0 0 1 .284-.623c1.507-1.336 2.614-2.51 3.318-3.521.704-1.012 1.056-1.942 1.056-2.791 0-.604-.16-1.09-.48-1.456-.32-.366-.786-.548-1.395-.548-.61 0-1.195.266-1.755.799a.515.515 0 0 1-.359.156.465.465 0 0 1-.358-.143.508.508 0 0 1-.156-.358.448.448 0 0 1 .156-.36c.794-.758 1.67-1.137 2.627-1.137.903 0 1.621.273 2.154.82.533.546.799 1.275.799 2.187 0 .948-.332 1.928-.995 2.939-.664 1.011-1.624 2.117-2.878 3.318-.019.018-.023.039-.015.061.01.023.023.03.041.02a23.335 23.335 0 0 1 1.531-.08h2.276a.52.52 0 0 1 .378.162.526.526 0 0 1 .163.386.528.528 0 0 1-.163.386.52.52 0 0 1-.378.162h-5.473zM64.46 128.007c-1.138 0-2.1-.339-2.885-1.016a.549.549 0 0 1-.176-.42c0-.135.04-.258.121-.366a.43.43 0 0 1 .333-.176.514.514 0 0 1 .372.122c.632.533 1.345.799 2.14.799.614 0 1.113-.17 1.497-.508.383-.339.575-.797.575-1.375 0-1.255-.893-1.928-2.681-2.018a.518.518 0 0 1-.346-.156.468.468 0 0 1-.142-.345.47.47 0 0 1 .142-.346.523.523 0 0 1 .346-.155c.812-.063 1.403-.264 1.774-.603.37-.338.555-.779.555-1.32 0-.497-.153-.892-.46-1.186-.307-.293-.728-.444-1.26-.454-.596.019-1.165.24-1.706.664a.567.567 0 0 1-.393.122.478.478 0 0 1-.353-.176.53.53 0 0 1-.121-.386.469.469 0 0 1 .19-.359c.749-.587 1.56-.88 2.438-.88.875 0 1.586.226 2.132.677.546.452.82 1.075.82 1.869 0 .596-.158 1.102-.474 1.517-.316.416-.754.727-1.314.934-.019.01-.027.024-.027.042 0 .018.008.026.027.026.632.154 1.146.457 1.544.908.398.452.596 1.007.596 1.666 0 .885-.312 1.59-.935 2.113-.623.524-1.399.786-2.33.786M88.288 127.83a.37.37 0 0 1-.379-.379.81.81 0 0 1 .285-.623c1.507-1.336 2.613-2.51 3.318-3.521.703-1.012 1.056-1.942 1.056-2.791 0-.604-.16-1.09-.48-1.456-.32-.366-.786-.548-1.396-.548-.61 0-1.194.266-1.754.799a.515.515 0 0 1-.359.156.465.465 0 0 1-.358-.143.508.508 0 0 1-.156-.358.448.448 0 0 1 .156-.36c.794-.758 1.67-1.137 2.627-1.137.903 0 1.621.273 2.154.82.533.546.799 1.275.799 2.187 0 .948-.332 1.928-.995 2.939-.665 1.011-1.624 2.117-2.879 3.318-.018.018-.023.039-.014.061.01.023.023.03.041.02a23.335 23.335 0 0 1 1.53-.08h2.276a.52.52 0 0 1 .38.162.526.526 0 0 1 .162.386.528.528 0 0 1-.163.386.52.52 0 0 1-.379.162h-5.472zM96.658 123.902a.085.085 0 0 0 .007.075.066.066 0 0 0 .061.034h2.831c.09 0 .136-.045.136-.135v-2.98c0-.19.027-.795.08-1.815 0-.018-.009-.028-.026-.028-.018 0-.032.01-.041.028a26.03 26.03 0 0 1-.8 1.462l-2.248 3.36zm5.08.109c.144 0 .267.05.365.149.1.1.15.219.15.359 0 .14-.05.26-.15.359a.496.496 0 0 1-.365.149h-.704c-.09 0-.137.045-.137.135v2.059a.588.588 0 0 1-.175.433.581.581 0 0 1-.427.176.58.58 0 0 1-.426-.176.589.589 0 0 1-.176-.433v-2.06c0-.09-.046-.134-.136-.134h-3.874a.407.407 0 0 1-.298-.122.406.406 0 0 1-.121-.299c0-.27.076-.523.23-.758l3.63-5.594a1.21 1.21 0 0 1 1.083-.596c.19 0 .352.07.488.21.135.14.202.305.202.494v5.514c0 .09.047.135.137.135h.704zM122.542 127.83a.37.37 0 0 1-.379-.379.81.81 0 0 1 .285-.623c1.507-1.336 2.614-2.51 3.318-3.521.704-1.012 1.056-1.942 1.056-2.791 0-.604-.16-1.09-.48-1.456-.32-.366-.786-.548-1.395-.548-.61 0-1.195.266-1.755.799a.515.515 0 0 1-.359.156.465.465 0 0 1-.358-.143.508.508 0 0 1-.156-.358.448.448 0 0 1 .156-.36c.794-.758 1.67-1.137 2.627-1.137.903 0 1.621.273 2.154.82.533.546.799 1.275.799 2.187 0 .948-.332 1.928-.995 2.939-.664 1.011-1.624 2.117-2.878 3.318-.02.018-.023.039-.015.061.01.023.023.03.041.02a23.335 23.335 0 0 1 1.53-.08h2.276a.52.52 0 0 1 .38.162.526.526 0 0 1 .162.386.528.528 0 0 1-.163.386.52.52 0 0 1-.379.162h-5.472zM132.863 128.007c-1.093 0-2.04-.33-2.844-.99a.527.527 0 0 1-.19-.42.58.58 0 0 1 .122-.352.424.424 0 0 1 .325-.175.5.5 0 0 1 .366.122 3.265 3.265 0 0 0 2.113.758c.613 0 1.128-.219 1.544-.657.415-.438.623-1.018.623-1.74 0-.723-.192-1.29-.575-1.7-.385-.41-.897-.617-1.538-.617-.46 0-.913.132-1.355.393a.733.733 0 0 1-.352.095.635.635 0 0 1-.325-.095.611.611 0 0 1-.311-.609l.216-3.183a1.2 1.2 0 0 1 .393-.833 1.22 1.22 0 0 1 .867-.346h3.224c.153 0 .281.055.385.163a.539.539 0 0 1 .156.386.517.517 0 0 1-.156.38.524.524 0 0 1-.385.155h-3.156c-.09 0-.14.045-.15.135l-.23 2.668c0 .036.012.061.034.075a.083.083 0 0 0 .074.007c.434-.226.9-.338 1.397-.338.893 0 1.626.27 2.2.812.573.541.86 1.346.86 2.411 0 .723-.16 1.355-.48 1.896-.322.542-.73.944-1.227 1.205a3.433 3.433 0 0 1-1.625.394M156.791 127.83a.37.37 0 0 1-.378-.379.81.81 0 0 1 .284-.623c1.507-1.336 2.614-2.51 3.318-3.521.704-1.012 1.057-1.942 1.057-2.791 0-.604-.16-1.09-.481-1.456-.32-.366-.786-.548-1.395-.548-.61 0-1.195.266-1.755.799a.515.515 0 0 1-.358.156.465.465 0 0 1-.359-.143.508.508 0 0 1-.156-.358.448.448 0 0 1 .156-.36c.794-.758 1.67-1.137 2.627-1.137.903 0 1.622.273 2.154.82.533.546.8 1.275.8 2.187 0 .948-.333 1.928-.996 2.939-.664 1.011-1.624 2.117-2.878 3.318-.019.018-.023.039-.014.061.009.023.022.03.04.02a23.335 23.335 0 0 1 1.531-.08h2.276a.52.52 0 0 1 .378.162.526.526 0 0 1 .163.386.528.528 0 0 1-.163.386.52.52 0 0 1-.378.162h-5.473zM167.668 127.031c.496 0 .907-.216 1.232-.65.326-.433.488-.989.488-1.666 0-.704-.154-1.255-.46-1.652-.308-.398-.764-.596-1.37-.596-.73 0-1.398.397-2.003 1.191a.34.34 0 0 0-.068.244c.09 1.012.32 1.786.69 2.324.37.536.868.805 1.49.805m2.357-8.885c.11.1.165.224.17.372a.532.532 0 0 1-.142.387.466.466 0 0 1-.346.155.568.568 0 0 1-.372-.115c-.38-.28-.8-.42-1.26-.42-.75 0-1.363.323-1.842.968-.478.646-.736 1.687-.772 3.123 0 .027.009.042.027.047a.08.08 0 0 0 .054-.006c.307-.353.66-.63 1.056-.834a2.548 2.548 0 0 1 1.165-.305c.885 0 1.576.272 2.073.813.496.542.745 1.337.745 2.384 0 .957-.282 1.745-.847 2.364-.564.618-1.252.927-2.065.927-1.011 0-1.831-.43-2.459-1.293-.627-.862-.941-2.106-.941-3.732 0-.966.101-1.812.304-2.54.204-.726.484-1.3.84-1.72.357-.42.754-.733 1.192-.94a3.302 3.302 0 0 1 1.43-.312c.758 0 1.422.225 1.99.677M191.047 127.83a.37.37 0 0 1-.379-.379.81.81 0 0 1 .284-.623c1.508-1.336 2.614-2.51 3.319-3.521.703-1.012 1.056-1.942 1.056-2.791 0-.604-.16-1.09-.48-1.456-.321-.366-.786-.548-1.396-.548-.61 0-1.195.266-1.754.799a.515.515 0 0 1-.36.156.465.465 0 0 1-.357-.143.508.508 0 0 1-.156-.358.448.448 0 0 1 .156-.36c.794-.758 1.67-1.137 2.627-1.137.903 0 1.621.273 2.153.82.533.546.8 1.275.8 2.187 0 .948-.333 1.928-.996 2.939-.664 1.011-1.623 2.117-2.878 3.318-.018.018-.023.039-.014.061.01.023.022.03.04.02a23.335 23.335 0 0 1 1.531-.08h2.276a.52.52 0 0 1 .379.162.526.526 0 0 1 .163.386.528.528 0 0 1-.163.386.52.52 0 0 1-.379.162h-5.472zM201.842 127.167a.681.681 0 0 1-.69.663.583.583 0 0 1-.448-.189.602.602 0 0 1-.176-.42c0-1.436.262-2.957.785-4.565.416-1.264 1.07-2.533 1.965-3.806.018-.018.02-.04.006-.068-.013-.026-.034-.04-.06-.04h-4.254a.528.528 0 0 1-.379-.156.505.505 0 0 1-.162-.38c0-.148.054-.277.162-.385a.518.518 0 0 1 .38-.163h5.444c.108 0 .199.039.27.115.073.077.11.17.11.278 0 .244-.078.47-.23.677-.976 1.31-1.651 2.58-2.025 3.813-.376 1.232-.607 2.775-.698 4.626M225.307 127.83a.37.37 0 0 1-.379-.379.81.81 0 0 1 .285-.623c1.507-1.336 2.613-2.51 3.318-3.521.703-1.012 1.056-1.942 1.056-2.791 0-.604-.16-1.09-.48-1.456-.321-.366-.786-.548-1.396-.548-.61 0-1.194.266-1.754.799a.515.515 0 0 1-.359.156.465.465 0 0 1-.358-.143.508.508 0 0 1-.156-.358.448.448 0 0 1 .156-.36c.794-.758 1.67-1.137 2.627-1.137.903 0 1.621.273 2.154.82.533.546.799 1.275.799 2.187 0 .948-.332 1.928-.995 2.939-.665 1.011-1.624 2.117-2.879 3.318-.018.018-.023.039-.014.061.01.023.022.03.041.02a23.335 23.335 0 0 1 1.53-.08h2.276a.52.52 0 0 1 .379.162.526.526 0 0 1 .163.386.528.528 0 0 1-.163.386.52.52 0 0 1-.379.162h-5.472zM236.454 122.263a.18.18 0 0 0 .217-.04c.64-.596.962-1.25.962-1.964 0-.515-.156-.946-.467-1.294-.312-.347-.734-.521-1.267-.521-.47 0-.856.151-1.158.454-.303.303-.454.702-.454 1.199 0 .28.055.532.162.758.109.226.276.424.501.596.226.171.45.316.67.433.223.118.5.244.834.38m-.542 4.808c.578 0 1.047-.16 1.41-.481.36-.32.54-.733.54-1.24 0-.26-.047-.498-.142-.71a2.013 2.013 0 0 0-.345-.542 2.486 2.486 0 0 0-.582-.447 7.561 7.561 0 0 0-.678-.36c-.198-.09-.47-.207-.813-.351a.456.456 0 0 0-.107-.014.261.261 0 0 0-.136.04 3.07 3.07 0 0 0-.935.983 2.405 2.405 0 0 0-.338 1.239c0 .542.2.991.603 1.348.4.357.91.535 1.523.535m-.027.934c-.939 0-1.716-.255-2.33-.765-.613-.51-.92-1.153-.92-1.93 0-.623.176-1.171.528-1.646.351-.474.79-.855 1.313-1.144.02-.01.027-.025.027-.048a.081.081 0 0 0-.027-.06c-.893-.623-1.34-1.395-1.34-2.316 0-.768.261-1.39.786-1.87.523-.478 1.191-.718 2.004-.718.848 0 1.526.249 2.031.746.506.496.76 1.142.76 1.936 0 .479-.134.933-.4 1.361a3.97 3.97 0 0 1-.942 1.064.086.086 0 0 0-.027.061c0 .022.009.038.027.047 1.129.66 1.693 1.544 1.693 2.655 0 .75-.295 1.375-.887 1.875-.592.502-1.357.752-2.296.752M19.437 150.753a.37.37 0 0 1-.378-.38.81.81 0 0 1 .284-.623c1.507-1.336 2.614-2.51 3.318-3.521.704-1.011 1.056-1.942 1.056-2.79 0-.605-.16-1.09-.48-1.457-.32-.365-.786-.548-1.395-.548-.61 0-1.195.266-1.755.8a.515.515 0 0 1-.359.155.465.465 0 0 1-.358-.142.508.508 0 0 1-.156-.36.448.448 0 0 1 .156-.359c.794-.758 1.67-1.137 2.627-1.137.903 0 1.621.273 2.154.82.533.546.799 1.275.799 2.187 0 .948-.332 1.928-.995 2.94-.664 1.01-1.624 2.117-2.878 3.318-.019.018-.023.038-.015.06.01.023.023.03.041.021a23.335 23.335 0 0 1 1.531-.081h2.276a.52.52 0 0 1 .378.162.526.526 0 0 1 .163.386.528.528 0 0 1-.163.386.52.52 0 0 1-.378.163h-5.473zM29.758 145.958c.75 0 1.432-.42 2.045-1.26a.339.339 0 0 0 .068-.243c-.08-1.003-.31-1.764-.684-2.283-.375-.52-.882-.779-1.524-.779-.496 0-.907.213-1.232.637-.325.424-.488.98-.488 1.666 0 .704.156 1.257.468 1.66.31.4.76.602 1.347.602m-2.424 4.293a.447.447 0 0 1-.183-.358.572.572 0 0 1 .142-.4c.09-.1.207-.151.352-.156a.583.583 0 0 1 .38.115c.406.28.848.42 1.327.42.704 0 1.289-.325 1.754-.975.465-.65.73-1.693.792-3.129 0-.017-.011-.031-.034-.04-.022-.01-.038-.005-.047.013-.307.352-.66.632-1.057.84-.397.208-.799.311-1.205.311-.867 0-1.551-.275-2.052-.826-.501-.55-.752-1.34-.752-2.37 0-.966.282-1.758.846-2.377.565-.618 1.253-.928 2.066-.928 1.02 0 1.845.415 2.472 1.246.628.831.941 2.027.941 3.59 0 .993-.101 1.866-.304 2.62-.203.755-.48 1.35-.826 1.788-.348.439-.737.763-1.165.975-.43.212-.892.319-1.389.319-.785 0-1.471-.226-2.058-.678M56.766 150.929c-1.137 0-2.099-.338-2.885-1.016a.549.549 0 0 1-.176-.42c0-.135.041-.258.122-.365a.43.43 0 0 1 .332-.177.514.514 0 0 1 .373.122c.632.533 1.345.8 2.14.8.614 0 1.113-.17 1.497-.509.383-.338.575-.797.575-1.374 0-1.255-.894-1.928-2.682-2.018a.518.518 0 0 1-.345-.157.468.468 0 0 1-.142-.345.47.47 0 0 1 .142-.346.523.523 0 0 1 .345-.155c.813-.063 1.404-.264 1.775-.603.37-.338.555-.778.555-1.32 0-.497-.154-.892-.46-1.185-.307-.294-.728-.445-1.26-.454-.596.018-1.165.24-1.707.663a.567.567 0 0 1-.392.123.478.478 0 0 1-.353-.177.53.53 0 0 1-.122-.385.469.469 0 0 1 .19-.36c.75-.586 1.562-.88 2.439-.88.875 0 1.585.226 2.132.677.546.452.82 1.075.82 1.87 0 .596-.158 1.101-.474 1.517-.317.415-.754.726-1.314.934-.019.01-.027.023-.027.04 0 .019.008.028.027.028.632.153 1.146.456 1.544.908.397.451.596 1.006.596 1.665 0 .885-.312 1.59-.935 2.113-.623.524-1.4.786-2.33.786"/>
        <g transform="translate(61.349 140.356)">
            <mask id="d" fill="#fff">
                <use xlink:href="#c"/>
            </mask>
            <path fill="#251910" d="M3.314 9.57c.596 0 1.066-.354 1.409-1.063.343-.709.515-1.786.515-3.23 0-1.427-.172-2.486-.515-3.177-.343-.69-.813-1.036-1.409-1.036-.614 0-1.092.345-1.436 1.036-.342.691-.514 1.75-.514 3.176 0 1.445.172 2.522.514 3.231.344.71.822 1.063 1.436 1.063m0 1.003c-.994 0-1.772-.45-2.336-1.348C.414 8.326.13 7.01.13 5.276c0-1.724.28-3.029.84-3.914C1.53.477 2.312.035 3.314.035c.984 0 1.756.442 2.317 1.327.559.885.839 2.19.839 3.914 0 1.734-.28 3.05-.84 3.949-.56.899-1.332 1.348-2.316 1.348" mask="url(#d)"/>
        </g>
        <path fill="#251910" d="M90.956 150.929c-1.137 0-2.099-.338-2.885-1.016a.549.549 0 0 1-.176-.42c0-.135.041-.258.122-.365a.43.43 0 0 1 .332-.177.514.514 0 0 1 .373.122c.631.533 1.345.8 2.14.8.613 0 1.113-.17 1.497-.509.383-.338.575-.797.575-1.374 0-1.255-.894-1.928-2.682-2.018a.518.518 0 0 1-.345-.157.468.468 0 0 1-.142-.345.47.47 0 0 1 .142-.346.523.523 0 0 1 .345-.155c.813-.063 1.404-.264 1.774-.603.37-.338.556-.778.556-1.32 0-.497-.154-.892-.461-1.185-.307-.294-.727-.445-1.26-.454-.595.018-1.164.24-1.706.663a.567.567 0 0 1-.392.123.478.478 0 0 1-.353-.177.53.53 0 0 1-.122-.385.469.469 0 0 1 .19-.36c.75-.586 1.561-.88 2.438-.88.875 0 1.586.226 2.133.677.546.452.82 1.075.82 1.87 0 .596-.158 1.101-.474 1.517-.317.415-.755.726-1.314.934-.02.01-.027.023-.027.04 0 .019.008.028.027.028.631.153 1.146.456 1.544.908.397.451.596 1.006.596 1.665 0 .885-.312 1.59-.935 2.113-.623.524-1.4.786-2.33.786M96.74 150.753a.507.507 0 0 1-.373-.156.51.51 0 0 1-.156-.373c0-.144.053-.268.156-.372a.508.508 0 0 1 .373-.156h1.598c.09 0 .136-.045.136-.135v-7.314c0-.09-.046-.136-.136-.136h-1.26a.395.395 0 0 1-.406-.406.501.501 0 0 1 .392-.475 6.725 6.725 0 0 0 1.288-.42c.325-.152.627-.23.907-.23.136 0 .25.048.345.143.096.095.143.21.143.345v8.493c0 .09.045.135.135.135h1.382c.144 0 .268.052.372.156a.507.507 0 0 1 .156.372c0 .145-.052.27-.156.373a.508.508 0 0 1-.372.156H96.74z"/>
        <text fill="#FFF" font-family="GenJyuuGothicX-Regular, Gen Jyuu GothicX" font-size="16.771">
            <tspan x="116.559" y="22.215">7月</tspan>
        </text>
        <circle cx="198.206" cy="54.888" r="12.197" stroke="#8EB912" stroke-width="2.287"/>
        <path stroke="#8EB912" stroke-linecap="round" stroke-linejoin="round" stroke-width="2.287" d="M198.206 67.199h46.428M14.01 87.782h230.624M14.01 110.652h230.624M14.01 133.522h230.624M14.01 156.392h96.047M108 151.704l4.574 4.574-4.574 4.574"/>
        <text fill="#251910" font-family="GenJyuuGothicX-Medium, Gen Jyuu GothicX" font-size="12.96" font-weight="400">
            <tspan x="130.338" y="182">[7月6日に新規登録]</tspan>
        </text>
        <text fill="#8EB912" font-family="GenJyuuGothicX-Medium, Gen Jyuu GothicX" font-size="12.96" font-weight="400">
            <tspan x="17.081" y="174">無料期間</tspan>
        </text>
    </g>
</svg>
