<svg xmlns="http://www.w3.org/2000/svg" xmlns:xlink="http://www.w3.org/1999/xlink" width="260" height="196" viewBox="0 0 260 196">
    <defs>
        <path id="a" d="M.786.236h6.392v10.358H.787z"/>
        <path id="c" d="M.492.789H6.83v10.535H.492z"/>
    </defs>
    <g fill="none" fill-rule="evenodd">
        <rect width="259.193" height="196" fill="#F2F2F2" rx="3.512"/>
        <path fill="#2B1405" d="M3.512 0h252.169a3.512 3.512 0 0 1 3.512 3.512v28.506H0V3.512A3.512 3.512 0 0 1 3.512 0z"/>
        <path fill="#251910" d="M230.8 59.17a.507.507 0 0 1-.372-.156.507.507 0 0 1-.156-.373c0-.144.051-.269.156-.372a.508.508 0 0 1 .372-.156h1.598c.09 0 .136-.045.136-.135v-7.312c0-.09-.046-.136-.136-.136h-1.26a.392.392 0 0 1-.406-.406c0-.108.036-.207.109-.298a.495.495 0 0 1 .284-.176 6.74 6.74 0 0 0 1.286-.42c.326-.153.628-.23.907-.23.135 0 .251.047.346.143a.47.47 0 0 1 .142.344v8.49c0 .091.045.136.135.136h1.382c.144 0 .268.052.372.156a.506.506 0 0 1 .156.372.508.508 0 0 1-.156.373.507.507 0 0 1-.372.155H230.8zM24.238 81.931a.363.363 0 0 1-.27-.108.366.366 0 0 1-.109-.27c0-.244.095-.452.285-.624 1.507-1.336 2.613-2.509 3.317-3.52.704-1.01 1.056-1.94 1.056-2.79 0-.604-.16-1.09-.48-1.455-.32-.366-.785-.549-1.395-.549-.609 0-1.194.267-1.753.8-.1.1-.22.15-.36.156a.466.466 0 0 1-.358-.143.508.508 0 0 1-.155-.359.446.446 0 0 1 .155-.358c.794-.759 1.67-1.138 2.627-1.138.902 0 1.62.273 2.153.82.532.545.798 1.275.798 2.186 0 .948-.332 1.927-.995 2.938-.663 1.011-1.622 2.117-2.877 3.318-.018.018-.023.038-.013.06.009.024.022.03.04.021a23.15 23.15 0 0 1 1.53-.081h2.275c.144 0 .271.054.379.162a.528.528 0 0 1 .163.386.528.528 0 0 1-.163.386.518.518 0 0 1-.379.162h-5.47zM61.559 82.108c-1.137 0-2.1-.339-2.884-1.016a.542.542 0 0 1-.176-.42c0-.135.041-.257.122-.366a.429.429 0 0 1 .332-.175.51.51 0 0 1 .372.122c.632.532 1.345.798 2.14.798.614 0 1.112-.169 1.495-.508.384-.338.576-.796.576-1.374 0-1.254-.893-1.927-2.68-2.017a.523.523 0 0 1-.346-.156.47.47 0 0 1-.143-.346.47.47 0 0 1 .143-.344.52.52 0 0 1 .345-.156c.813-.063 1.403-.264 1.774-.603.37-.339.556-.779.556-1.32 0-.496-.155-.891-.461-1.185-.307-.293-.727-.445-1.26-.453-.596.017-1.165.239-1.706.663a.567.567 0 0 1-.393.122.474.474 0 0 1-.35-.176.526.526 0 0 1-.124-.386.473.473 0 0 1 .19-.36c.75-.586 1.561-.879 2.437-.879.876 0 1.586.226 2.133.677.546.452.82 1.075.82 1.869 0 .595-.159 1.1-.474 1.516-.317.415-.754.727-1.314.935-.019.008-.027.022-.027.04 0 .019.008.027.027.027.632.153 1.147.456 1.544.907.396.452.595 1.007.595 1.666 0 .884-.311 1.589-.934 2.112-.623.524-1.4.786-2.33.786M93.744 78.005a.083.083 0 0 0 .006.074.066.066 0 0 0 .06.034h2.83c.09 0 .136-.044.136-.135v-2.979c0-.19.027-.794.081-1.814 0-.019-.008-.028-.027-.028-.018 0-.032.01-.04.028-.217.433-.483.92-.8 1.462l-2.246 3.358zm5.076.108a.5.5 0 0 1 .366.149c.1.1.149.22.149.359 0 .14-.05.26-.149.36-.1.099-.22.148-.366.148h-.703c-.09 0-.136.045-.136.135v2.058a.584.584 0 0 1-.176.433.576.576 0 0 1-.427.176.578.578 0 0 1-.426-.176.587.587 0 0 1-.176-.433v-2.058c0-.09-.045-.135-.135-.135h-3.873a.406.406 0 0 1-.298-.122.403.403 0 0 1-.122-.298c0-.27.077-.523.23-.759l3.63-5.592a1.211 1.211 0 0 1 1.083-.595c.19 0 .352.07.487.21a.69.69 0 0 1 .203.494v5.511c0 .09.045.135.136.135h.703zM129.943 82.108c-1.093 0-2.04-.33-2.844-.989a.528.528 0 0 1-.189-.42c0-.126.041-.243.121-.351a.423.423 0 0 1 .326-.177.5.5 0 0 1 .366.122 3.261 3.261 0 0 0 2.112.758c.614 0 1.128-.218 1.543-.657.416-.437.624-1.017.624-1.74 0-.722-.192-1.288-.576-1.699-.384-.41-.896-.616-1.537-.616-.46 0-.912.131-1.354.393a.737.737 0 0 1-.352.095.64.64 0 0 1-.325-.095.613.613 0 0 1-.311-.609l.216-3.182a1.2 1.2 0 0 1 .393-.833c.244-.23.532-.345.866-.345h3.223c.153 0 .282.054.386.162a.54.54 0 0 1 .156.386.515.515 0 0 1-.156.379.524.524 0 0 1-.386.156h-3.155c-.09 0-.14.045-.148.136l-.23 2.667c0 .036.01.06.033.074a.081.081 0 0 0 .074.007 2.978 2.978 0 0 1 1.395-.339c.893 0 1.627.271 2.2.813.574.542.86 1.345.86 2.41 0 .723-.16 1.354-.48 1.895-.32.542-.73.944-1.226 1.205a3.424 3.424 0 0 1-1.625.394M164.74 81.133c.495 0 .906-.217 1.231-.65.325-.433.488-.988.488-1.666 0-.704-.153-1.255-.46-1.652-.308-.397-.764-.596-1.368-.596-.731 0-1.4.398-2.004 1.192a.329.329 0 0 0-.068.244c.09 1.01.32 1.785.69 2.322.37.537.867.806 1.49.806m2.356-8.883c.109.1.164.223.17.373a.525.525 0 0 1-.143.386.464.464 0 0 1-.345.155.573.573 0 0 1-.372-.115c-.38-.28-.8-.42-1.26-.42-.75 0-1.364.323-1.84.969-.48.645-.738 1.685-.773 3.12 0 .027.009.044.027.048a.076.076 0 0 0 .055-.007 3.52 3.52 0 0 1 1.056-.833 2.542 2.542 0 0 1 1.164-.304c.885 0 1.575.27 2.072.812.496.542.745 1.336.745 2.383 0 .957-.283 1.745-.847 2.363-.565.618-1.253.928-2.065.928-1.01 0-1.83-.432-2.457-1.294-.628-.862-.942-2.106-.942-3.73 0-.966.102-1.812.305-2.539.203-.726.482-1.3.84-1.72.356-.42.754-.733 1.191-.94a3.296 3.296 0 0 1 1.429-.312c.758 0 1.422.226 1.99.677M198.897 81.268a.679.679 0 0 1-.69.663.582.582 0 0 1-.447-.19.6.6 0 0 1-.177-.419c0-1.436.262-2.956.786-4.563.415-1.264 1.07-2.532 1.963-3.805.018-.018.02-.04.007-.067-.013-.028-.034-.041-.06-.041h-4.253a.531.531 0 0 1-.379-.156.53.53 0 0 1 0-.765.52.52 0 0 1 .38-.162h5.443c.107 0 .198.038.27.114.072.077.108.17.108.278 0 .244-.076.47-.23.677-.975 1.31-1.65 2.58-2.024 3.812-.374 1.233-.607 2.773-.697 4.624M233.495 76.366a.18.18 0 0 0 .216-.04c.641-.596.961-1.25.961-1.964 0-.514-.155-.945-.466-1.293-.313-.347-.734-.521-1.267-.521-.47 0-.855.151-1.157.454-.303.302-.454.702-.454 1.198 0 .28.055.533.162.758.109.226.275.425.502.596.225.172.448.316.67.433.22.117.499.244.833.38m-.542 4.806c.577 0 1.047-.16 1.408-.48.361-.32.542-.734.542-1.24 0-.261-.047-.498-.143-.71a2.027 2.027 0 0 0-.345-.542 2.506 2.506 0 0 0-.582-.447 7.588 7.588 0 0 0-.677-.359c-.198-.09-.47-.207-.812-.352a.459.459 0 0 0-.11-.013.26.26 0 0 0-.135.04c-.397.271-.708.599-.934.982a2.403 2.403 0 0 0-.338 1.24c0 .541.2.99.603 1.347.4.356.909.534 1.523.534m-.027.934c-.939 0-1.715-.254-2.33-.765-.613-.51-.92-1.152-.92-1.929 0-.622.176-1.172.528-1.646.352-.474.79-.855 1.314-1.143.018-.01.027-.025.027-.048a.085.085 0 0 0-.027-.06c-.894-.624-1.341-1.395-1.341-2.316 0-.767.262-1.39.785-1.869.524-.478 1.192-.717 2.004-.717.849 0 1.525.248 2.031.744.505.497.76 1.143.76 1.936 0 .48-.134.933-.4 1.362-.267.428-.581.782-.942 1.062a.084.084 0 0 0-.027.062c0 .022.008.038.027.047 1.128.659 1.692 1.544 1.692 2.653 0 .75-.295 1.375-.886 1.876-.592.5-1.357.751-2.295.751M26.866 99.575c.75 0 1.43-.42 2.044-1.26a.333.333 0 0 0 .067-.243c-.08-1.002-.309-1.762-.682-2.281-.376-.52-.884-.78-1.524-.78-.497 0-.907.213-1.233.637-.324.425-.487.98-.487 1.666 0 .704.156 1.257.467 1.659.312.402.76.602 1.348.602m-2.424 4.293a.45.45 0 0 1-.183-.36.573.573 0 0 1 .142-.4.478.478 0 0 1 .353-.154.582.582 0 0 1 .378.114c.406.28.849.42 1.328.42.703 0 1.288-.324 1.753-.974.464-.65.728-1.693.793-3.128 0-.018-.012-.032-.034-.041-.024-.009-.04-.004-.048.013-.307.352-.66.633-1.056.84-.397.208-.8.311-1.205.311-.867 0-1.551-.275-2.052-.826-.5-.55-.752-1.34-.752-2.369 0-.966.282-1.758.847-2.377.564-.618 1.253-.927 2.065-.927 1.02 0 1.843.415 2.47 1.246.629.83.942 2.027.942 3.588 0 .993-.102 1.867-.305 2.62-.203.754-.478 1.35-.825 1.787-.349.438-.736.763-1.165.975-.43.213-.891.319-1.388.319-.785 0-1.471-.226-2.058-.677M55.804 104.368a.507.507 0 0 1-.372-.155.507.507 0 0 1-.155-.373c0-.144.05-.268.155-.372a.508.508 0 0 1 .372-.156h1.598c.09 0 .136-.044.136-.135v-7.312c0-.09-.046-.136-.136-.136h-1.26a.392.392 0 0 1-.405-.406c0-.108.035-.207.108-.297a.495.495 0 0 1 .284-.177 6.74 6.74 0 0 0 1.286-.42c.326-.153.629-.23.908-.23.135 0 .25.048.345.143a.47.47 0 0 1 .142.345v8.49c0 .09.045.135.135.135h1.382c.145 0 .268.053.372.156a.506.506 0 0 1 .156.372.508.508 0 0 1-.156.373.507.507 0 0 1-.372.155h-4.523zM65.608 103.543c.595 0 1.064-.355 1.407-1.063.344-.709.515-1.785.515-3.23 0-1.426-.171-2.485-.515-3.175-.343-.69-.812-1.036-1.407-1.036-.615 0-1.093.346-1.435 1.036-.344.69-.515 1.75-.515 3.175 0 1.445.171 2.521.515 3.23.342.708.82 1.063 1.435 1.063m0 1.002c-.994 0-1.772-.45-2.336-1.348-.565-.898-.847-2.214-.847-3.947 0-1.723.28-3.028.84-3.913.56-.885 1.34-1.327 2.343-1.327.983 0 1.755.442 2.315 1.327s.84 2.19.84 3.913c0 1.733-.28 3.049-.84 3.947-.56.899-1.332 1.348-2.315 1.348M89.978 104.368a.507.507 0 0 1-.372-.155.507.507 0 0 1-.155-.373c0-.144.05-.268.155-.372a.508.508 0 0 1 .372-.156h1.599c.09 0 .135-.044.135-.135v-7.312c0-.09-.046-.136-.135-.136h-1.26a.392.392 0 0 1-.406-.406c0-.108.036-.207.109-.297a.495.495 0 0 1 .283-.177 6.74 6.74 0 0 0 1.286-.42c.326-.153.629-.23.908-.23.135 0 .25.048.345.143a.47.47 0 0 1 .143.345v8.49c0 .09.044.135.135.135H94.5c.145 0 .269.053.372.156a.506.506 0 0 1 .156.372.508.508 0 0 1-.156.373.507.507 0 0 1-.372.155h-4.523zM97.67 104.368a.507.507 0 0 1-.373-.155.507.507 0 0 1-.155-.373c0-.144.05-.268.155-.372a.508.508 0 0 1 .372-.156h1.598c.09 0 .136-.044.136-.135v-7.312c0-.09-.046-.136-.136-.136h-1.259a.392.392 0 0 1-.406-.406.495.495 0 0 1 .392-.474 6.74 6.74 0 0 0 1.286-.42c.326-.153.629-.23.908-.23.135 0 .25.048.345.143a.47.47 0 0 1 .143.345v8.49c0 .09.044.135.135.135h1.381c.145 0 .269.053.372.156a.506.506 0 0 1 .156.372.508.508 0 0 1-.156.373.507.507 0 0 1-.372.155H97.67zM124.228 104.368a.507.507 0 0 1-.372-.155.507.507 0 0 1-.155-.373c0-.144.051-.268.155-.372a.508.508 0 0 1 .372-.156h1.599c.09 0 .136-.044.136-.135v-7.312c0-.09-.047-.136-.136-.136h-1.26a.392.392 0 0 1-.406-.406c0-.108.036-.207.109-.297a.495.495 0 0 1 .284-.177 6.74 6.74 0 0 0 1.286-.42c.326-.153.628-.23.907-.23.135 0 .25.048.346.143a.47.47 0 0 1 .142.345v8.49c0 .09.044.135.135.135h1.381c.145 0 .269.053.372.156a.506.506 0 0 1 .157.372.508.508 0 0 1-.157.373.507.507 0 0 1-.372.155h-4.523zM131.161 104.368a.363.363 0 0 1-.27-.108.366.366 0 0 1-.11-.27c0-.244.095-.452.285-.624 1.508-1.336 2.614-2.509 3.317-3.52.705-1.01 1.057-1.94 1.057-2.79 0-.604-.16-1.09-.48-1.455-.321-.366-.785-.549-1.395-.549s-1.194.267-1.754.8c-.1.099-.219.15-.359.156a.466.466 0 0 1-.358-.143.508.508 0 0 1-.155-.359.446.446 0 0 1 .155-.358c.793-.759 1.67-1.138 2.626-1.138.903 0 1.621.273 2.153.82.532.545.799 1.275.799 2.186 0 .948-.332 1.927-.995 2.938-.664 1.01-1.623 2.117-2.877 3.318-.018.018-.023.038-.013.06.009.024.022.03.04.021a23.15 23.15 0 0 1 1.53-.081h2.275c.144 0 .27.054.378.162a.528.528 0 0 1 .164.386.528.528 0 0 1-.164.386.518.518 0 0 1-.378.162h-5.47zM158.47 104.368a.507.507 0 0 1-.373-.155.507.507 0 0 1-.155-.373c0-.144.05-.268.155-.372a.508.508 0 0 1 .372-.156h1.598c.09 0 .136-.044.136-.135v-7.312c0-.09-.046-.136-.136-.136h-1.259a.392.392 0 0 1-.406-.406.495.495 0 0 1 .392-.474 6.74 6.74 0 0 0 1.286-.42c.326-.153.629-.23.908-.23.135 0 .25.048.345.143a.47.47 0 0 1 .143.345v8.49c0 .09.044.135.135.135h1.381c.145 0 .269.053.372.156a.506.506 0 0 1 .156.372.508.508 0 0 1-.156.373.507.507 0 0 1-.372.155h-4.523zM168.07 104.545c-1.137 0-2.1-.339-2.884-1.016a.542.542 0 0 1-.177-.42c0-.135.042-.257.123-.366a.429.429 0 0 1 .331-.175.51.51 0 0 1 .372.122c.633.532 1.345.798 2.14.798.614 0 1.113-.169 1.496-.508.383-.338.575-.796.575-1.374 0-1.254-.893-1.927-2.68-2.017a.523.523 0 0 1-.346-.156.47.47 0 0 1-.142-.346.47.47 0 0 1 .142-.344.52.52 0 0 1 .346-.156c.812-.063 1.403-.264 1.773-.603.37-.339.556-.779.556-1.32 0-.496-.155-.891-.461-1.185-.307-.293-.726-.445-1.26-.453-.596.017-1.164.239-1.705.663a.567.567 0 0 1-.393.122.474.474 0 0 1-.351-.176.526.526 0 0 1-.123-.386.473.473 0 0 1 .19-.36c.749-.586 1.56-.879 2.437-.879.875 0 1.586.226 2.133.677.546.452.819 1.075.819 1.869 0 .595-.159 1.1-.474 1.516-.316.415-.754.727-1.314.935-.018.008-.027.022-.027.04 0 .019.009.028.027.028.632.152 1.147.455 1.545.906.396.452.595 1.007.595 1.666 0 .884-.312 1.589-.934 2.112-.624.524-1.4.786-2.33.786M192.708 104.368a.507.507 0 0 1-.372-.155.507.507 0 0 1-.155-.373c0-.144.05-.268.155-.372a.508.508 0 0 1 .372-.156h1.599c.09 0 .135-.044.135-.135v-7.312c0-.09-.046-.136-.135-.136h-1.26a.392.392 0 0 1-.406-.406c0-.108.036-.207.109-.297a.495.495 0 0 1 .283-.177 6.74 6.74 0 0 0 1.287-.42c.325-.153.628-.23.907-.23.135 0 .25.048.345.143a.47.47 0 0 1 .143.345v8.49c0 .09.044.135.135.135h1.381c.145 0 .269.053.372.156a.506.506 0 0 1 .156.372.508.508 0 0 1-.156.373.507.507 0 0 1-.372.155h-4.523zM200.319 100.442a.083.083 0 0 0 .006.074.066.066 0 0 0 .06.034h2.83c.09 0 .136-.045.136-.135v-2.979c0-.19.027-.794.082-1.814 0-.019-.01-.028-.028-.028-.018 0-.031.01-.04.028-.217.433-.483.92-.8 1.462l-2.246 3.358zm5.077.108a.5.5 0 0 1 .365.149c.1.1.15.219.15.359 0 .14-.05.26-.15.359-.1.1-.22.149-.365.149h-.704c-.09 0-.136.045-.136.135v2.058a.584.584 0 0 1-.176.433.576.576 0 0 1-.426.176.578.578 0 0 1-.427-.176.587.587 0 0 1-.176-.433v-2.058c0-.09-.045-.135-.135-.135h-3.873a.406.406 0 0 1-.297-.122.403.403 0 0 1-.123-.298c0-.27.077-.523.231-.759l3.628-5.592a1.211 1.211 0 0 1 1.084-.595c.19 0 .352.07.487.21a.69.69 0 0 1 .203.494v5.51c0 .091.045.136.136.136h.704zM226.954 104.368a.507.507 0 0 1-.372-.155.507.507 0 0 1-.156-.373c0-.144.051-.268.156-.372a.508.508 0 0 1 .372-.156h1.598c.09 0 .136-.044.136-.135v-7.312c0-.09-.046-.136-.136-.136h-1.26a.392.392 0 0 1-.405-.406c0-.108.035-.207.108-.297a.495.495 0 0 1 .284-.177 6.74 6.74 0 0 0 1.286-.42c.326-.153.628-.23.907-.23.136 0 .251.048.346.143a.47.47 0 0 1 .142.345v8.49c0 .09.045.135.135.135h1.382c.144 0 .268.053.372.156a.506.506 0 0 1 .156.372.508.508 0 0 1-.156.373.507.507 0 0 1-.372.155h-4.523zM236.514 104.545c-1.093 0-2.04-.33-2.844-.989a.528.528 0 0 1-.19-.42c0-.126.042-.243.122-.351a.423.423 0 0 1 .326-.177.5.5 0 0 1 .365.122 3.261 3.261 0 0 0 2.112.758c.614 0 1.128-.218 1.543-.657.416-.437.624-1.017.624-1.74 0-.722-.192-1.288-.576-1.699-.384-.41-.895-.616-1.537-.616-.46 0-.911.131-1.354.393a.737.737 0 0 1-.351.095.64.64 0 0 1-.326-.095.613.613 0 0 1-.311-.609l.217-3.182a1.2 1.2 0 0 1 .392-.833c.244-.23.532-.345.866-.345h3.223c.153 0 .282.054.386.162a.54.54 0 0 1 .156.386.515.515 0 0 1-.156.379.524.524 0 0 1-.386.156h-3.155c-.09 0-.14.045-.148.136l-.23 2.667c0 .036.01.06.034.074a.081.081 0 0 0 .073.007 2.978 2.978 0 0 1 1.396-.339c.892 0 1.627.271 2.2.813.573.542.86 1.345.86 2.41 0 .723-.16 1.354-.481 1.895-.32.542-.729.944-1.226 1.205a3.424 3.424 0 0 1-1.624.394M21.15 127.213a.507.507 0 0 1-.371-.155.507.507 0 0 1-.155-.373c0-.144.05-.269.155-.372a.508.508 0 0 1 .372-.156h1.598c.09 0 .136-.045.136-.135v-7.312c0-.09-.046-.136-.136-.136h-1.26a.392.392 0 0 1-.405-.406c0-.109.035-.207.108-.298a.495.495 0 0 1 .284-.176 6.74 6.74 0 0 0 1.286-.42c.326-.154.629-.23.908-.23.135 0 .25.047.345.143a.47.47 0 0 1 .142.344v8.49c0 .091.045.136.135.136h1.382c.145 0 .268.052.372.156a.506.506 0 0 1 .156.372.508.508 0 0 1-.156.373.507.507 0 0 1-.372.155H21.15zM31.266 126.414c.496 0 .907-.217 1.232-.65.325-.433.487-.988.487-1.666 0-.703-.152-1.254-.46-1.651-.307-.397-.763-.596-1.368-.596-.73 0-1.399.398-2.003 1.192a.329.329 0 0 0-.068.243c.09 1.011.32 1.785.69 2.322.37.537.866.806 1.49.806m2.356-8.883c.108.1.164.224.169.373a.525.525 0 0 1-.142.386.464.464 0 0 1-.345.155.573.573 0 0 1-.373-.114c-.38-.28-.799-.42-1.26-.42-.749 0-1.363.323-1.84.968-.479.645-.737 1.686-.772 3.12 0 .028.008.044.027.048a.076.076 0 0 0 .054-.006 3.52 3.52 0 0 1 1.057-.833 2.542 2.542 0 0 1 1.163-.305c.885 0 1.575.27 2.073.813.496.541.745 1.336.745 2.382 0 .957-.283 1.745-.847 2.364-.565.618-1.253.927-2.065.927-1.011 0-1.83-.432-2.457-1.294-.628-.861-.942-2.105-.942-3.73 0-.966.102-1.812.305-2.538.203-.726.482-1.3.84-1.72.356-.42.753-.733 1.191-.941a3.296 3.296 0 0 1 1.428-.312c.76 0 1.422.226 1.991.677M55.804 127.213a.507.507 0 0 1-.372-.155.507.507 0 0 1-.155-.373c0-.144.05-.269.155-.372a.508.508 0 0 1 .372-.156h1.598c.09 0 .136-.045.136-.135v-7.312c0-.09-.046-.136-.136-.136h-1.26a.392.392 0 0 1-.405-.406c0-.109.035-.207.108-.298a.495.495 0 0 1 .284-.176 6.74 6.74 0 0 0 1.286-.42c.326-.154.629-.23.908-.23.135 0 .25.047.345.143a.47.47 0 0 1 .142.344v8.49c0 .091.045.136.135.136h1.382c.145 0 .268.052.372.156a.506.506 0 0 1 .156.372.508.508 0 0 1-.156.373.507.507 0 0 1-.372.155h-4.523zM65.838 126.55a.679.679 0 0 1-.691.663.582.582 0 0 1-.447-.19.6.6 0 0 1-.176-.42c0-1.435.262-2.956.785-4.563.415-1.263 1.07-2.531 1.963-3.804.019-.018.021-.04.008-.068-.013-.027-.034-.04-.061-.04h-4.252a.531.531 0 0 1-.38-.156.53.53 0 0 1 0-.765.52.52 0 0 1 .38-.163h5.443c.108 0 .199.038.271.115.072.077.108.17.108.277 0 .245-.076.47-.23.677-.975 1.31-1.65 2.58-2.024 3.812-.375 1.233-.608 2.774-.697 4.624M89.978 127.213a.507.507 0 0 1-.372-.155.507.507 0 0 1-.155-.373c0-.144.05-.269.155-.372a.508.508 0 0 1 .372-.156h1.599c.09 0 .135-.045.135-.135v-7.312c0-.09-.046-.136-.135-.136h-1.26a.392.392 0 0 1-.406-.406c0-.109.036-.207.109-.298a.495.495 0 0 1 .283-.176 6.74 6.74 0 0 0 1.286-.42c.326-.154.629-.23.908-.23.135 0 .25.047.345.143a.47.47 0 0 1 .143.344v8.49c0 .091.044.136.135.136H94.5c.145 0 .269.052.372.156a.506.506 0 0 1 .156.372.508.508 0 0 1-.156.373.507.507 0 0 1-.372.155h-4.523zM100.364 121.648a.18.18 0 0 0 .217-.04c.64-.597.96-1.25.96-1.964 0-.515-.154-.945-.466-1.294-.312-.347-.733-.52-1.266-.52-.47 0-.855.15-1.158.453-.302.303-.454.702-.454 1.198 0 .28.055.533.163.759.108.225.275.424.501.596.225.171.449.315.67.433.22.117.5.244.833.379m-.542 4.807c.578 0 1.048-.16 1.408-.48.362-.32.542-.734.542-1.24 0-.262-.047-.499-.142-.71a2.027 2.027 0 0 0-.345-.543 2.506 2.506 0 0 0-.583-.446 7.588 7.588 0 0 0-.677-.36c-.198-.089-.469-.206-.812-.351a.459.459 0 0 0-.109-.014.26.26 0 0 0-.135.041c-.397.27-.709.598-.934.982a2.403 2.403 0 0 0-.338 1.239c0 .542.2.99.602 1.347.401.357.91.535 1.523.535m-.026.934c-.94 0-1.716-.255-2.33-.765-.614-.51-.92-1.153-.92-1.93 0-.622.175-1.171.528-1.645.352-.474.79-.855 1.313-1.144.018-.009.027-.024.027-.048a.085.085 0 0 0-.027-.06c-.893-.623-1.34-1.395-1.34-2.316 0-.767.261-1.39.785-1.868.524-.478 1.192-.718 2.004-.718.849 0 1.525.249 2.031.744.505.498.759 1.143.759 1.937 0 .479-.134.932-.4 1.361-.266.429-.58.783-.941 1.063a.084.084 0 0 0-.028.061c0 .023.01.038.028.047 1.128.66 1.692 1.544 1.692 2.654 0 .75-.296 1.374-.887 1.876-.591.5-1.356.751-2.294.751M124.228 127.213a.507.507 0 0 1-.372-.155.507.507 0 0 1-.155-.373c0-.144.051-.269.155-.372a.508.508 0 0 1 .372-.156h1.599c.09 0 .136-.045.136-.135v-7.312c0-.09-.047-.136-.136-.136h-1.26a.392.392 0 0 1-.406-.406c0-.109.036-.207.109-.298a.495.495 0 0 1 .284-.176 6.74 6.74 0 0 0 1.286-.42c.326-.154.628-.23.907-.23.135 0 .25.047.346.143a.47.47 0 0 1 .142.344v8.49c0 .091.044.136.135.136h1.381c.145 0 .269.052.372.156a.506.506 0 0 1 .157.372.508.508 0 0 1-.157.373.507.507 0 0 1-.372.155h-4.523zM133.788 122.42c.75 0 1.431-.42 2.045-1.26a.333.333 0 0 0 .067-.243c-.08-1.002-.309-1.763-.683-2.282-.375-.52-.883-.779-1.523-.779-.497 0-.907.213-1.233.637-.324.424-.487.98-.487 1.666 0 .704.155 1.257.467 1.658.312.402.76.603 1.347.603m-2.423 4.292a.45.45 0 0 1-.184-.359.573.573 0 0 1 .143-.4.478.478 0 0 1 .352-.155.582.582 0 0 1 .379.115c.406.28.848.42 1.327.42.704 0 1.289-.325 1.754-.975.464-.65.728-1.693.792-3.128 0-.017-.012-.031-.034-.04-.023-.009-.038-.005-.047.013-.308.352-.66.632-1.057.84-.397.207-.799.31-1.205.31-.866 0-1.55-.274-2.051-.825-.5-.55-.752-1.34-.752-2.369 0-.967.282-1.758.847-2.377.563-.618 1.253-.927 2.065-.927 1.02 0 1.843.415 2.47 1.246.628.83.942 2.026.942 3.587 0 .994-.102 1.867-.305 2.62-.203.755-.479 1.35-.826 1.788-.348.437-.736.762-1.164.974-.43.213-.892.32-1.388.32-.786 0-1.472-.227-2.058-.678M157.71 127.213a.363.363 0 0 1-.27-.108.366.366 0 0 1-.108-.271c0-.244.094-.452.284-.623 1.508-1.336 2.614-2.51 3.317-3.52.705-1.011 1.057-1.941 1.057-2.79 0-.605-.16-1.09-.48-1.456-.321-.365-.785-.548-1.395-.548s-1.194.267-1.754.799c-.1.1-.219.151-.359.156a.466.466 0 0 1-.358-.142.508.508 0 0 1-.156-.36.446.446 0 0 1 .156-.358c.793-.758 1.67-1.138 2.626-1.138.903 0 1.62.274 2.153.82.532.546.798 1.275.798 2.187 0 .948-.331 1.926-.994 2.937-.664 1.011-1.623 2.118-2.877 3.318-.018.019-.023.038-.013.06.008.024.021.03.04.022a23.15 23.15 0 0 1 1.53-.082h2.275c.144 0 .27.054.378.163a.528.528 0 0 1 .164.386.528.528 0 0 1-.164.385.518.518 0 0 1-.378.163h-5.471zM168.273 126.387c.595 0 1.064-.354 1.407-1.063.344-.708.516-1.785.516-3.23 0-1.425-.172-2.484-.516-3.175-.343-.69-.812-1.035-1.407-1.035-.615 0-1.093.345-1.435 1.035-.344.691-.515 1.75-.515 3.176 0 1.444.171 2.52.515 3.23.342.708.82 1.062 1.435 1.062m0 1.002c-.994 0-1.771-.449-2.336-1.347-.564-.899-.847-2.214-.847-3.947 0-1.724.28-3.029.84-3.913.56-.885 1.34-1.328 2.343-1.328.983 0 1.755.443 2.315 1.328.56.884.84 2.19.84 3.913 0 1.733-.28 3.048-.84 3.947-.56.898-1.332 1.347-2.315 1.347M191.95 127.213a.363.363 0 0 1-.27-.108.366.366 0 0 1-.11-.271c0-.244.095-.452.285-.623 1.508-1.336 2.614-2.51 3.317-3.52.705-1.011 1.057-1.941 1.057-2.79 0-.605-.16-1.09-.48-1.456-.321-.365-.785-.548-1.395-.548s-1.194.267-1.754.799c-.1.1-.219.151-.359.156a.466.466 0 0 1-.358-.142.508.508 0 0 1-.155-.36.446.446 0 0 1 .155-.358c.793-.758 1.67-1.138 2.626-1.138.903 0 1.621.274 2.153.82.532.546.799 1.275.799 2.187 0 .948-.332 1.926-.995 2.937-.664 1.011-1.623 2.118-2.877 3.318-.018.019-.023.038-.013.06.009.024.022.03.04.022a23.15 23.15 0 0 1 1.53-.082h2.275c.144 0 .27.054.378.163a.528.528 0 0 1 .164.386.528.528 0 0 1-.164.385.518.518 0 0 1-.378.163h-5.47zM200.4 127.213a.507.507 0 0 1-.373-.155.507.507 0 0 1-.155-.373c0-.144.05-.269.155-.372a.508.508 0 0 1 .372-.156h1.599c.09 0 .135-.045.135-.135v-7.312c0-.09-.046-.136-.135-.136h-1.26a.392.392 0 0 1-.406-.406c0-.109.036-.207.109-.298a.495.495 0 0 1 .283-.176 6.74 6.74 0 0 0 1.286-.42c.326-.154.629-.23.908-.23.135 0 .25.047.345.143a.47.47 0 0 1 .143.344v8.49c0 .091.044.136.135.136h1.381c.145 0 .269.052.372.156a.506.506 0 0 1 .156.372.508.508 0 0 1-.156.373.507.507 0 0 1-.372.155H200.4zM226.195 127.213a.363.363 0 0 1-.27-.108.366.366 0 0 1-.109-.271c0-.244.095-.452.285-.623 1.507-1.336 2.613-2.51 3.317-3.52.704-1.011 1.056-1.941 1.056-2.79 0-.605-.16-1.09-.48-1.456-.32-.365-.785-.548-1.395-.548-.609 0-1.194.267-1.753.799-.1.1-.22.151-.36.156a.466.466 0 0 1-.358-.142.508.508 0 0 1-.155-.36.446.446 0 0 1 .155-.358c.794-.758 1.67-1.138 2.627-1.138.902 0 1.62.274 2.153.82.532.546.798 1.275.798 2.187 0 .948-.332 1.926-.995 2.937s-1.622 2.118-2.877 3.318c-.018.019-.022.038-.013.06.01.024.022.03.04.022a23.15 23.15 0 0 1 1.53-.082h2.275c.144 0 .271.054.379.163a.528.528 0 0 1 .163.386.528.528 0 0 1-.163.385.518.518 0 0 1-.379.163h-5.47z"/>
        <g transform="translate(232.72 116.618)">
            <mask id="b" fill="#fff">
                <use xlink:href="#a"/>
            </mask>
            <path fill="#251910" d="M1.166 10.594a.363.363 0 0 1-.27-.108.366.366 0 0 1-.11-.27c0-.244.095-.452.285-.624 1.508-1.336 2.614-2.509 3.317-3.52.705-1.01 1.057-1.94 1.057-2.79 0-.604-.16-1.09-.48-1.455-.321-.366-.785-.549-1.395-.549s-1.194.267-1.754.8c-.1.099-.22.15-.359.156a.466.466 0 0 1-.358-.143.508.508 0 0 1-.156-.359.446.446 0 0 1 .156-.358C1.892.615 2.769.236 3.725.236c.903 0 1.62.273 2.153.82.532.545.798 1.275.798 2.186 0 .948-.331 1.927-.995 2.938-.663 1.01-1.622 2.117-2.876 3.318-.018.018-.023.038-.013.06.008.024.021.03.04.021a23.15 23.15 0 0 1 1.53-.081h2.275c.144 0 .27.054.378.162a.528.528 0 0 1 .164.386.528.528 0 0 1-.164.386.518.518 0 0 1-.378.162H1.166z" mask="url(#b)"/>
        </g>
        <path fill="#251910" d="M20.393 150.127a.363.363 0 0 1-.27-.108.366.366 0 0 1-.11-.271c0-.244.095-.452.285-.623 1.508-1.336 2.613-2.51 3.317-3.52.704-1.011 1.056-1.941 1.056-2.79 0-.605-.16-1.09-.48-1.456-.32-.365-.785-.548-1.395-.548-.609 0-1.193.267-1.753.8-.1.099-.22.15-.36.155a.466.466 0 0 1-.358-.142.508.508 0 0 1-.155-.36.446.446 0 0 1 .155-.358c.794-.758 1.67-1.138 2.627-1.138.902 0 1.62.274 2.153.82.532.546.798 1.275.798 2.187 0 .948-.332 1.926-.995 2.937s-1.622 2.118-2.877 3.318c-.018.019-.022.038-.013.06.01.024.022.03.04.022a23.15 23.15 0 0 1 1.53-.082h2.275c.144 0 .271.054.379.163a.528.528 0 0 1 .163.386.528.528 0 0 1-.163.385.518.518 0 0 1-.379.163h-5.47zM30.75 150.303c-1.136 0-2.098-.338-2.883-1.016a.542.542 0 0 1-.176-.42c0-.135.041-.257.122-.365a.429.429 0 0 1 .332-.176.51.51 0 0 1 .372.122c.632.533 1.345.799 2.14.799.614 0 1.112-.17 1.496-.508.383-.338.575-.796.575-1.374 0-1.255-.893-1.928-2.68-2.018a.523.523 0 0 1-.346-.156.47.47 0 0 1-.143-.345.47.47 0 0 1 .143-.345.52.52 0 0 1 .345-.156c.813-.063 1.404-.263 1.774-.602.37-.34.556-.78.556-1.32 0-.497-.155-.892-.461-1.185-.307-.294-.727-.445-1.26-.454-.596.018-1.164.24-1.706.663a.567.567 0 0 1-.393.122.474.474 0 0 1-.35-.176.526.526 0 0 1-.124-.386.473.473 0 0 1 .19-.359c.75-.586 1.561-.879 2.437-.879.876 0 1.587.226 2.133.676.546.452.82 1.075.82 1.87 0 .595-.159 1.1-.474 1.516-.317.415-.754.726-1.314.934-.018.009-.027.023-.027.04 0 .02.009.028.027.028.632.153 1.147.455 1.544.907s.595 1.007.595 1.665c0 .885-.31 1.59-.934 2.113-.623.523-1.4.785-2.33.785M23.06 174.854c-1.136 0-2.099-.338-2.884-1.016a.542.542 0 0 1-.176-.42c0-.135.041-.257.122-.366a.429.429 0 0 1 .332-.175.51.51 0 0 1 .372.122c.632.532 1.345.798 2.14.798.614 0 1.112-.169 1.496-.508.383-.338.575-.795.575-1.374 0-1.254-.893-1.927-2.68-2.017a.523.523 0 0 1-.346-.156.47.47 0 0 1-.142-.345.47.47 0 0 1 .142-.345.52.52 0 0 1 .345-.156c.813-.063 1.404-.264 1.774-.603.37-.339.556-.779.556-1.32 0-.496-.155-.89-.461-1.185-.307-.293-.727-.444-1.26-.453-.596.017-1.164.24-1.705.663a.567.567 0 0 1-.394.122.474.474 0 0 1-.35-.176.526.526 0 0 1-.124-.386.473.473 0 0 1 .19-.36c.75-.586 1.562-.878 2.438-.878.875 0 1.586.225 2.132.676.546.452.82 1.075.82 1.869 0 .595-.159 1.1-.474 1.517-.317.414-.754.726-1.314.934-.018.009-.027.022-.027.04 0 .019.009.028.027.028.632.153 1.147.455 1.544.906.397.452.596 1.007.596 1.666 0 .885-.312 1.59-.935 2.112-.623.524-1.4.786-2.33.786"/>
        <g transform="translate(27.28 163.53)">
            <mask id="d" fill="#fff">
                <use xlink:href="#c"/>
            </mask>
            <path fill="#251910" d="M3.675 10.322c.596 0 1.065-.355 1.408-1.063.343-.709.515-1.785.515-3.23 0-1.426-.172-2.485-.515-3.175S4.27 1.818 3.675 1.818c-.614 0-1.093.346-1.435 1.036-.343.69-.515 1.75-.515 3.175 0 1.445.172 2.521.515 3.23.342.708.82 1.063 1.435 1.063m0 1.002c-.994 0-1.771-.45-2.336-1.348C.775 9.078.492 7.762.492 6.03c0-1.723.28-3.028.84-3.913.56-.885 1.341-1.327 2.343-1.327.984 0 1.755.442 2.315 1.327s.84 2.19.84 3.913c0 1.733-.28 3.049-.84 3.947-.56.899-1.331 1.348-2.315 1.348" mask="url(#d)"/>
        </g>
        <path fill="#251910" d="M55.046 150.127a.363.363 0 0 1-.27-.108.366.366 0 0 1-.11-.271c0-.244.095-.452.285-.623 1.508-1.336 2.613-2.51 3.317-3.52.704-1.011 1.056-1.941 1.056-2.79 0-.605-.16-1.09-.48-1.456-.32-.365-.785-.548-1.395-.548-.609 0-1.193.267-1.753.8-.1.099-.22.15-.36.155a.466.466 0 0 1-.358-.142.508.508 0 0 1-.155-.36.446.446 0 0 1 .155-.358c.794-.758 1.67-1.138 2.627-1.138.902 0 1.62.274 2.153.82.532.546.798 1.275.798 2.187 0 .948-.332 1.926-.995 2.937s-1.622 2.118-2.877 3.318c-.018.019-.022.038-.013.06.01.024.022.03.04.022a23.15 23.15 0 0 1 1.53-.082h2.275c.144 0 .271.054.379.163a.528.528 0 0 1 .163.386.528.528 0 0 1-.163.385.518.518 0 0 1-.379.163h-5.47zM63.414 146.2a.083.083 0 0 0 .007.075.066.066 0 0 0 .06.034h2.83c.09 0 .136-.045.136-.136v-2.978c0-.19.027-.795.081-1.815 0-.018-.009-.027-.027-.027-.018 0-.032.009-.04.027-.217.433-.484.92-.8 1.463l-2.247 3.357zm5.077.109a.5.5 0 0 1 .366.148c.1.1.149.22.149.36 0 .14-.05.26-.15.359-.099.1-.22.148-.365.148h-.703c-.091 0-.136.046-.136.135v2.059a.584.584 0 0 1-.177.433.576.576 0 0 1-.426.176.578.578 0 0 1-.426-.176.587.587 0 0 1-.176-.433v-2.059c0-.09-.046-.135-.136-.135H62.44a.406.406 0 0 1-.298-.122.403.403 0 0 1-.122-.297c0-.271.077-.524.23-.76l3.629-5.591a1.211 1.211 0 0 1 1.084-.596c.189 0 .352.07.487.21a.69.69 0 0 1 .203.494v5.511c0 .091.045.136.136.136h.703zM89.22 150.127a.363.363 0 0 1-.27-.108.366.366 0 0 1-.11-.271c0-.244.095-.452.285-.623 1.508-1.336 2.614-2.51 3.317-3.52.705-1.011 1.057-1.941 1.057-2.79 0-.605-.16-1.09-.48-1.456-.321-.365-.785-.548-1.395-.548s-1.194.267-1.754.8c-.1.099-.219.15-.359.155a.466.466 0 0 1-.358-.142.508.508 0 0 1-.155-.36.446.446 0 0 1 .155-.358c.793-.758 1.67-1.138 2.626-1.138.903 0 1.621.274 2.153.82.532.546.799 1.275.799 2.187 0 .948-.332 1.926-.995 2.937-.664 1.011-1.623 2.118-2.877 3.318-.018.019-.023.038-.013.06.009.024.022.03.04.022a23.15 23.15 0 0 1 1.53-.082h2.275c.144 0 .27.054.378.163a.528.528 0 0 1 .164.386.528.528 0 0 1-.164.385.518.518 0 0 1-.378.163H89.22zM99.538 150.303c-1.093 0-2.04-.33-2.844-.988a.528.528 0 0 1-.19-.42c0-.126.042-.243.122-.352a.423.423 0 0 1 .326-.176.5.5 0 0 1 .366.122 3.261 3.261 0 0 0 2.112.758c.614 0 1.128-.219 1.543-.657.416-.438.623-1.017.623-1.74 0-.722-.191-1.288-.575-1.7-.385-.41-.896-.615-1.537-.615-.46 0-.912.13-1.354.393a.737.737 0 0 1-.352.094.64.64 0 0 1-.325-.094.613.613 0 0 1-.312-.61l.217-3.181a1.2 1.2 0 0 1 .393-.833c.244-.23.532-.346.866-.346h3.223c.153 0 .281.054.386.163a.54.54 0 0 1 .156.386.515.515 0 0 1-.156.378.524.524 0 0 1-.386.156h-3.155c-.09 0-.14.046-.148.136l-.23 2.668c0 .035.01.06.033.073a.081.081 0 0 0 .074.008 2.978 2.978 0 0 1 1.395-.34c.893 0 1.627.272 2.2.814.573.541.86 1.345.86 2.41 0 .722-.16 1.354-.48 1.895-.321.542-.73.944-1.226 1.205a3.424 3.424 0 0 1-1.625.393M123.47 150.127a.363.363 0 0 1-.27-.108.366.366 0 0 1-.11-.271c0-.244.096-.452.286-.623 1.507-1.336 2.613-2.51 3.317-3.52.704-1.011 1.056-1.941 1.056-2.79 0-.605-.16-1.09-.48-1.456-.32-.365-.785-.548-1.395-.548-.609 0-1.194.267-1.753.8-.1.099-.22.15-.36.155a.466.466 0 0 1-.358-.142.508.508 0 0 1-.155-.36.446.446 0 0 1 .155-.358c.794-.758 1.67-1.138 2.626-1.138.903 0 1.621.274 2.153.82.533.546.799 1.275.799 2.187 0 .948-.332 1.926-.995 2.937s-1.623 2.118-2.877 3.318c-.018.019-.023.038-.013.06.009.024.022.03.04.022a23.15 23.15 0 0 1 1.53-.082h2.275c.144 0 .271.054.379.163a.528.528 0 0 1 .163.386.528.528 0 0 1-.163.385.518.518 0 0 1-.379.163h-5.47zM134.343 149.328c.496 0 .907-.217 1.232-.65.325-.433.488-.988.488-1.666 0-.703-.153-1.254-.46-1.651-.308-.397-.764-.596-1.368-.596-.731 0-1.4.398-2.003 1.192a.329.329 0 0 0-.068.243c.09 1.011.32 1.785.69 2.322.37.537.866.806 1.49.806m2.356-8.882c.108.099.164.223.169.372a.525.525 0 0 1-.143.386.464.464 0 0 1-.344.155.573.573 0 0 1-.373-.114c-.38-.28-.8-.42-1.26-.42-.75 0-1.363.323-1.84.968-.48.645-.737 1.686-.773 3.12 0 .028.01.044.028.048a.076.076 0 0 0 .054-.006 3.52 3.52 0 0 1 1.056-.833 2.542 2.542 0 0 1 1.164-.305c.885 0 1.575.27 2.072.813.496.541.745 1.336.745 2.382 0 .957-.283 1.745-.847 2.364-.564.618-1.252.927-2.065.927-1.01 0-1.83-.431-2.457-1.294-.627-.861-.941-2.105-.941-3.73 0-.966.102-1.812.305-2.538.203-.726.482-1.3.84-1.72.355-.42.753-.733 1.19-.941a3.296 3.296 0 0 1 1.43-.311c.758 0 1.421.225 1.99.677M157.703 150.127a.363.363 0 0 1-.27-.108.366.366 0 0 1-.11-.271c0-.244.095-.452.285-.623 1.508-1.336 2.614-2.51 3.317-3.52.705-1.011 1.057-1.941 1.057-2.79 0-.605-.16-1.09-.48-1.456-.321-.365-.785-.548-1.395-.548s-1.194.267-1.754.8c-.1.099-.219.15-.359.155a.466.466 0 0 1-.358-.142.508.508 0 0 1-.155-.36.446.446 0 0 1 .155-.358c.793-.758 1.67-1.138 2.626-1.138.903 0 1.621.274 2.153.82.532.546.799 1.275.799 2.187 0 .948-.332 1.926-.995 2.937-.664 1.011-1.623 2.118-2.877 3.318-.018.019-.023.038-.013.06.009.024.022.03.04.022a23.15 23.15 0 0 1 1.53-.082h2.275c.144 0 .27.054.378.163a.528.528 0 0 1 .164.386.528.528 0 0 1-.164.385.518.518 0 0 1-.378.163h-5.471zM168.495 149.463a.679.679 0 0 1-.69.664.582.582 0 0 1-.447-.19.6.6 0 0 1-.177-.42c0-1.435.262-2.956.786-4.563.415-1.263 1.07-2.531 1.963-3.804.018-.018.02-.04.007-.068-.013-.027-.034-.04-.06-.04h-4.253a.531.531 0 0 1-.379-.156.53.53 0 0 1 0-.765.52.52 0 0 1 .38-.163h5.443c.107 0 .198.038.27.115.072.077.108.17.108.277 0 .245-.076.47-.23.677-.975 1.31-1.65 2.58-2.024 3.812-.374 1.233-.607 2.774-.697 4.624M191.942 150.127a.363.363 0 0 1-.27-.108.366.366 0 0 1-.11-.271c0-.244.095-.452.285-.623 1.508-1.336 2.614-2.51 3.317-3.52.705-1.011 1.057-1.941 1.057-2.79 0-.605-.16-1.09-.48-1.456-.32-.365-.785-.548-1.395-.548s-1.194.267-1.754.8c-.1.099-.219.15-.359.155a.466.466 0 0 1-.358-.142.508.508 0 0 1-.155-.36.446.446 0 0 1 .155-.358c.793-.758 1.67-1.138 2.626-1.138.903 0 1.621.274 2.153.82.533.546.799 1.275.799 2.187 0 .948-.332 1.926-.995 2.937s-1.623 2.118-2.877 3.318c-.018.019-.023.038-.013.06.009.024.022.03.04.022a23.15 23.15 0 0 1 1.53-.082h2.275c.144 0 .271.054.379.163a.528.528 0 0 1 .163.386.528.528 0 0 1-.163.385.518.518 0 0 1-.379.163h-5.47zM203.086 144.562a.18.18 0 0 0 .217-.04c.64-.597.961-1.25.961-1.964 0-.515-.155-.945-.467-1.294-.312-.347-.733-.52-1.266-.52-.47 0-.855.15-1.158.453-.302.303-.453.702-.453 1.198 0 .28.055.533.162.759.108.225.275.424.502.596.224.171.448.315.67.433.22.117.498.244.832.379m-.542 4.807c.578 0 1.048-.16 1.409-.48.361-.321.542-.734.542-1.24 0-.262-.047-.499-.143-.71a2.027 2.027 0 0 0-.345-.543 2.506 2.506 0 0 0-.583-.446 7.588 7.588 0 0 0-.677-.36c-.198-.089-.469-.206-.812-.351a.459.459 0 0 0-.109-.014.26.26 0 0 0-.135.041c-.397.27-.708.598-.934.982a2.403 2.403 0 0 0-.338 1.239c0 .542.2.99.602 1.347.402.357.91.535 1.523.535m-.026.934c-.94 0-1.716-.255-2.33-.765-.614-.51-.92-1.153-.92-1.93 0-.622.175-1.171.528-1.645.352-.474.79-.855 1.314-1.144.017-.009.026-.024.026-.048a.085.085 0 0 0-.026-.06c-.894-.623-1.341-1.395-1.341-2.316 0-.767.262-1.39.785-1.868.524-.478 1.192-.718 2.004-.718.849 0 1.525.249 2.031.744.505.498.759 1.143.759 1.937 0 .479-.134.932-.4 1.361-.266.429-.58.783-.941 1.063a.084.084 0 0 0-.028.061c0 .023.01.038.028.047 1.128.66 1.692 1.544 1.692 2.654 0 .75-.295 1.374-.887 1.876-.59.5-1.356.751-2.294.751M226.18 150.127a.363.363 0 0 1-.27-.108.366.366 0 0 1-.11-.271c0-.244.095-.452.285-.623 1.508-1.336 2.613-2.51 3.317-3.52.705-1.011 1.056-1.941 1.056-2.79 0-.605-.16-1.09-.48-1.456-.32-.365-.785-.548-1.394-.548-.61 0-1.194.267-1.754.8-.1.099-.22.15-.36.155a.466.466 0 0 1-.357-.142.508.508 0 0 1-.156-.36.446.446 0 0 1 .156-.358c.793-.758 1.669-1.138 2.626-1.138.902 0 1.62.274 2.153.82.532.546.798 1.275.798 2.187 0 .948-.331 1.926-.995 2.937-.663 1.011-1.622 2.118-2.877 3.318-.017.019-.022.038-.013.06.01.024.022.03.04.022a23.15 23.15 0 0 1 1.53-.082h2.276c.144 0 .27.054.378.163a.528.528 0 0 1 .164.386.528.528 0 0 1-.164.385.518.518 0 0 1-.378.163h-5.471zM236.498 145.334c.75 0 1.43-.42 2.044-1.26a.333.333 0 0 0 .068-.243c-.081-1.002-.31-1.763-.683-2.282-.375-.52-.883-.779-1.524-.779-.497 0-.907.213-1.233.637-.324.424-.486.98-.486 1.666 0 .704.155 1.257.466 1.658.312.402.76.603 1.348.603m-2.424 4.292a.45.45 0 0 1-.183-.36.573.573 0 0 1 .142-.399.478.478 0 0 1 .353-.155.582.582 0 0 1 .378.115c.406.28.849.42 1.328.42.703 0 1.288-.325 1.753-.975.464-.65.728-1.693.793-3.128 0-.017-.012-.031-.034-.04-.024-.009-.039-.005-.048.013-.307.352-.66.632-1.056.84-.397.207-.8.31-1.205.31-.867 0-1.55-.274-2.051-.825-.501-.55-.753-1.34-.753-2.369 0-.967.283-1.758.847-2.377.564-.618 1.253-.927 2.065-.927 1.02 0 1.843.415 2.471 1.246.628.83.942 2.026.942 3.587 0 .994-.102 1.867-.305 2.62-.203.755-.48 1.35-.826 1.788-.349.437-.736.762-1.165.974-.43.213-.891.319-1.388.319-.785 0-1.471-.226-2.058-.677"/>
        <text fill="#FFF" font-family="GenJyuuGothicX-Regular, Gen Jyuu GothicX" font-size="16.771">
            <tspan x="116.559" y="22.215">9月</tspan>
        </text>
        <path stroke="#025C94" stroke-linecap="round" stroke-linejoin="round" stroke-width="2.287" d="M14.01 87.782h230.624M233.197 66.4h11.437M14.01 110.652h61.564M71 106l4.574 4.574L71 115.148"/>
        <text fill="#F1113E" font-family="GenJyuuGothicX-Medium, Gen Jyuu GothicX" font-size="12.96" font-weight="400">
            <tspan x="164.081" y="59">課金開始</tspan>
        </text>
        <text fill="#025C94" font-family="GenJyuuGothicX-Medium, Gen Jyuu GothicX" font-size="12.96" font-weight="400">
            <tspan x="15" y="50">翌月の課金開始を</tspan> <tspan x="15" y="65">停止できる期間</tspan>
        </text>
        <circle cx="233.197" cy="54.197" r="12.197" stroke="#F1113E" stroke-width="2.287"/>
    </g>
</svg>
