<svg xmlns="http://www.w3.org/2000/svg" width="73" height="90" viewBox="0 0 73 90">
    <g fill="none" fill-rule="evenodd">
        <g fill-rule="nonzero">
            <path fill="#8EB912" d="M12 2.019v75.164H7.102c-1.685 0-3.21.653-4.315 1.71C1.684 79.95 1 81.408 1 83.019V4.878c0-1.58 1.339-2.859 2.99-2.859H12z"/>
            <path fill="#87AA24" d="M8 1.019h4v76H8z"/>
            <path fill="#EFE2DD" d="M68.138 89.019H6.844c-3.227 0-5.844-2.687-5.844-6s2.617-6 5.844-6H71v9.06c0 1.624-1.281 2.94-2.862 2.94z"/>
            <path fill="#E1D3CE" d="M71 77.019v9.06c0 1.625-1.233 2.94-2.755 2.94H62c1.523 0 2.755-1.315 2.755-2.94v-9.06H71z"/>
            <path fill="#8EB912" d="M72 77.019H12v-76h57.11A2.89 2.89 0 0 1 72 3.909v73.11z"/>
            <path fill="#87AA24" d="M71 3.91v73.109h-6.245V3.909c0-1.597-1.234-2.89-2.755-2.89h6.245c1.522 0 2.755 1.293 2.755 2.89z"/>
            <path fill="#000" d="M68.805.019H54.233a1.316 1.316 0 1 0 0 2.633h14.572c.86 0 1.561.7 1.561 1.56v71.431H13.225V2.652h32.58a1.316 1.316 0 1 0 0-2.633H4.195A4.199 4.199 0 0 0 0 4.212V82.83c0 3.963 3.226 7.188 7.191 7.188h61.614A4.199 4.199 0 0 0 73 85.826V4.212A4.199 4.199 0 0 0 68.805.019zM2.635 4.212c0-.86.7-1.56 1.56-1.56h6.396v72.99c-1.506 0-3.028-.143-4.518.089a7.124 7.124 0 0 0-3.439 1.539V4.212zm67.731 77.303H9.088a1.316 1.316 0 1 0 0 2.632h61.278v1.68c0 .86-.7 1.56-1.56 1.56H7.19c-2.54 0-4.894-2.337-4.54-4.955.317-2.329 2.067-4.157 4.54-4.157h63.176v3.24z"/>
        </g>
        <g stroke="#000" stroke-linecap="round" stroke-width="2" transform="translate(25 24.019)">
            <path d="M13.5 19.5H6.914A6.414 6.414 0 0 1 .5 13.086V3.5c7.18 0 13 5.82 13 13M8.5 19.5a5 5 0 1 0 0 10 5 5 0 0 0 5-5M17.5 19.5h6.586a6.414 6.414 0 0 0 6.414-6.414V3.5c-7.18 0-13 5.82-13 13M22.5 19.5a5 5 0 1 1 0 10 5 5 0 0 1-5-5M13.988 6.909C13.905 4.553 12.438 1.646 10.5.5M16.95 6.909C17.032 4.553 18.5 1.646 20.437.5M17.5 11.735V27.5a2 2 0 1 1-4 0V11.735"/>
            <circle cx="15.5" cy="9.5" r="3"/>
        </g>
    </g>
</svg>
