<svg xmlns="http://www.w3.org/2000/svg" width="398" height="85" viewBox="0 0 398 85">
    <defs>
        <linearGradient id="a" x1="27.172%" x2="65.827%" y1="23.489%" y2="68.381%">
            <stop offset="0%" stop-color="#80B01A"/>
            <stop offset="5%" stop-color="#78AB1B"/>
            <stop offset="18%" stop-color="#67A21F"/>
            <stop offset="32%" stop-color="#5D9C20"/>
            <stop offset="51%" stop-color="#5A9A21"/>
            <stop offset="65%" stop-color="#5D9C1F"/>
            <stop offset="76%" stop-color="#67A01A"/>
            <stop offset="87%" stop-color="#78A911"/>
            <stop offset="97%" stop-color="#90B405"/>
            <stop offset="100%" stop-color="#99B900"/>
        </linearGradient>
        <linearGradient id="b" x1="36.447%" x2="58.682%" y1="29.039%" y2="70.233%">
            <stop offset="11%" stop-color="#FFF"/>
            <stop offset="26%" stop-color="#D6E3B9"/>
            <stop offset="45%" stop-color="#A2C061"/>
            <stop offset="59%" stop-color="#82AA2A"/>
            <stop offset="65%" stop-color="#75A215"/>
            <stop offset="78%" stop-color="#72A016"/>
            <stop offset="88%" stop-color="#689A17"/>
            <stop offset="97%" stop-color="#58901B"/>
            <stop offset="100%" stop-color="#518C1C"/>
        </linearGradient>
        <linearGradient id="c" x1="50.113%" x2="50.113%" y1=".001%" y2="100.222%">
            <stop offset="0%" stop-color="#E50012"/>
            <stop offset="55%" stop-color="#820009"/>
            <stop offset="56%" stop-color="#8F000A"/>
            <stop offset="59%" stop-color="#AA000D"/>
            <stop offset="63%" stop-color="#C0000F"/>
            <stop offset="67%" stop-color="#D10010"/>
            <stop offset="72%" stop-color="#DC0011"/>
            <stop offset="80%" stop-color="#E30012"/>
            <stop offset="100%" stop-color="#E50012"/>
        </linearGradient>
        <linearGradient id="d" x1="50.712%" x2="50.712%" y1="-.054%" y2="99.973%">
            <stop offset="0%" stop-color="#E50012"/>
            <stop offset="55%" stop-color="#820009"/>
            <stop offset="56%" stop-color="#8F000A"/>
            <stop offset="59%" stop-color="#AA000D"/>
            <stop offset="63%" stop-color="#C0000F"/>
            <stop offset="67%" stop-color="#D10010"/>
            <stop offset="72%" stop-color="#DC0011"/>
            <stop offset="80%" stop-color="#E30012"/>
            <stop offset="100%" stop-color="#E50012"/>
        </linearGradient>
        <linearGradient id="e" x1="50.281%" x2="50.281%" y1="0%" y2="100.137%">
            <stop offset="0%" stop-color="#E50012"/>
            <stop offset="55%" stop-color="#820009"/>
            <stop offset="56%" stop-color="#8F000A"/>
            <stop offset="59%" stop-color="#AA000D"/>
            <stop offset="63%" stop-color="#C0000F"/>
            <stop offset="67%" stop-color="#D10010"/>
            <stop offset="72%" stop-color="#DC0011"/>
            <stop offset="80%" stop-color="#E30012"/>
            <stop offset="100%" stop-color="#E50012"/>
        </linearGradient>
        <linearGradient id="f" x1="50.079%" x2="50.079%" y1="0%" y2="100.897%">
            <stop offset="0%" stop-color="#E50012"/>
            <stop offset="55%" stop-color="#820009"/>
            <stop offset="56%" stop-color="#8F000A"/>
            <stop offset="59%" stop-color="#AA000D"/>
            <stop offset="63%" stop-color="#C0000F"/>
            <stop offset="67%" stop-color="#D10010"/>
            <stop offset="72%" stop-color="#DC0011"/>
            <stop offset="80%" stop-color="#E30012"/>
            <stop offset="100%" stop-color="#E50012"/>
        </linearGradient>
        <linearGradient id="g" x1="47.369%" x2="47.369%" y1=".014%" y2="99.964%">
            <stop offset="0%" stop-color="#E50012"/>
            <stop offset="55%" stop-color="#820009"/>
            <stop offset="56%" stop-color="#8F000A"/>
            <stop offset="59%" stop-color="#AA000D"/>
            <stop offset="63%" stop-color="#C0000F"/>
            <stop offset="67%" stop-color="#D10010"/>
            <stop offset="72%" stop-color="#DC0011"/>
            <stop offset="80%" stop-color="#E30012"/>
            <stop offset="100%" stop-color="#E50012"/>
        </linearGradient>
        <linearGradient id="h" x1="50%" x2="50%" y1="0%" y2="100%">
            <stop offset="0%" stop-color="#009FE8"/>
            <stop offset="0%" stop-color="#0080CB"/>
            <stop offset="100%" stop-color="#17288A"/>
        </linearGradient>
        <linearGradient id="i" x1="50%" x2="50%" y1="0%" y2="100%">
            <stop offset="0%" stop-color="#009FE8"/>
            <stop offset="0%" stop-color="#0080CB"/>
            <stop offset="100%" stop-color="#17288A"/>
        </linearGradient>
        <linearGradient id="j" x1="49.667%" x2="49.667%" y1="0%" y2="100%">
            <stop offset="0%" stop-color="#009FE8"/>
            <stop offset="0%" stop-color="#0080CB"/>
            <stop offset="100%" stop-color="#17288A"/>
        </linearGradient>
        <linearGradient id="k" x1="50%" x2="50%" y1="0%" y2="100.158%">
            <stop offset="0%" stop-color="#717071"/>
            <stop offset="100%" stop-color="#231815"/>
        </linearGradient>
        <linearGradient id="l" x1="49.96%" x2="49.96%" y1=".159%" y2="100%">
            <stop offset="0%" stop-color="#717071"/>
            <stop offset="100%" stop-color="#231815"/>
        </linearGradient>
        <linearGradient id="m" x1="50%" x2="50%" y1=".079%" y2="100.079%">
            <stop offset="0%" stop-color="#717071"/>
            <stop offset="100%" stop-color="#231815"/>
        </linearGradient>
        <linearGradient id="n" x1="49.778%" x2="49.778%" y1=".077%" y2="100.154%">
            <stop offset="0%" stop-color="#717071"/>
            <stop offset="100%" stop-color="#231815"/>
        </linearGradient>
        <linearGradient id="o" x1="33.874%" x2="66.567%" y1="3.349%" y2="97.608%">
            <stop offset="0%" stop-color="#E50012"/>
            <stop offset="11%" stop-color="#CE000C"/>
            <stop offset="26%" stop-color="#B60005"/>
            <stop offset="39%" stop-color="#A80001"/>
            <stop offset="51%" stop-color="#A30000"/>
            <stop offset="100%" stop-color="#E50012"/>
        </linearGradient>
        <linearGradient id="p" x1="37.235%" x2="55.867%" y1="32.687%" y2="64.811%">
            <stop offset="11%" stop-color="#FFF"/>
            <stop offset="29%" stop-color="#E8A4A7"/>
            <stop offset="47%" stop-color="#D14C52"/>
            <stop offset="59%" stop-color="#C3151D"/>
            <stop offset="65%" stop-color="#BE0008"/>
            <stop offset="80%" stop-color="#BB0007"/>
            <stop offset="91%" stop-color="#B10004"/>
            <stop offset="100%" stop-color="#A30000"/>
        </linearGradient>
        <linearGradient id="q" x1="31.616%" x2="69.214%" y1=".924%" y2="94.038%">
            <stop offset="0%" stop-color="#F29600"/>
            <stop offset="11%" stop-color="#E68C00"/>
            <stop offset="35%" stop-color="#D27A00"/>
            <stop offset="51%" stop-color="#CA7300"/>
            <stop offset="100%" stop-color="#DA8700"/>
        </linearGradient>
        <linearGradient id="r" x1="37.962%" x2="56.763%" y1="32.528%" y2="66.539%">
            <stop offset="11%" stop-color="#FFF"/>
            <stop offset="29%" stop-color="#F2D4A4"/>
            <stop offset="47%" stop-color="#E5AB4C"/>
            <stop offset="59%" stop-color="#DD9115"/>
            <stop offset="65%" stop-color="#DA8700"/>
            <stop offset="95%" stop-color="#DA8700"/>
            <stop offset="100%" stop-color="#DA8700"/>
        </linearGradient>
        <linearGradient id="s" x1="22.274%" x2="69.676%" y1="21.557%" y2="69.162%">
            <stop offset="0%" stop-color="#009233"/>
            <stop offset="5%" stop-color="#00892F"/>
            <stop offset="18%" stop-color="#007826"/>
            <stop offset="33%" stop-color="#006E22"/>
            <stop offset="51%" stop-color="#006B20"/>
            <stop offset="68%" stop-color="#006E22"/>
            <stop offset="82%" stop-color="#007826"/>
            <stop offset="95%" stop-color="#00892F"/>
            <stop offset="100%" stop-color="#009233"/>
        </linearGradient>
        <linearGradient id="t" x1="36.871%" x2="55.67%" y1="27.069%" y2="71.888%">
            <stop offset="11%" stop-color="#FFF"/>
            <stop offset="29%" stop-color="#A4D2B3"/>
            <stop offset="47%" stop-color="#4CA66B"/>
            <stop offset="59%" stop-color="#158B3D"/>
            <stop offset="65%" stop-color="#00802B"/>
            <stop offset="82%" stop-color="#007D29"/>
            <stop offset="94%" stop-color="#007324"/>
            <stop offset="100%" stop-color="#006B20"/>
        </linearGradient>
        <linearGradient id="u" x1="21.755%" x2="69.627%" y1="21.875%" y2="69.712%">
            <stop offset="0%" stop-color="#0068B6"/>
            <stop offset="9%" stop-color="#005CA3"/>
            <stop offset="21%" stop-color="#005192"/>
            <stop offset="34%" stop-color="#004B88"/>
            <stop offset="51%" stop-color="#004985"/>
            <stop offset="66%" stop-color="#004B88"/>
            <stop offset="79%" stop-color="#005192"/>
            <stop offset="91%" stop-color="#005CA3"/>
            <stop offset="100%" stop-color="#0068B6"/>
        </linearGradient>
        <linearGradient id="v" x1="37.106%" x2="56.111%" y1="18.096%" y2="77.294%">
            <stop offset="11%" stop-color="#FFF"/>
            <stop offset="29%" stop-color="#A4C0D6"/>
            <stop offset="47%" stop-color="#4C83AE"/>
            <stop offset="59%" stop-color="#155D96"/>
            <stop offset="65%" stop-color="#004E8C"/>
            <stop offset="81%" stop-color="#004C89"/>
            <stop offset="93%" stop-color="#00457F"/>
            <stop offset="100%" stop-color="#003F76"/>
        </linearGradient>
    </defs>
    <g fill="none" fill-rule="evenodd">
        <g fill-rule="nonzero">
            <g fill="#231815">
                <path d="M63.515 15.321V.39h2.547a8.893 8.893 0 0 1 2.674.384c.777.239 1.491.65 2.089 1.204a6.687 6.687 0 0 1 1.426 2.151 8.623 8.623 0 0 1 .611 3.483c.011.96-.109 1.916-.356 2.843a7.063 7.063 0 0 1-.943 2.126 6.236 6.236 0 0 1-1.4 1.537 5.77 5.77 0 0 1-1.809.922c-.832.209-1.689.303-2.547.281h-2.292zM64.84 1.568v12.498h.967a5.2 5.2 0 0 0 3.515-.947 6.885 6.885 0 0 0 2.089-5.532 9.244 9.244 0 0 0-.28-2.561 4.518 4.518 0 0 0-.943-1.921 3.872 3.872 0 0 0-1.706-1.255 6.614 6.614 0 0 0-2.547-.41l-1.095.128zM86.259.39h1.298V15.32H86.26zM110.683.979V2.49a5.865 5.865 0 0 0-1.58-.666 5.473 5.473 0 0 0-1.604-.256 4.616 4.616 0 0 0-2.547.717 5.115 5.115 0 0 0-1.833 2.177 7.927 7.927 0 0 0-.663 3.33 8.26 8.26 0 0 0 .713 3.483 4.603 4.603 0 0 0 1.885 2.228 5.452 5.452 0 0 0 2.547.666 4.107 4.107 0 0 0 2.012-.436V8.611h-2.598V7.356h4.075v7.376a6.168 6.168 0 0 1-1.553.615 7.752 7.752 0 0 1-1.885.23 6.109 6.109 0 0 1-2.853-.614 5.533 5.533 0 0 1-1.91-1.563 8.106 8.106 0 0 1-1.146-2.049 9.575 9.575 0 0 1-.636-3.534 8.598 8.598 0 0 1 .509-3.048 7.053 7.053 0 0 1 1.35-2.356 6.6 6.6 0 0 1 1.96-1.51 5.705 5.705 0 0 1 2.548-.59c.488 0 .974.05 1.451.154.597.132 1.184.303 1.758.512zM125.149.39h1.222V15.32h-1.324zM139.284.39h8.353v1.204H144.2V15.32H142.9V1.594h-3.54zM159.021 15.321L164.115.39h1.426l4.916 14.931h-1.401l-1.324-4.098h-5.96l-1.35 4.098h-1.4zm3.082-5.327h5.094l-2.547-8.221-2.547 8.221zM183.089.39h1.324v13.676h4.89v1.255h-6.214zM216.529.39h1.528l2.7 13.369 3.132-13.37h1.758l2.903 13.37 2.98-13.37h1.299l-3.464 14.932h-1.554L224.73 1.798l-3.21 13.523h-1.553zM244.773 7.92a16.532 16.532 0 0 1 .28-3.048 6.732 6.732 0 0 1 .943-2.382 5.105 5.105 0 0 1 1.706-1.588 4.514 4.514 0 0 1 2.343-.615 4.689 4.689 0 0 1 1.885.385c.55.226 1.05.557 1.477.973.42.415.764.9 1.019 1.434.201.399.355.82.458 1.255.259 1.134.387 2.294.382 3.458a15.09 15.09 0 0 1-.28 3.15 6.554 6.554 0 0 1-.942 2.56 5.64 5.64 0 0 1-1.707 1.589 5.068 5.068 0 0 1-4.278.205 4.61 4.61 0 0 1-1.477-1.076 5.305 5.305 0 0 1-.994-1.537 4.421 4.421 0 0 1-.407-1.152 13.75 13.75 0 0 1-.408-3.611zm1.401 0c-.006.964.097 1.927.306 2.868.076.377.187.745.33 1.101.207.43.464.834.765 1.204a3.72 3.72 0 0 0 1.07.82c.425.186.885.282 1.35.281a3.27 3.27 0 0 0 1.63-.41c.52-.317.957-.757 1.273-1.28.39-.62.666-1.305.815-2.023.15-.846.226-1.703.229-2.561.006-.86-.071-1.717-.23-2.562A6.092 6.092 0 0 0 253 3.335a3.934 3.934 0 0 0-1.223-1.28 3.221 3.221 0 0 0-1.68-.487 3.07 3.07 0 0 0-1.63.461c-.535.31-.981.75-1.3 1.28a5.81 5.81 0 0 0-.713 2.1 15.24 15.24 0 0 0-.382 2.51h.102zM268.994.39h1.63l6.265 13.343V.39h1.248V15.32h-1.656l-6.24-13.138V15.32h-1.247zM292.17 15.321V.39h2.547a9.172 9.172 0 0 1 2.7.384 5.494 5.494 0 0 1 2.062 1.204 6.303 6.303 0 0 1 1.426 2.151 8.623 8.623 0 0 1 .612 3.483c.018.959-.094 1.915-.331 2.843a7.088 7.088 0 0 1-.968 2.126 5.736 5.736 0 0 1-3.21 2.561c-.832.21-1.688.304-2.546.282l-2.292-.103zm1.299-13.753v12.498h.993a5.326 5.326 0 0 0 3.54-.947 6.962 6.962 0 0 0 2.063-5.532 9.244 9.244 0 0 0-.28-2.561 4.8 4.8 0 0 0-.917-1.921 4.101 4.101 0 0 0-1.732-1.255 6.614 6.614 0 0 0-2.547-.41l-1.12.128zM313.436 15.321L318.529.39h1.401l4.916 14.931h-1.401l-1.325-4.098h-6.01l-1.375 4.098h-1.3zm3.056-5.327h5.094l-2.547-8.221-2.547 8.221z"/>
            </g>
            <path fill="url(#a)" d="M182.965 60.391c0 10.245-7.131 18.415-15.943 18.415s-15.969-8.247-15.969-18.415c0-10.167 7.157-18.44 15.969-18.44s15.943 8.247 15.943 18.44z" transform="translate(62.853 .236)"/>
            <path fill="url(#b)" d="M174.535 46.766c.968 3.355-4.533 1.767-10.187 3.944-5.654 2.177-9.169 7.274-10.188 3.919-1.018-3.355 2.547-8.529 8.201-10.68s11.206-.41 12.174 2.817z" transform="translate(62.853 .236)"/>
            <path fill="url(#c)" d="M143.642 37.11h-11.868a2.375 2.375 0 0 0-2.369 2.357 2.403 2.403 0 0 0 2.038 2.356c.262.027.527.027.79 0 .338-.038.68-.038 1.018 0a9.395 9.395 0 0 1-.484 2.561c-.433 1.486-1.019 3.407-1.656 5.532a2262.36 2262.36 0 0 0-4.431 14.957l-9.678-23.408-.204-.513a14.513 14.513 0 0 0-.687-1.587 2.547 2.547 0 0 0-2.165-1.486 2.314 2.314 0 0 0-1.987 1.076 8.37 8.37 0 0 0-.942 1.972l-9.067 24.535c-1.91-6.223-5.093-16.416-5.68-19.08l-.254-.999c-.382-1.383-.79-2.92-.891-3.483h.51c.699.032 1.38-.228 1.884-.717a2.311 2.311 0 0 0 .738-1.716 2.35 2.35 0 0 0-2.343-2.356H82.085a2.346 2.346 0 0 0-2.34 1.873 2.36 2.36 0 0 0 1.398 2.66c.439.2.92.288 1.4.256.434.016.862.093 1.274.23 0 0 .535.436 1.375 3.074L96.857 80.29c.178.583.408 1.149.687 1.69a2.317 2.317 0 0 0 2.038 1.358 2.546 2.546 0 0 0 2.14-1.383c.377-.645.717-1.312 1.018-1.998l.229-.486c1.961-4.226 7.131-17.928 9.372-23.844l9.882 23.972c.3.801.658 1.58 1.07 2.33a2.546 2.546 0 0 0 2.165 1.41 2.546 2.546 0 0 0 2.19-1.41c.38-.741.68-1.523.891-2.33 2.7-8.324 8.481-25.868 10.977-32.757v-.359a15.976 15.976 0 0 1 1.961-4.507c.448-.126.91-.186 1.375-.18h.612a2.4 2.4 0 0 0 2.343-2.381 2.376 2.376 0 0 0-2.165-2.305z" transform="translate(62.853 .236)"/>
            <path fill="url(#d)" d="M332.387 79.01H330.631c-.561 0-1.758-.435-3.72-5.121a1178.01 1178.01 0 0 1-7.64-18.8c-2.852-7.222-5.883-14.316-6.57-15.878a7.056 7.056 0 0 0-.892-1.665 2.34 2.34 0 0 0-1.91-1.076c-.848.039-1.622.5-2.063 1.23-.372.64-.696 1.308-.968 1.997l-14.135 35.344c-1.171 2.92-1.91 3.765-3.387 3.97h-1.07a2.364 2.364 0 0 0-2.254 1.107 2.393 2.393 0 0 0 0 2.523 2.364 2.364 0 0 0 2.254 1.108h12.429a2.377 2.377 0 0 0 2.123-2.37c0-1.22-.916-2.242-2.123-2.368h-1.452a9.75 9.75 0 0 1 .713-2.792l2.063-5.634h12.301l3.719 8.656a2.36 2.36 0 0 0-1.331 2.675 2.346 2.346 0 0 0 2.35 1.833h13.218a2.377 2.377 0 0 0 2.123-2.37c0-1.22-.917-2.242-2.123-2.368h.101zm-20.221-14.444h-7.64l3.921-10.757 3.719 10.757z" transform="translate(62.853 .236)"/>
            <path fill="url(#e)" d="M238.944 37.136H227.79a2.375 2.375 0 0 0-2.368 2.382 2.375 2.375 0 0 0 2.368 2.382h.637l.433.205c.267.068.48.272.56.538.258.968.37 1.97.331 2.97l.459 20.925-1.452-1.537c-2.547-2.766-5.934-6.249-8.048-8.374-8.38-8.375-16.886-17.595-17.013-17.698l-.56-.64a3.792 3.792 0 0 0-2.547-1.588 2.167 2.167 0 0 0-2.114 1.64 5.87 5.87 0 0 0-.255 1.843l-.662 32.885a30.904 30.904 0 0 1-.28 4.687 2.88 2.88 0 0 1-.204.589l-.382.154h-1.12a2.364 2.364 0 0 0-2.255 1.107 2.393 2.393 0 0 0 0 2.523 2.364 2.364 0 0 0 2.255 1.108h11.919c.9.094 1.775-.336 2.254-1.108.48-.772.48-1.75 0-2.523a2.364 2.364 0 0 0-2.254-1.107h-.866l-.51-.257s-.712-.537-.814-4.61l-.357-19.234a313.325 313.325 0 0 0 10.391 10.988c2.292 2.253 4.763 4.763 7.131 7.17 3.617 3.638 7.004 7.07 9.092 9.067a4.272 4.272 0 0 0 2.827 1.537 2.19 2.19 0 0 0 2.012-1.409c.205-.61.3-1.252.28-1.895l.612-34.857a7.724 7.724 0 0 1 .33-2.715c0-.256.128-.307.485-.41h.738a2.375 2.375 0 0 0 2.369-2.381 2.375 2.375 0 0 0-2.369-2.382l.102.025z" transform="translate(62.853 .236)"/>
            <path fill="url(#f)" d="M285.093 44.436c-6.953-7.248-20.655-7.274-25.825-7.3h-12.887a2.375 2.375 0 0 0-2.369 2.382 2.375 2.375 0 0 0 2.369 2.382h.51c.285-.057.58-.057.865 0h.331v.307c-.024.427-.024.854 0 1.281v21.309c0 4.814 0 9.322-.254 11.576a6.434 6.434 0 0 1-.331 1.537l-.459.153h-.153a1.09 1.09 0 0 0-.433 0 2.375 2.375 0 0 0-2.368 2.382 2.35 2.35 0 0 0 2.343 2.356h19.585c10.824-.307 16.529-4.968 18.465-6.992a23.609 23.609 0 0 0 6.469-16.544 21.425 21.425 0 0 0-5.858-14.83zm-26.462 30.58c0-.871 0-1.87-.153-2.562-.152-.691-.127-5.122-.127-11.09v-6.966V43.13a24.02 24.02 0 0 1 2.547-.205h.127a21.251 21.251 0 0 1 14.466 5.66 17.111 17.111 0 0 1 4.763 12.627c0 6.07-1.324 10.244-4.05 12.498a16.32 16.32 0 0 1-11.562 4.124h-1.936c-3.081 0-3.387-.59-3.667-1.102l-.204-.333a6.67 6.67 0 0 1-.127-1.383h-.077z" transform="translate(62.853 .236)"/>
            <path fill="url(#g)" d="M167.226 35.856c-13.178.698-23.369 11.886-22.907 25.148.462 13.262 11.405 23.706 24.6 23.476 13.193-.23 23.77-11.05 23.775-24.32-.403-13.763-11.779-24.62-25.468-24.304zm15.815 24.28c0 10.065-7.13 18.26-15.866 18.286-8.736.025-15.893-8.221-15.893-18.287 0-10.065 7.132-18.286 15.893-18.312 8.76-.025 15.866 8.221 15.866 18.312z" transform="translate(62.853 .236)"/>
        </g>
        <g stroke="#FFF" stroke-linecap="round" stroke-linejoin="round" stroke-width="1.796" transform="translate(207.854 52.133)">
            <ellipse cx="7.55" cy="7.647" rx="4.213" ry="4.112"/>
            <path d="M4.423 12.541c4.027-.27 7.093-3.633 6.901-7.568H4.061V9.06H.727V1.92H14.89v1.943c0 7.568-4.42 11.251-10.339 11.705l-.129-3.027zM23.834 5.906c-1.68-.252-5.35-.731-7.315-.807v-3.23a66.15 66.15 0 0 1 7.315.758v3.28zm-7.004 6.282c6.074-.378 9.46-1.892 9.77-8.022h3.618c-.31 8.022-4.859 11.175-13.388 11.276v-3.254zM45.933 2.702c0 7.039-2.817 12.614-12.458 12.866v-3.027a9.85 9.85 0 0 0 6.59-2.523 89.088 89.088 0 0 0-5.556-.656V7.597a8.916 8.916 0 0 1-2.947 1.69v-3.33a7.174 7.174 0 0 0 3.05-4.163h7.935V.634h1.965v1.16h.62V.634h1.938v2.068h-1.137zm-9.072 2.17c-.343.598-.74 1.163-1.19 1.69 1.965.152 4.11.404 6.05.732.261-.822.443-1.667.542-2.523l-5.402.101z"/>
            <path d="M4.423 12.541c4.027-.27 7.093-3.633 6.901-7.568H4.061V9.06H.727V1.92H14.89v1.943c0 7.568-4.42 11.251-10.339 11.705l-.129-3.027zM23.834 5.906c-1.68-.252-5.35-.731-7.315-.807v-3.23a66.15 66.15 0 0 1 7.315.758v3.28zm-7.004 6.282c6.074-.378 9.46-1.892 9.77-8.022h3.618c-.31 8.022-4.859 11.175-13.388 11.276v-3.254zM45.933 2.702c0 7.039-2.817 12.614-12.458 12.866v-3.027a9.85 9.85 0 0 0 6.59-2.523 89.088 89.088 0 0 0-5.556-.656V7.597a8.916 8.916 0 0 1-2.947 1.69v-3.33a7.174 7.174 0 0 0 3.05-4.163h7.935V.634h1.965v1.16h.62V.634h1.938v2.068h-1.137zm-9.072 2.17c-.343.598-.74 1.163-1.19 1.69 1.965.152 4.11.404 6.05.732.261-.822.443-1.667.542-2.523l-5.402.101z"/>
            <path d="M4.423 12.541c4.027-.27 7.093-3.633 6.901-7.568H4.061V9.06H.727V1.92H14.89v1.943c0 7.568-4.42 11.251-10.339 11.705l-.129-3.027zM23.834 5.906c-1.68-.252-5.35-.731-7.315-.807v-3.23a66.15 66.15 0 0 1 7.315.758v3.28zm-7.004 6.282c6.074-.378 9.46-1.892 9.77-8.022h3.618c-.31 8.022-4.859 11.175-13.388 11.276v-3.254zM45.933 2.702c0 7.039-2.817 12.614-12.458 12.866v-3.027a9.85 9.85 0 0 0 6.59-2.523 89.088 89.088 0 0 0-5.556-.656V7.597a8.916 8.916 0 0 1-2.947 1.69v-3.33a7.174 7.174 0 0 0 3.05-4.163h7.935V.634h1.965v1.16h.62V.634h1.938v2.068h-1.137zm-9.072 2.17c-.343.598-.74 1.163-1.19 1.69 1.965.152 4.11.404 6.05.732.261-.822.443-1.667.542-2.523l-5.402.101z"/>
        </g>
        <g fill-rule="nonzero" transform="translate(207.854 52.133)">
            <ellipse cx="7.55" cy="7.647" fill="#FFF" rx="4.213" ry="4.112"/>
            <path fill="url(#h)" d="M4.423 12.541c4.027-.27 7.093-3.633 6.901-7.568H4.061V9.06H.727V1.92H14.89v1.943c0 7.568-4.42 11.251-10.339 11.705l-.129-3.027z"/>
            <path fill="url(#i)" d="M23.834 5.906c-1.68-.252-5.35-.731-7.315-.807v-3.23a66.15 66.15 0 0 1 7.315.758v3.28zm-7.004 6.282c6.074-.378 9.46-1.892 9.77-8.022h3.618c-.31 8.022-4.859 11.175-13.388 11.276v-3.254z"/>
            <path fill="url(#j)" d="M45.933 2.702c0 7.039-2.817 12.614-12.458 12.866v-3.027a9.85 9.85 0 0 0 6.59-2.523 89.088 89.088 0 0 0-5.556-.656V7.597a8.916 8.916 0 0 1-2.947 1.69v-3.33a7.174 7.174 0 0 0 3.05-4.163h7.935V.634h1.965v1.16h.62V.634h1.938v2.068h-1.137zm-9.072 2.17c-.343.598-.74 1.163-1.19 1.69 1.965.152 4.11.404 6.05.732.261-.822.443-1.667.542-2.523l-5.402.101z"/>
        </g>
        <g fill-rule="nonzero">
            <path fill="url(#k)" d="M22.982 17.808C21.118 29.383 12.13 32.845 3.09 33.31v-7.39c6.74-.464 10.213-3.513 11.235-8.163H0v-7.054H32.94v7.105h-9.958zM2.018 7.913V.705h29.288v7.208H2.018z" transform="translate(.3 47.684)"/>
            <path fill="url(#l)" d="M54.414 19.462c-5.592-.594-12.435-1.085-17.312-1.24v-7.209c5.107.156 12.256.698 17.312 1.189v7.26zm.46-10.541c-5.286-.569-12.767-1.111-17.312-1.266V.369c4.851.155 11.745.594 17.312 1.163V8.92zM37.817 25.197c15.014-.18 22.138-4.728 23.21-19.557h8.171c-1.123 20.668-13.2 27.257-31.381 27.257v-7.7z" transform="translate(.3 47.684)"/>
            <path fill="url(#m)" d="M76.041 26.05c6.869-.49 11.771-2.351 15.09-5.787-4.748-.775-8.63-1.24-12.766-1.576v-4.16a21.06 21.06 0 0 1-6.665 3.927v-8.009A17.176 17.176 0 0 0 78.671.55h25.866v.775c0 17.362-5.873 31.003-28.496 31.882V26.05zm7.66-18.214a25.285 25.285 0 0 1-2.706 4.03c4.443.362 9.422.956 13.788 1.757a29.568 29.568 0 0 0 1.277-5.787H83.7z" transform="translate(.3 47.684)"/>
            <path fill="url(#n)" d="M105.967 25.197c2.86-2.376 4.188-6.097 4.188-13.951V.369h7.66v10.334c0 14.03-4.315 19.74-11.746 23.253l-.102-8.759zM120.292.395h7.66V23.31c3.575-1.188 4.826-8.086 4.826-12.427h7.66c0 14.133-6.639 22.348-19.993 22.348L120.292.395z" transform="translate(.3 47.684)"/>
        </g>
        <g stroke="#FFF" stroke-width="1.079">
            <path d="M37.582 44.611c0 3.112-2.424 5.635-5.415 5.635-2.99 0-5.414-2.523-5.414-5.635 0-3.112 2.424-5.634 5.414-5.634 2.99 0 5.415 2.522 5.415 5.634z"/>
            <path d="M34.732 40.46c.311 1.024-1.554.539-3.445 1.186-1.891.647-3.109 2.237-3.42 1.213-.31-1.025.855-2.696 2.772-3.262 1.917-.566 3.756-.162 4.093.862zM27.22 49.76c.125 1.687-.668 3.305-2.055 4.188a4.183 4.183 0 0 1-4.518 0c-1.386-.883-2.18-2.501-2.054-4.188.175-2.344 2.054-4.154 4.313-4.154 2.26 0 4.139 1.81 4.314 4.154z"/>
            <path d="M24.862 46.444c.26.81-1.243.432-2.746.97-1.502.54-2.59 1.753-2.746.944-.155-.808.7-2.075 2.202-2.695 1.503-.62 3.083-.027 3.29.781z"/>
        </g>
        <g fill-rule="nonzero">
            <path fill="url(#o)" d="M19.117 5.823c0 3.112-2.424 5.635-5.414 5.635-2.99 0-5.414-2.523-5.414-5.635 0-3.112 2.424-5.634 5.414-5.634 2.99 0 5.414 2.522 5.414 5.634z" transform="translate(18.464 38.788)"/>
            <path fill="url(#p)" d="M16.268 1.671c.31 1.025-1.555.54-3.446 1.187-1.89.647-3.108 2.237-3.42 1.213-.31-1.025.856-2.696 2.773-3.262 1.917-.566 3.756-.162 4.093.862z" transform="translate(18.464 38.788)"/>
            <path fill="url(#q)" d="M8.755 10.972c.126 1.687-.668 3.305-2.054 4.188a4.183 4.183 0 0 1-4.518 0c-1.387-.883-2.18-2.5-2.054-4.188.174-2.344 2.053-4.154 4.313-4.154s4.138 1.81 4.313 4.154z" transform="translate(18.464 38.788)"/>
            <path fill="url(#r)" d="M6.398 7.656c.259.81-1.244.432-2.746.971-1.503.54-2.59 1.752-2.746.944-.156-.81.7-2.076 2.202-2.696 1.502-.62 3.082-.027 3.29.781z" transform="translate(18.464 38.788)"/>
        </g>
        <path fill="url(#s)" fill-rule="nonzero" d="M64.332 48.404a3.707 3.707 0 0 1-2.273 3.442 3.693 3.693 0 0 1-4.041-.8 3.713 3.713 0 0 1-.798-4.049 3.699 3.699 0 0 1 3.435-2.278 3.68 3.68 0 0 1 3.677 3.685z"/>
        <path fill="url(#t)" fill-rule="nonzero" d="M61.35 45.675c.207.744-.976.397-2.201.893s-2.076 1.612-2.2.868c-.125-.744.56-1.91 1.785-2.48 1.224-.57 2.408-.025 2.615.72z"/>
        <path fill="url(#u)" fill-rule="nonzero" d="M76.169 43.265c-.016 3.272-2.672 5.913-5.937 5.902-3.265-.01-5.905-2.668-5.9-5.94.005-3.272 2.654-5.922 5.918-5.922 1.575 0 3.085.629 4.196 1.747a5.938 5.938 0 0 1 1.723 4.213z"/>
        <path fill="url(#v)" fill-rule="nonzero" d="M70.217 40.08c.286 1.183-1.3.623-2.908 1.37-1.608.746-2.643 2.582-2.93 1.4-.286-1.183.75-3.112 2.358-3.765 1.608-.654 3.215-.187 3.48.995z"/>
    </g>
</svg>
