<svg xmlns="http://www.w3.org/2000/svg" width="65" height="70" viewBox="0 0 65 70">
    <g fill="none" fill-rule="nonzero">
        <path fill="#FFD7A3" d="M55.366 62.321l-.23-.787a.794.794 0 0 0-.862-.564l-.803-6.022a6.021 6.021 0 0 0-3.276-4.59l-2.594-1.297a.761.761 0 0 0-1.027.364l-5.185-1.908a2.408 2.408 0 0 1-1.647-2.285v-3.884l5.188-2.162a7.225 7.225 0 0 0 4.446-6.67v-1.204a3.613 3.613 0 1 0 0-7.226v-2.409c0-3.325-2.696-8.43-6.021-8.43H21.677c-3.325 0-6.021 5.105-6.021 8.43v2.409a3.613 3.613 0 1 0 0 7.226v1.204a7.226 7.226 0 0 0 4.446 6.67l5.188 2.162v3.884a2.409 2.409 0 0 1-1.647 2.285l-5.083 1.87a.756.756 0 0 0-1.005-.328l-2.365 1.183c-2.019 1.01-3.245 2.728-3.508 4.706l-.803 6.022a.794.794 0 0 0-.863.565l-.23.786a.795.795 0 0 0 .54.986l1.717.5v3.634a2.409 2.409 0 0 0 2.409 2.409H50.58a2.409 2.409 0 0 0 2.408-2.409v-3.599l1.837-.535a.795.795 0 0 0 .54-.986z"/>
        <path fill="#FDC88E" d="M39.742 41.247H25.29v3.985c0 .857-.454 1.633-1.167 2.062 10.075 1.74 15.619-6.047 15.619-6.047z"/>
        <path fill="#FFB5DC" d="M54.433 62.162l-.962-7.214a6.021 6.021 0 0 0-3.276-4.59l-2.594-1.297c-.44-.22-.952.032-1.081.506-1.67 6.136-7.279 10.649-13.944 10.649-6.667 0-12.277-4.515-13.945-10.654-.128-.471-.639-.722-1.076-.503l-2.365 1.183c-2.019 1.009-3.245 2.728-3.508 4.706l-.98 7.351c3.18 1.096 8.627 2.733 8.627 2.733v4.817h26.495v-4.817l8.61-2.87z"/>
        <path fill="#FA9CCE" d="M19.3 64.664a7.212 7.212 0 0 0-1.416-3.967l-5.654-7.538a5.868 5.868 0 0 0-.549 1.789l-.954 7.16 8.572 2.556z"/>
        <path fill="#FB86C4" d="M9.787 62.321a.795.795 0 0 0 .54.986l9.002 2.626v-.9c0-.57-.09-1.127-.22-1.674l-8.107-2.365a.794.794 0 0 0-.986.54l-.23.787z"/>
        <path fill="#FA9CCE" d="M45.853 64.664a7.212 7.212 0 0 1 1.416-3.967l5.654-7.538c.272.562.464 1.16.548 1.789l.955 7.16-8.573 2.556z"/>
        <path fill="#FB86C4" d="M55.366 62.321a.795.795 0 0 1-.54.986l-9.002 2.626v-.9c0-.57.09-1.127.22-1.674l8.107-2.365a.794.794 0 0 1 .985.54l.23.787z"/>
        <path fill="#9D6E48" d="M13.247 21.677c-3.613 0-10.838 1.355-10.838 12.043C2.409 44.41 0 57.806 0 57.806s12.043-1.275 12.043-15.655c0-13.398 2.409-15.656 2.409-15.656l-1.205-4.818z"/>
        <path fill="#8D5F3D" d="M12.043 42.15c0-13.397 2.409-15.655 2.409-15.655l-2.409-3.613c-1.392.188-6.722.226-6.021 9.634.702 9.434 4.215 18.968-6.022 25.29 0 0 12.043-1.275 12.043-15.655z"/>
        <path fill="#FA9CCE" d="M14.674 25.397l-1.498-4.13a1.204 1.204 0 0 0-2.265.822l1.499 4.13a1.204 1.204 0 0 0 2.264-.822z"/>
        <path fill="#9D6E48" d="M51.785 21.677c3.613 0 10.839 1.355 10.839 12.043 0 10.689 2.408 24.086 2.408 24.086S52.99 56.531 52.99 42.151c0-13.398-2.408-15.656-2.408-15.656l1.204-4.818z"/>
        <path fill="#8D5F3D" d="M52.99 42.15c0-13.397-2.41-15.655-2.41-15.655l2.41-3.613c1.392.188 6.721.226 6.02 9.634-.702 9.434-4.214 18.968 6.022 25.29 0 0-12.043-1.275-12.043-15.655z"/>
        <path fill="#FA9CCE" d="M50.359 25.397l1.498-4.13a1.204 1.204 0 0 1 2.264.822l-1.498 4.13a1.204 1.204 0 0 1-2.264-.822z"/>
        <path fill="#FFE1B2" d="M49.376 24.086v-2.409c0-3.325-2.696-8.43-6.021-8.43H21.677c-3.325 0-6.021 5.105-6.021 8.43v2.408a3.613 3.613 0 1 0 0 7.226v1.205a7.226 7.226 0 0 0 4.446 6.67l7.782 3.242a12.044 12.044 0 0 0 9.264 0l7.782-3.242a7.225 7.225 0 0 0 4.446-6.67v-1.204a3.613 3.613 0 1 0 0-7.226z"/>
        <path fill="#623F33" d="M24.086 28.903a1.208 1.208 0 0 1-1.204-1.204v-1.204c0-.663.542-1.205 1.204-1.205.662 0 1.204.542 1.204 1.205v1.204c0 .662-.542 1.204-1.204 1.204zM40.946 28.903a1.208 1.208 0 0 1-1.204-1.204v-1.204c0-.663.542-1.205 1.204-1.205.663 0 1.205.542 1.205 1.205v1.204c0 .662-.542 1.204-1.205 1.204z"/>
        <path fill="#E4B07B" d="M32.516 37.366c-2.141 0-4.144-.527-5.494-1.446a1.204 1.204 0 1 1 1.354-1.99c.947.643 2.495 1.028 4.14 1.028 1.646 0 3.193-.385 4.14-1.029a1.203 1.203 0 1 1 1.355 1.991c-1.35.92-3.354 1.446-5.495 1.446z"/>
        <path fill="#FFD7A3" d="M31.47 13.096c-.209 6.51-15.814 10.99-15.814 10.99a3.613 3.613 0 1 0 0 7.226v1.204a7.226 7.226 0 0 0 4.446 6.67l7.782 3.242c.38.16.77.296 1.163.414-3.439-2.515-5.728-4.715-7.07-6.153a5.645 5.645 0 0 1-1.504-3.857v-6.73c3.447-1.204 13.124-5.156 13.247-11.65.01-.492.003-.943-.018-1.356H31.47z"/>
        <path fill="#9D6E48" d="M38.538 0c-3.914 0-6.022 1.204-6.022 1.204S30.41 0 26.495 0C22.58 0 7.728 7.535 13.247 24.998c0 0 19.27-3.421 19.27-11.75 0 8.329 19.268 11.75 19.268 11.75C57.305 7.535 42.452 0 38.538 0z"/>
        <path fill="#8D5F3D" d="M32.516 1.205S30.41 0 26.495 0C22.58 0 7.728 7.535 13.247 24.998c0 0 2.333-.416 5.373-1.306C15.218 8.034 28.782 1.217 32.516 1.205z"/>
        <circle cx="32.516" cy="67.441" r="1.204" fill="#FF8C51"/>
        <circle cx="22.882" cy="67.441" r="1.204" fill="#FF8C51"/>
        <circle cx="42.151" cy="67.441" r="1.204" fill="#FF8C51"/>
        <circle cx="37.333" cy="67.441" r="1.204" fill="#FFC84A"/>
        <circle cx="27.699" cy="67.441" r="1.204" fill="#FFC84A"/>
        <circle cx="34.925" cy="63.828" r="1.204" fill="#FFC84A"/>
        <circle cx="25.29" cy="63.828" r="1.204" fill="#FFC84A"/>
        <circle cx="44.559" cy="63.828" r="1.204" fill="#FFC84A"/>
        <circle cx="20.473" cy="63.828" r="1.204" fill="#FF8C51"/>
        <circle cx="39.742" cy="63.828" r="1.204" fill="#FF8C51"/>
        <circle cx="30.108" cy="63.828" r="1.204" fill="#FF8C51"/>
    </g>
</svg>
