<svg xmlns="http://www.w3.org/2000/svg" xmlns:xlink="http://www.w3.org/1999/xlink" width="160" height="160" viewBox="0 0 160 160">
    <defs>
        <path id="a" d="M0 160h160V0H0z"/>
    </defs>
    <g fill="none" fill-rule="evenodd">
        <path fill="#78107D" d="M160 80c0 44.183-35.817 80-80 80S0 124.183 0 80 35.817 0 80 0s80 35.817 80 80"/>
        <path fill="#FFF" d="M53.858 29.658c0-1.306-.023-1.834-.16-2.658h3.724c-.114.71-.159 1.306-.159 2.59v2.223l8.105-.94c1.021-.115 1.202-.16 1.68-.39L69 32.295c-.295.367-.34.436-.682 1.169a19.577 19.577 0 0 1-2.429 3.965c-.816 1.008-1.565 1.719-3.2 3.002-1.09-1.191-1.498-1.513-2.724-2.246a12.094 12.094 0 0 0 2.587-1.925c.773-.734 1.181-1.26 1.772-2.315l-7.084.917v5.02c.023 1.49.023 1.49.091 1.855.09.55.386.826 1.022.94.522.092 1.226.138 1.998.138 1.066 0 2.814-.114 4.018-.275 1.248-.183 1.93-.32 3.042-.665l.136 3.644c-.5 0-.5 0-2.52.207-1.862.183-3.473.275-4.722.275-1.884 0-3.337-.138-4.177-.413-.954-.298-1.77-1.146-2.043-2.132-.205-.733-.227-1.1-.227-3.093v-5.134l-1.543.206c-1.908.23-1.998.252-2.975.48L49 32.547c.295.023.545.023.68.023.455 0 1.227-.069 2.294-.183l1.884-.207v-2.52zM74.489 27c4.814.532 7.488 1.042 12.976 2.477l-1.07 3.333c-4.209-1.32-8.883-2.269-13.139-2.662L74.489 27zm-.326 6.435c3.744.417 7.674 1.25 12.418 2.662l-1.023 3.356c-1.86-.74-3.488-1.203-6.558-1.898-1.976-.439-3.512-.694-6.07-.995l1.233-3.125zm-1.86 6.505c5.674.67 10.14 1.69 15.697 3.542L86.86 47c-2.558-1.088-4.767-1.76-8.418-2.592-2.884-.649-4.814-.973-7.442-1.297l1.303-3.17zM96.109 27.648c.161.833.161.833.76 2.729.162.486.23.763.484 1.596 2.03-.555 2.79-.74 3.78-.925-.022-.486-.022-.486-.022-1.735-.023-1.41-.047-1.712-.162-2.313h3.481c-.115.694-.115.694-.139 3.632.508-.047.808-.047 1.2-.047 3.32 0 5.509 1.966 5.509 4.95 0 3.33-2.628 5.666-6.408 5.666-1.107 0-2.282-.185-3.504-.555-.07-1.62-.139-2.15-.485-3.33 1.406.555 2.444.785 3.55.785 2.052 0 3.389-.97 3.389-2.451 0-1.342-1.014-2.082-2.858-2.082-1.499 0-2.928.302-6.5 1.319l.46 1.665c.968 3.539 1.222 4.533 2.398 9.413.137.51.184.694.391 1.18L97.77 48c-.07-1.087-.438-3.029-1.222-6.383-.37-1.619-.67-2.729-1.199-4.625-.139-.51-.254-.925-.323-1.203-2.028.694-3.273 1.18-3.988 1.526L90 34.1c.484-.092.76-.162 1.107-.254 1.567-.509 2.88-.926 3.089-.971-.623-2.197-1.084-3.446-1.522-4.279l3.435-.948zM30.506 74.668c-1.707 0-2.283.022-3.506.112v-3.463c1.176.155 1.637.177 3.575.177h9.734v-9.166h-9.411c-1.937 0-2.653.023-3.575.112V59c.945.133 1.73.178 3.622.178H41.07c1.245 0 2.26-.022 2.882-.067-.068 1.464-.068 1.464-.068 2.42v11.185c0 2.175 0 2.374.115 3.284h-3.69v-1.332h-9.804zM59.937 68.2c0-.205 0-.868.045-1.943a21.352 21.352 0 0 1-3.108 3.886c-1.937 1.92-3.581 3.131-6.622 4.891-.675-1.28-1.058-1.76-2.252-2.88 2.68-1.234 4.797-2.697 6.847-4.73 1.261-1.235 2.163-2.332 2.906-3.567l-5.294.023c-1.689 0-2.207.023-3.175.114v-3.313c1.126.136 1.599.159 3.243.159l7.32-.023-.022-1.211c-.023-1.806-.023-1.806-.113-2.606h3.536a22.919 22.919 0 0 0-.068 1.715v.868l.023 1.257h1.622c2.004 0 2.32-.023 3.175-.16v3.314a36.57 36.57 0 0 0-3.108-.114h-1.666l.112 9.943c.022 1.714.068 2.445.158 3.177h-3.65c.091-.663.136-1.417.136-2.651v-.503l-.045-5.325v-.32z"/>
        <mask id="b" fill="#fff">
            <use xlink:href="#a"/>
        </mask>
        <path fill="#FFF" d="M74.41 71.48h10.16v-9.4H74.41v9.4zm.022 2.99V76H71c.067-.865.112-1.796.112-3.125v-10.95c0-1.573 0-1.839-.09-2.925.914.089 1.27.089 3.21.089h10.404c1.871 0 2.428-.023 3.342-.089-.066.775-.09 1.75-.09 3.036v10.706c0 1.596.024 2.46.112 3.236h-3.43v-1.507H74.431zM109.455 55c.64.894 1.17 1.856 1.545 2.888l-1.942.779a15.573 15.573 0 0 0-1.522-3.025l1.92-.642zm-2.758.756c.728 1.077 1.125 1.833 1.522 2.91l-2.03.711c-.396-1.146-.75-1.856-1.456-2.956l1.964-.665zm-8.496 3.805c-.331-1.903-.331-1.903-.596-2.66l3.465-.548c.022.71.11 1.374.33 2.611l.266 1.353 3.884-.62c1.434-.229 1.941-.343 2.802-.618l.53 3.3c-.971.092-.971.092-2.78.39l-3.885.618.596 3.346 4.413-.71c1.457-.253 2.053-.39 2.958-.688l.551 3.3c-.772.07-.772.07-2.89.413l-4.48.733.618 3.415c.309 1.788.419 2.269.706 3.186l-3.575.618c-.022-.642-.155-1.741-.42-3.208l-.617-3.484-4.767.757c-1.368.23-1.876.344-2.78.595L92 68.338c.905-.023 1.456-.092 2.913-.322l4.634-.756-.574-3.345-3.442.55c-1.545.252-1.787.298-3.001.595l-.507-3.322c.97-.046 1.367-.092 2.978-.344l3.442-.55-.242-1.283zM119.966 62.128c-1.737 1.31-2.812 3.462-2.812 5.681 0 1.666.732 3.02 1.624 3.02.663 0 1.37-.866 2.102-2.664.846-1.975 1.554-4.772 1.83-7.147-1.098.133-1.852.444-2.744 1.11m3.634 8.035c-1.28 2.819-2.788 4.128-4.754 4.128-2.834 0-4.846-2.685-4.846-6.503 0-2.53.892-4.839 2.56-6.592 1.966-2.086 4.778-3.196 8.046-3.196 5.737 0 9.394 3.329 9.394 8.523 0 4.04-2.08 7.168-5.737 8.567-1.097.421-2.012.644-3.634.91-.48-1.398-.8-1.998-1.692-3.152 2.035-.156 3.452-.51 4.526-1.065 1.966-1.043 3.154-3.108 3.154-5.46 0-1.975-.89-3.64-2.445-4.638-.663-.422-1.212-.6-2.126-.71-.457 3.661-1.258 6.613-2.446 9.188M52.504 101c.443 1.053.465 1.165.842 2.575l-1.485.493c-.199-1.03-.398-1.724-.775-2.665l1.418-.403zm-5.094-7.859h5.316v-.806H47.41v.806zm0-2.485h5.316v-.783H47.41v.783zm-.975 15.673c.023-.672.023-.918.023-1.456 0-1.365-.045-2.015-.2-3.2l1.817-.225c.243 1.522.376 2.732.42 4.41l-2.06.47zm1.44-18.449c.42-.739.643-1.253.82-1.88l2.99.38c-.244.448-.62 1.142-.842 1.5h2.28c.953 0 1.596-.022 2.305-.09a20.24 20.24 0 0 0-.067 1.814v3.717c0 .806.022 1.343.067 1.835-.643-.044-.754-.044-1.861-.044H47.41v.694h7.397c1.108 0 1.573-.023 2.193-.09v2.217c-.576-.067-1.219-.09-2.215-.09H47.41v.762h7.486c.73 0 1.24-.023 1.816-.068-.023.448-.023.47-.044.941-.022.112-.022.38-.045.761-.11 3.045-.442 5.038-.907 5.732a2.498 2.498 0 0 1-1.241.85c-.354.112-1.152.179-2.281.179-.244 0-.665 0-1.351-.022a8.196 8.196 0 0 0-.443-2.171l-1.064.268c-.11-1.41-.243-2.105-.62-3.493l1.64-.313c.376 1.141.53 1.814.753 3.202.553.045 1.085.09 1.35.09.643 0 .909-.09 1.041-.337.178-.29.31-1.523.377-3.425h-7.154c-.952 0-1.506.022-1.994.044.045-.56.067-1.052.067-1.634v-9.627c0-.716-.022-1.254-.088-1.791.753.067 1.284.09 2.28.09h.887zm-8.217 12.046h1.529v-9.448h-1.529v9.448zm1.528 3.694v-1.12h-1.528v2.172H37c.089-.716.111-1.433.111-2.91V90.364c0-1.141-.022-1.589-.088-2.53.642.068 1.062.09 2.104.09h2.635c.798 0 1.263-.022 1.97-.09-.043.628-.043 1.076-.043 2.44v12.113c.133-.492.2-.739.354-1.5l1.994.873c-.399 2.15-.754 3.314-1.64 5.195l-2.104-1.433c.533-.873.71-1.21.997-1.903h-2.104zM61.156 88.988c.69.067 1.446.09 2.38.09 1.291 0 3.361-.09 4.251-.202-.067-.18-.067-.18-.29-.719-.044-.068-.133-.292-.289-.675-.222-.561-.289-.718-.467-1.032l3.315-.45c.09.606.267 1.19.801 2.539 2.226-.314 4.496-.787 6.009-1.303l.267 2.809c-2.626.562-4.584.966-5.296 1.056.31.72.333.764.69 1.505 2.692-.494 4.005-.809 5.207-1.258L78 94.225c-.29.044-1.179.224-2.692.561-1.023.202-1.112.225-1.558.315 1.113 1.888 1.402 2.292 2.937 4.134l-2.603 1.551c-1.446-.696-2.848-.966-4.895-.966-2.781 0-4.295.629-4.295 1.752 0 .653.512 1.08 1.514 1.327.533.112 1.534.202 2.292.202 2.335 0 5.473-.652 6.986-1.438l.467 3.258c-.6.112-.645.112-1.512.337a25.14 25.14 0 0 1-6.075.742c-3.138 0-5.318-.675-6.365-2a3.852 3.852 0 0 1-.845-2.405c0-1.483 1.001-2.877 2.559-3.55 1.246-.562 2.648-.809 4.54-.809 1.379 0 2.514.112 3.604.359-.133-.157-.178-.202-.445-.584-.267-.382-.29-.427-.645-1.011-.156-.27-.156-.27-.29-.472-2.046.292-4.227.426-8.589.562-.4.022-.578.022-.979.067L61 93.281c.623.089.98.112 2.137.112 2.336 0 4.182-.112 6.363-.405a10.94 10.94 0 0 1-.356-.718c-.2-.45-.244-.518-.355-.787-2.293.224-3.027.247-6.588.292-.333 0-.51 0-.89.022l-.155-2.809zM92.275 98.721H96.3v-1.63h-4.025v1.63zm-2.9 0v-1.63h-3.822c0 .737 0 1.026-.045 1.63h3.867zm-.179-10.958c0-.87-.045-1.25-.135-1.763h3.26c-.09.469-.113.87-.113 1.763h6.003c1.26 0 2.182-.044 2.789-.134v2.678c-.765-.09-1.484-.111-2.699-.111h-6.093v1.137h5.217c1.169 0 1.844-.022 2.36-.111v2.59c-.742-.068-1.416-.09-2.428-.09h-12.95c-1.012 0-1.597.022-2.361.09v-2.59c.494.09 1.192.111 2.338.111h4.812v-1.137h-5.554c-1.236 0-2.046.045-2.72.111v-2.678c.606.09 1.528.134 2.788.134h5.486zm-3.913 13.457c-.427 2.544-1.146 4.084-2.72 5.78A14.006 14.006 0 0 0 80 104.835c1.91-1.63 2.63-3.86 2.63-8.078 0-1.094-.022-1.518-.09-2.187.698.067 1.057.089 2.384.089h11.961c1.416 0 1.776-.022 2.428-.09-.067.626-.09 1.139-.09 2.165v3.214c0 1.138.023 1.719.112 2.432h-3.057v-1.16H85.283zM104.248 94.624c1.059.409 1.87.568 3.942.842.158-1.343.158-1.343.384-2.777-1.082-.113-1.487-.182-3.177-.546a9.596 9.596 0 0 0-.788-.136l.248-3.004c1.036.388 2.184.615 4.077.797.27-1.752.383-2.776.383-3.527V86l3.559.319c-.247.728-.315 1.046-.698 3.594 2.298-.045 3.672-.18 5.023-.522l-.112 3.185c-.338.022-.338.022-1.645.136-1.442.114-1.757.137-3.402.137h-.337c-.158 1.092-.226 1.547-.383 2.799.36.022.63.022.788.022 1.78 0 3.267-.159 4.484-.5l-.068 3.117c-.248 0-.293.023-.721.068-.946.136-2.388.228-3.469.228-.248 0-.428 0-1.217-.023-.045.432-.067.933-.067 1.365 0 1.001.247 1.661.766 2.139.607.523 1.464.796 2.635.796 2.68 0 4.213-1.184 4.213-3.253 0-1.252-.676-2.571-1.96-3.823 1.487-.09 2.05-.205 3.334-.66 1.397 1.752 1.96 3.186 1.96 4.983 0 1.638-.834 3.276-2.23 4.323-1.352 1.046-3.109 1.57-5.227 1.57-1.69 0-3.244-.364-4.28-1.024-1.645-1.024-2.41-2.548-2.41-4.846 0-.569 0-.796.067-1.775a32.715 32.715 0 0 1-3.041-.5c-.248-.046-.473-.092-.879-.137l.248-3.094zM55.32 124.8h1.17v-2.145h-1.17v2.145zm-3.188 0h1.17v-2.145h-1.17v2.145zm-3.235 0h1.238v-2.145h-1.238v2.145zm-3.28 7.858c.619-1.106 1.009-2.416 1.261-4.312l2.318.88c-.024-.406-.047-.52-.093-.835h1.905c-.298-.181-.414-.25-.803-.475l.986-.813h-2.546c-.849 0-1.514.023-2.18.068.046-.474.07-.88.07-1.468v-3.929c0-.632-.024-1.016-.07-1.49.643.045 1.285.068 2.226.068h2.638v-1.13h-2.73c-1.17 0-1.743.023-2.34.091v-1.038c-.23 0-.23 0-.643-.023v14.406zm-3.878-2.868c.551-.135.597-.135 1.308-.339v-2.19H41.74v2.53zm0-4.9h1.308v-2.077H41.74v2.077zm0-4.448h1.308v-2.19H41.74v2.19zm10.163 12.262c0 .36.138.428 1.056.428 1.055 0 1.1-.068 1.192-2.19.78.452 1.4.655 2.387.79-.414-.993-.574-1.354-1.147-2.28l2.43-1.061c1.033 1.92 1.538 3.116 2.18 5.125l-2.455 1.31c-.39-1.355-.55-1.897-.917-2.845-.115 1.852-.367 2.665-.917 3.184-.46.451-1.147.565-3.281.565-1.583 0-2.156-.091-2.638-.385-.436-.248-.574-.631-.574-1.445v-3.816c0-.248 0-.384-.022-.7-.483 2.439-.987 3.907-1.881 5.487l-1.699-1.106c0 1.196.024 1.603.116 2.235h-2.868c.069-.7.114-1.354.114-2.46v-1.424a94.687 94.687 0 0 1-3.624 1.016c-.298.09-.367.114-.757.249L38 130.468c.23 0 .597-.045 1.17-.136v-12.08a7.812 7.812 0 0 0-.94.09v-2.845c.528.113 1.055.135 2.065.135h4.06c1.078 0 1.514-.022 2.11-.112v1.152c.62.067 1.262.09 2.295.09h2.569a17.39 17.39 0 0 0-.115-1.762h3.028c-.092.564-.114.971-.114 1.761h3.143c1.147 0 1.606-.022 2.385-.112v2.664c-.711-.068-1.238-.09-2.34-.09h-3.188v1.129h2.707c.895 0 1.606-.023 2.202-.067-.07.473-.092.88-.092 1.535v3.838c0 .7.023 1.107.092 1.513a36.79 36.79 0 0 0-2.34-.068h-3.464c1.1.7 1.605 1.039 2.386 1.671l-1.79 1.92c-.756-.745-1.1-1.061-1.903-1.671-.024.361-.024.52-.024.948v2.733zM68.898 120.659c1.101.201 2.34.29 4.13.29.826 0 1.56-.022 2.249-.089-.137-3.74-.137-3.74-.321-4.815l3.465-.045c-.046.38-.046.515-.046.806 0 .27 0 .27.023 1.03.046.74.046.74.069 1.546 0 .492 0 .695.022 1.187 1.561-.224 2.571-.47 3.327-.806L82 122.92c-.39.044-.39.044-1.307.224-.918.179-1.216.246-2.112.336.023.425.023.85.023 1.276 0 3.852-.413 5.846-1.56 7.637-.918 1.411-2.134 2.441-4.153 3.606-.964-1.21-1.423-1.635-2.663-2.53 1.561-.673 2.594-1.39 3.511-2.374 1.217-1.345 1.653-2.957 1.653-6.093 0-.38 0-.56-.046-1.231-.987.044-1.629.067-2.57.067-.895 0-1.652-.023-2.479-.045-.734-.045-.826-.045-1.101-.045h-.321l.023-3.09zm-1.331-4.077c-.941 2.912-1.47 6.899-1.47 10.93 0 .582.024 1.41.07 1.97.298-1.075.62-1.881 1.308-3.27l2.41 1.143c-1.492 2.508-2.663 5.667-2.754 7.413l-3.144.135a9.534 9.534 0 0 0-.16-.896c-.597-2.8-.827-4.95-.827-7.592 0-2.464.115-3.651.804-8.422.137-.896.16-1.164.16-1.702l3.603.291zM91.173 131.35c-.693 0-1.154.354-1.154.885 0 .775.877 1.218 2.377 1.218.346 0 .44 0 .97-.11-.346-1.307-1.108-1.993-2.193-1.993zm-5.38-13.952c.855.11 1.617.156 3.002.156 1.985 0 4.848-.111 6.995-.266.9-.067 1.177-.11 1.57-.288l1.639 2.303c-.486.266-.508.266-2.31 1.794-2.4 2.059-3.139 2.635-5.008 3.897a13.181 13.181 0 0 1 3.809-.531c1.962 0 3.578.51 4.825 1.506 1.13.907 1.685 2.125 1.685 3.675 0 2.148-1.085 3.876-3.163 5.027-1.547.864-3.578 1.329-5.794 1.329-2.008 0-3.717-.398-4.687-1.107-.9-.642-1.407-1.617-1.407-2.702 0-1.904 1.8-3.344 4.247-3.344 1.64 0 3.093.642 4.063 1.794.461.532.716.997 1.061 1.904 1.64-.642 2.31-1.483 2.31-2.879 0-1.616-1.709-2.657-4.364-2.657-3.393 0-6.556 1.263-9.419 3.72L83 127.873c2.17-.996 6.996-4.672 10.25-7.794-1.893.155-2.285.177-5.679.332-.738.045-.946.045-1.638.133l-.14-3.145zM109.246 135h3.508v-3.583h-3.508V135zm.328-5.264c.021-.552.041-.795.041-1.038 0-.288 0-.288-.06-1.592l-.35-7.276A45.43 45.43 0 0 0 109 117h4a34.07 34.07 0 0 0-.206 2.83l-.348 7.276c-.062 1.348-.062 1.348-.062 1.613 0 .244.021.465.042 1.017h-2.852z" mask="url(#b)"/>
    </g>
</svg>
