<svg xmlns="http://www.w3.org/2000/svg" xmlns:xlink="http://www.w3.org/1999/xlink" width="160" height="160" viewBox="0 0 160 160">
    <defs>
        <path id="a" d="M0 160h160V0H0z"/>
    </defs>
    <g fill="none" fill-rule="evenodd">
        <path fill="#F98C2E" d="M160 80c0 44.183-35.817 80-80 80S0 124.183 0 80 35.817 0 80 0s80 35.817 80 80"/>
        <path fill="#FFF" d="M53.352 27a14.46 14.46 0 0 1 1.98 3.155l-1.958 1.006a16.904 16.904 0 0 0-1.936-3.27L53.352 27zm-2.648 1.234c.801.96 1.268 1.738 2.003 3.292l-2.003.983c-.468-1.166-1.158-2.332-1.981-3.383l1.98-.892zm-6.9-.708c-.221 1.348-.488 7.451-.488 11.406 0 2.217.11 2.994.534 3.634.467.731 1.468 1.143 2.782 1.143 2.358 0 4.183-1.371 5.184-3.886.468-1.211.735-2.285.935-3.977 1.446 1.166 1.936 1.486 3.249 2.08-.89 3.269-1.58 4.823-2.737 6.148C51.549 46.018 49.302 47 46.453 47c-1.647 0-3.115-.365-4.116-1.029-.935-.639-1.648-1.622-2.003-2.765-.2-.754-.334-1.92-.334-3.269 0-1.028.022-2.514.089-5.554.066-3.132.09-4.525.09-5.234 0-.732-.024-1.052-.09-1.692l3.716.069zM77.079 33.383c-.572-1.308-1.098-2.273-1.738-3.146l1.874-.757c.71.85 1.304 1.882 1.785 3.031l-1.921.872zm-2.676 1.171c-.572-1.4-1.006-2.204-1.76-3.237l1.943-.758c.709.873 1.189 1.745 1.76 3.146l-1.943.85zm.571 1.47c1.761 2.779 2.905 5.35 3.637 8.174l-3.202 1.516c-.457-2.687-2.104-6.797-3.407-8.52l2.972-1.17zM62.877 27c.709.39 1.738.758 3.247 1.148 1.784.46 4.391.827 5.786.827.092 0 .252 0 .48-.023l-.068 3.192c-.663.09-1.327.367-2.104.85-1.28.826-2.08 1.813-2.08 2.593 0 .414.159.78.547 1.31.16.183.183.23 1.327 1.446 1.486 1.608 2.058 2.801 2.058 4.248 0 2.549-2.012 4.409-4.756 4.409-1.716 0-3.202-.528-4.963-1.792.366-1.148.457-1.607.686-3.305 1.28 1.148 2.768 1.859 3.956 1.859.846 0 1.395-.551 1.395-1.446 0-.758-.274-1.286-1.418-2.618-.822-.942-1.143-1.332-1.395-1.768-.456-.758-.663-1.424-.663-2.159 0-1.515.961-2.984 2.699-4.225-1.647-.137-2.927-.46-5.1-1.24-.389-.137-.457-.16-.778-.252L62.877 27zm.184 10.517a9.213 9.213 0 0 0-.23.987c-.685 2.962-1.6 5.465-2.812 7.646-1.19-.804-1.693-1.08-3.019-1.584 1.235-1.975 2.378-5.213 2.88-8.06l3.18 1.01zM91.431 27.839c-.343.658-.367.702-.917 2.04-.115.296-.115.296-1.124 2.835l-1.627 4.014c1.123-.975 1.972-1.338 3.095-1.338 1.054 0 2.063.477 2.59 1.225.368.521.551 1.156.597 2.154.022.43.045.975.045 2.041 0 1.768.07 2.086.413 2.403.206.205.596.318 1.055.318 1.078 0 1.948-.772 2.544-2.245.413-1.02.734-2.472.826-3.787 1.009.93 1.535 1.27 3.072 1.973-.436 2.154-1.032 3.651-1.949 4.92-1.146 1.543-2.935 2.427-4.93 2.427-1.466 0-2.59-.408-3.3-1.202-.688-.794-.963-1.723-.963-3.356 0-.136 0-.93.023-1.678v-.227c0-.59-.046-.884-.16-1.157-.138-.317-.482-.498-.917-.498-1.17 0-2.384 1.111-3.37 3.084-.712 1.383-1.56 3.764-1.88 5.215L81 45.912c.367-.771.367-.771 4.218-11.474 1.857-5.193 2.316-6.553 2.453-7.438l3.76.839zM120.936 27a13.121 13.121 0 0 1 2.058 2.825l-1.924 1.001c-.647-1.157-1.252-2.024-2.035-2.914l1.901-.912zm-.492 4.805c1.745 2.47 2.752 4.672 3.556 7.675l-3.086 1.49c-.38-1.846-.827-3.225-1.655-5.027-.649-1.424-.962-2.002-1.565-2.847l2.75-1.29zm-2.191-3.626c.894.98 1.409 1.713 2.057 2.936l-1.945.98c-.605-1.135-1.343-2.225-2.08-3.004l1.968-.912zm-14.94 4.539h.134c.671 0 3.355-.245 4.496-.423.403-2.337.559-3.649.559-4.494 0-.067 0-.178-.023-.334l3.467.334c-.067.222-.112.4-.157.645-.022.09-.2 1.046-.514 2.87-.09.467-.09.49-.156.756.536-.022.85-.044 1.185-.044 1.588 0 2.75.423 3.489 1.29.76.912 1.05 2.002 1.05 4.093 0 3.983-.67 7.075-1.811 8.298-.67.735-1.387 1.001-2.616 1.001-.962 0-1.902-.178-3.423-.623.045-.489.045-.667.045-1.001 0-.778-.066-1.334-.29-2.38 1.14.49 2.438.846 3.176.846.559 0 .895-.356 1.162-1.246.336-1.068.604-3.382.604-5.073 0-1.067-.156-1.646-.559-2.002-.291-.29-.648-.378-1.453-.378-.38 0-.627.023-1.118.067-.784 3.626-2.013 7.008-4.093 11.323-.202.423-.224.467-.358.757L103 45.331c1.521-1.98 3.421-6.45 4.361-10.166-1.587.222-3.108.489-3.757.667l-.29-3.114z"/>
        <mask id="b" fill="#fff">
            <use xlink:href="#a"/>
        </mask>
        <path fill="#FFF" d="M42.643 68.227h9.668V66.91h-9.668v1.317zm0-3.65h9.668v-1.294h-9.668v1.294zm0-3.627h9.668v-1.247h-9.668v1.247zm-.54 9.773c-1.1 0-1.775.023-2.383.092.068-.67.113-1.432.113-2.495v-8.548c0-1.224-.045-2.195-.113-2.772.63.07 1.304.092 2.339.092h10.837c1.057 0 1.731-.022 2.36-.092-.067.577-.111 1.548-.111 2.772v8.548c0 1.109.022 1.848.112 2.495-.652-.07-1.372-.092-2.361-.092h-1.91v3.442c0 .6.179.67 1.73.67 1.574 0 1.979-.093 2.203-.44.181-.276.293-1.455.338-2.933 1.056.578 1.641.832 2.743 1.11-.248 2.84-.45 3.649-1.125 4.25-.606.577-1.596.739-4.248.739-3.913 0-4.543-.323-4.543-2.218v-4.62h-1.708c-.27 1.894-.945 3.234-2.204 4.458-1.394 1.34-2.99 2.15-5.62 2.819-.45-1.11-.855-1.802-1.552-2.726 2.024-.37 3.17-.763 4.182-1.41 1.17-.762 1.821-1.732 2.113-3.141h-1.191zM59 60.707c.837-.067 1.278-.157 2.733-.471C66.34 59.246 67.971 59 70.176 59c2.182 0 3.945.449 5.224 1.348 1.674 1.169 2.6 3.034 2.6 5.258 0 3.192-1.807 5.866-5.003 7.484-2.094 1.034-4.078 1.506-8.002 1.91-.353-1.46-.573-2.045-1.366-3.46 2.932-.091 4.893-.36 6.437-.9 1.608-.539 2.864-1.415 3.636-2.54.507-.74.75-1.505.75-2.426 0-.944-.287-1.708-.86-2.315-.75-.786-1.83-1.145-3.35-1.145-2.293 0-5.159.516-8.685 1.594-.573.18-1.279.427-1.83.675L59 60.707zM87.897 61.659c1.102.201 2.34.29 4.13.29.827 0 1.561-.022 2.25-.089-.138-3.74-.138-3.74-.321-4.815L97.42 57c-.045.38-.045.515-.045.806 0 .27 0 .27.022 1.03.047.74.047.74.07 1.546 0 .492 0 .695.022 1.187 1.561-.224 2.571-.47 3.327-.806L101 63.92c-.39.044-.39.044-1.307.224-.918.179-1.217.246-2.112.336.023.425.023.85.023 1.276 0 3.852-.413 5.846-1.56 7.637-.918 1.411-2.135 2.441-4.154 3.606-.963-1.21-1.422-1.635-2.662-2.53 1.56-.673 2.593-1.39 3.51-2.374 1.218-1.345 1.653-2.957 1.653-6.093 0-.38 0-.56-.045-1.231-.987.044-1.63.067-2.571.067-.895 0-1.652-.023-2.478-.045-.735-.045-.826-.045-1.102-.045h-.32l.022-3.09zm-1.33-4.077c-.942 2.912-1.47 6.899-1.47 10.93 0 .582.024 1.41.07 1.97.297-1.075.62-1.881 1.307-3.27l2.41 1.143c-1.492 2.508-2.662 5.667-2.754 7.413l-3.144.135a9.534 9.534 0 0 0-.16-.896c-.597-2.8-.826-4.95-.826-7.592 0-2.464.115-3.651.803-8.422.137-.896.16-1.164.16-1.702l3.603.291zM122.172 65.932a24.939 24.939 0 0 0-2.966-.16c-2.413 0-3.93.16-6.23.613l-.229-2.97c3.425-.612 4.575-.726 7.242-.726.574 0 .666 0 2.114.023l.07 3.22zm-6.666 2.653c-.92 1.202-1.172 1.745-1.172 2.494 0 1.066 1.057 1.588 3.287 1.588 1.609 0 3.815-.386 5.149-.885l.23 3.356c-.414.045-.598.068-1.173.136-1.908.295-3.057.386-4.39.386-2.115 0-3.61-.295-4.759-.976-1.057-.59-1.701-1.723-1.701-2.948 0-1.223.483-2.38 1.77-4.126l2.759.975zm-11.977-9.048c.85.16 1.908.227 3.287.227.162 0 .184 0 .759-.022.207-1.134.39-2.722.39-3.357V56l3.633.295c-.161.544-.161.544-.46 2.2-.092.612-.115.657-.184 1.11 1.632-.158 2.644-.34 3.84-.635l.114 3.107c-.437.045-.437.045-1.265.181-1.01.181-2.022.273-3.24.34a54.282 54.282 0 0 1-1.334 5.624c-.69 2.471-.942 3.22-2 6.212A24.71 24.71 0 0 0 106.54 76L103 74.707c1.54-2.925 3.218-7.868 4.023-11.995h-.644l-2.46-.068c-.16 0-.229.023-.436.023l.046-3.13zM38.572 99.036c2.361-.801 3.874-1.513 4.975-2.403l2.04 2.203c-.298.134-.481.222-1.123.512-2.453 1.2-3.003 1.401-5.892 2.268v1.87c0 .533.275.622 2.132.622 1.422 0 1.949-.111 2.156-.423.228-.356.343-1.09.366-2.469.94.4 1.628.601 2.774.801-.367 4.45-.711 4.716-6.03 4.716-3.324 0-4.24-.422-4.24-1.935v-6.296c0-.868-.023-1.38-.116-1.958h3.073c-.092.49-.115 1.024-.115 1.825v.667zm-8.436-5.184h10.637v-1.224H30.136v1.224zm0-3.292h10.637v-1.247H30.136v1.247zm-.505 5.428c-.985 0-1.811.022-2.521.066.091-.734.114-1.2.114-2.335v-4.383c0-1.135-.023-1.602-.114-2.336.825.067 1.49.089 2.82.089h11.072c1.307 0 1.995-.022 2.797-.089-.091.623-.115 1.223-.115 2.336v4.383c0 1.112.024 1.712.115 2.335a40.516 40.516 0 0 0-2.521-.066H29.63zm3.53 1.98c.665 0 1.238-.044 1.79-.111v2.714c-.528-.067-1.032-.09-1.812-.09H30.09v2.826c2.361-.423 2.912-.534 4.975-1v2.58c-2.04.556-4.334 1.068-7.886 1.758-.734.133-1.032.222-1.513.355L25 103.975a20.021 20.021 0 0 0 2.201-.2V98.48c0-.89-.022-1.402-.114-1.936h3.118a8.336 8.336 0 0 0-.115 1.424h3.072zM58.973 96.126h4.204v-3.942h-4.204v3.942zm-6.903 0h3.96v-3.942h-3.96v3.942zm6.903 6.434a75.57 75.57 0 0 0 3.695-.476c-.398-.657-.553-.884-1.128-1.744l2.521-1.133c1.616 2.333 2.656 4.01 3.939 6.343L65.257 107c-.51-1.156-.664-1.495-1.15-2.446-4.337.701-9.27 1.268-13.563 1.562-1.129.09-1.571.136-2.08.226L48 103.126c.597.045.951.068 1.504.068 1.283 0 4.447-.181 6.527-.362v-4.01h-3.872a47.44 47.44 0 0 0-3.053.09c.067-.385.11-1.54.11-2.537v-4.508c0-1.065-.043-1.903-.11-2.492.707.09 1.703.113 3.12.113h3.805v-1.11c0-.905-.045-1.608-.133-2.378h3.23c-.11.702-.155 1.381-.155 2.424v1.064h4.072c1.437 0 2.322-.045 3.119-.113a29.92 29.92 0 0 0-.111 2.515v4.485c0 .952.044 1.767.11 2.56a36.227 36.227 0 0 0-3.03-.113h-4.16v3.738zM70.78 88.337c.826.203 2.253.292 4.081.292h1.116c.557-1.348.714-1.887.803-2.629l3.457.315c-.157.247-.157.247-.826 1.865-.09.203-.09.225-.178.405.334-.045.401-.045 1.383-.09 2.653-.158 4.482-.405 5.753-.741l.134 3.033c-.691.068-.691.068-1.762.18-1.628.202-4.527.382-6.78.45-.423.786-.735 1.257-1.449 2.224 1.16-.652 1.962-.877 3.077-.877 1.807 0 2.922.764 3.323 2.27.201-.067.602-.202 1.182-.405.87-.314.981-.359 1.985-.696 1.27-.427 1.36-.45 1.74-.674L89 96.315c-.647.09-1.383.247-2.52.584-.535.135-.535.135-3.233 1.056l.022.742v1.528c0 .674.022 1.056.067 1.505l-3.1.09c.09-.427.134-1.416.134-2.607 0-.022 0-.09-.022-.18-.915.428-1.36.675-1.784.967-.692.494-1.048 1.056-1.048 1.618 0 1.034.958 1.438 3.39 1.438 2.697 0 5.106-.36 6.846-1.011l.244 3.438c-.423.023-.512.023-1.114.112-1.873.27-3.858.405-5.732.405-3.278 0-5.129-.494-6.154-1.663-.558-.63-.87-1.506-.87-2.426 0-1.394.892-2.787 2.587-4.023.736-.54 1.717-1.057 3.256-1.73-.112-.608-.491-.9-1.138-.9-1.204 0-2.72.765-4.393 2.225-.914.81-1.472 1.416-2.029 2.158L70 97.236c1.25-.92 3.189-3.258 4.349-5.258.2-.382.223-.405.335-.561-1.25 0-1.428 0-2.075-.024-.423-.022-.78-.022-.847-.022-.201 0-.334 0-.379-.022h-.312c-.09 0-.2 0-.335.022l.045-3.034zM103.437 103.292c.413-.688.643-1.22 1.011-2.198h-4.965c.529.866.758 1.31 1.103 2.198h2.85zm1.218-11.454c-1.057-.932-1.632-1.576-2.597-2.82-.874 1.155-1.472 1.777-2.598 2.82h5.195zm-7.219 6.948h9.08v-1.398h-9.08v1.398zm-.965-10.3c-.437 0-.896.022-1.264.067a41.198 41.198 0 0 1 1.954 1.753c.827-.666 1.15-.977 1.839-1.82H96.47zm1.564 4.506c-1.38 1.021-1.908 1.354-3.173 2.064.575.045.828.045 1.47.045h11.426a14.3 14.3 0 0 0 1.54-.067 3.043 3.043 0 0 1-.321-.178c-1.265-.665-1.84-1.042-2.782-1.798v1.11c-.39-.044-.69-.066-1.425-.066H99.32c-.505 0-.92.022-1.286.067v-1.177zm14.114-3.307c-.16.178-.16.178-.437.51-.413.533-1.103 1.222-1.815 1.91.988.532 1.769.887 3.103 1.353-.621.954-.897 1.532-1.288 2.709-1.126-.467-1.494-.644-2.206-1.022-.047.4-.07.755-.07 1.377v2.974c0 .777.023 1.198.07 1.642-.322-.022-.322-.022-1.564-.044h-2.988l2.391.689c-.368.687-.392.731-.506.932-.161.332-.207.4-.322.577h3.701c1.104 0 1.61-.022 2.253-.111V106c-.667-.089-1.265-.11-2.46-.11H94.034c-1.172 0-1.724.021-2.46.11v-2.82c.644.09 1.15.112 2.254.112h3.792c-.275-.577-.413-.8-.919-1.532l2.253-.666h-2.85c-.737 0-1.242.022-1.586.044.045-.599.068-.932.068-1.642v-2.952c0-.533-.023-.844-.068-1.31-.713.378-1.081.555-2.161 1.02A9.234 9.234 0 0 0 91 93.682c1.31-.422 2.414-.955 3.862-1.8-1.104-1.153-1.793-1.73-3.011-2.596l2.115-1.687c.62.467.827.621 1.172.91V86c.62.089.965.11 2 .11h4.344c1.081 0 1.45-.021 1.932-.088.276.932.505 1.265 1.38 2.242.873-.888 1.355-1.51 1.746-2.175l2.298 1.376c-1.08 1.31-1.447 1.71-2.229 2.442.437.355.575.444 1.15.843.896-.821 1.609-1.642 2.068-2.42l2.322 1.355zM127.799 102.206c-1.143.982-1.668 1.392-2.581 2.032.776.137 1.232.182 1.644.182.776 0 .937-.091.937-.57v-1.644zm-2.49-6.368c.937 1.027 1.439 1.735 2.215 3.081l-2.056 1.507c-.868-1.69-1.256-2.26-2.17-3.265l2.01-1.323zm-4.593 5.637c.504-1.46.709-2.282.87-3.583l1.895.617a18.395 18.395 0 0 1-1.074 3.56l-1.69-.594zm.457-10.317h.32c-.822-.844-1.348-1.53-2.033-2.716-.593 1.073-1.028 1.69-1.942 2.716h3.655zm-5.665 11.779c-.182-1.53-.411-2.603-.937-4.36l1.965-.639c.48 1.415.708 2.442 1.005 4.337l-2.033.662zm1.919-9.428c-.457 0-.8.024-1.279.07v-1.05c-.297.273-.48.433-1.005.821-.343-1.21-.526-1.689-1.143-2.67 1.851-1.233 3.153-2.808 3.884-4.68h2.924c.731 1.529 1.645 2.51 3.335 3.629-.73.868-1.119 1.438-1.645 2.465l-.068-.068v1.552c-.434-.069-.663-.069-1.302-.069h-.594v1.255h.914c.617 0 1.074-.022 1.485-.067v-1.735c.64.068 1.257.114 2.192.114h5.506l.046-1.004h-4.295c-1.05 0-1.53.022-2.125.091v-2.488c.572.091.983.114 2.125.114h4.41c0-.092.022-.092.022-.182 0-.206 0-.389.022-.708h-4.888c-.937 0-1.668.022-2.147.091v-2.647c.662.09 1.28.114 2.307.114h5.597c.913 0 1.6-.024 2.079-.092-.069.457-.069.457-.228 3.789-.024.548-.069 1.529-.138 2.922.96 0 1.554-.023 2.17-.114v2.693a22.253 22.253 0 0 0-2.215-.114h-2.72c.276 1.164.458 1.78.87 2.671.89-.754 1.507-1.461 2.078-2.42l2.033 1.576c-.982 1.186-1.828 2.077-2.878 2.966.914 1.279 1.759 2.055 3.244 3.014a12.901 12.901 0 0 0-1.576 2.739c-2.148-1.872-2.993-3.105-4.135-5.935.045.571.114 1.37.16 2.374v2.214c.023 1.711-.663 2.26-2.697 2.26-.478 0-1.05-.023-1.963-.069-.138-1.233-.252-1.735-.64-2.67-.412.296-.64.456-1.257.844l-1.12-2.602c1.577-.662 3.13-1.62 5.027-3.082v-3.88h-2.674c-.845 0-1.553.023-2.032.091v1.712c-.457-.069-.914-.091-1.668-.091h-.89v5.66c1.004-.228 1.232-.273 2.146-.547l.024 2.534c-1.371.456-3.976 1.095-5.826 1.392-1.28.228-1.28.228-2.01.41l-.389-2.944c.937-.022 1.828-.113 3.45-.365v-6.14h-1.028c-.96 0-1.714.046-2.262.137v-2.762c.594.091 1.325.136 2.285.136h1.005V93.51h-.503zM58.109 124.588c-.556-1.197-1.045-2.032-1.802-3.026l1.847-.813c.823.971 1.134 1.468 1.846 2.891l-1.891.948zm-2.603 1.243c-.556-1.265-1.068-2.1-1.846-3.14l1.89-.857c.78.948 1.269 1.716 1.87 3.048l-1.914.949zM40 117.948c.511.024.778.024.867.024.423 0 .556 0 3.716-.204 1.535-.113 5.361-.293 11.48-.564 1.957-.091 2.09-.114 2.49-.204l.179 3.456c-.267-.023-.334-.023-.534-.023-1.446 0-3.248.52-4.739 1.377-2.513 1.446-4.027 3.546-4.027 5.602 0 1.67 1.024 2.89 2.893 3.432 1.023.294 2.47.52 3.292.52.133 0 .29 0 .556-.023L55.706 135c-.289-.068-.378-.068-.779-.114-2.491-.293-4.048-.677-5.383-1.4-2.314-1.22-3.515-3.184-3.515-5.758 0-3.05 1.601-5.534 4.694-7.34-2.225.249-2.314.271-7.275.655a31.57 31.57 0 0 0-3.27.406l-.178-3.5zM63.156 118.988c.69.067 1.446.09 2.38.09 1.291 0 3.361-.09 4.251-.202-.067-.18-.067-.18-.29-.719-.044-.068-.133-.292-.289-.675-.222-.561-.289-.718-.467-1.032l3.315-.45c.09.606.267 1.19.801 2.539 2.226-.314 4.496-.787 6.009-1.303l.267 2.809c-2.626.562-4.584.966-5.296 1.056.31.72.333.764.69 1.505 2.692-.494 4.005-.809 5.207-1.258l.266 2.877c-.29.044-1.179.224-2.692.561-1.023.202-1.112.225-1.558.315 1.113 1.888 1.402 2.292 2.937 4.134l-2.603 1.551c-1.446-.696-2.848-.966-4.895-.966-2.781 0-4.295.629-4.295 1.752 0 .653.512 1.08 1.514 1.327.533.112 1.534.202 2.292.202 2.335 0 5.473-.652 6.986-1.438l.467 3.258c-.6.112-.645.112-1.512.337a25.14 25.14 0 0 1-6.075.742c-3.138 0-5.318-.675-6.365-2a3.852 3.852 0 0 1-.845-2.405c0-1.483 1.001-2.877 2.559-3.55 1.246-.562 2.648-.809 4.54-.809 1.379 0 2.514.112 3.604.359-.133-.157-.178-.202-.445-.584-.267-.382-.29-.427-.645-1.011-.156-.27-.156-.27-.29-.472-2.046.292-4.227.426-8.589.562-.4.022-.578.022-.979.067L63 123.281c.623.089.98.112 2.137.112 2.336 0 4.182-.112 6.363-.405a10.94 10.94 0 0 1-.356-.718c-.2-.45-.244-.518-.355-.787-2.293.224-3.027.247-6.588.292-.333 0-.51 0-.89.022l-.155-2.809zM91.173 131.35c-.693 0-1.154.354-1.154.885 0 .775.877 1.218 2.377 1.218.347 0 .44 0 .97-.11-.346-1.307-1.108-1.993-2.193-1.993zm-5.38-13.952c.855.11 1.617.156 3.002.156 1.985 0 4.848-.111 6.995-.266.9-.067 1.177-.11 1.57-.288l1.639 2.303c-.486.266-.508.266-2.31 1.794-2.4 2.059-3.139 2.635-5.008 3.897a13.181 13.181 0 0 1 3.809-.531c1.962 0 3.578.51 4.825 1.506 1.13.907 1.685 2.125 1.685 3.675 0 2.148-1.085 3.876-3.163 5.027-1.547.864-3.578 1.329-5.794 1.329-2.008 0-3.717-.398-4.687-1.107-.9-.642-1.407-1.617-1.407-2.702 0-1.904 1.8-3.344 4.247-3.344 1.64 0 3.093.642 4.063 1.794.461.532.716.997 1.061 1.904 1.64-.642 2.31-1.483 2.31-2.879 0-1.616-1.709-2.657-4.364-2.657-3.393 0-6.556 1.263-9.419 3.72L83 127.873c2.17-.996 6.996-4.672 10.25-7.794-1.893.155-2.285.177-5.679.332-.738.045-.946.045-1.638.133l-.14-3.145zM108.246 135h3.508v-3.583h-3.508V135zm.328-5.264c.02-.552.041-.795.041-1.038 0-.288 0-.288-.06-1.592l-.35-7.276A45.43 45.43 0 0 0 108 117h4a34.07 34.07 0 0 0-.206 2.83l-.348 7.276c-.062 1.348-.062 1.348-.062 1.613 0 .244.021.465.042 1.017h-2.852z" mask="url(#b)"/>
    </g>
</svg>
