<svg xmlns="http://www.w3.org/2000/svg" xmlns:xlink="http://www.w3.org/1999/xlink" width="160" height="160" viewBox="0 0 160 160">
    <defs>
        <path id="a" d="M0 160h160V0H0z"/>
    </defs>
    <g fill="none" fill-rule="evenodd">
        <path fill="#E165B2" d="M160 80c0 44.183-35.817 80-80 80S0 124.183 0 80 35.817 0 80 0s80 35.817 80 80"/>
        <path fill="#FFF" d="M53.352 37a13.658 13.658 0 0 1 1.98 2.997l-1.958.956a15.906 15.906 0 0 0-1.936-3.106L53.352 37zm-2.648 1.172c.801.912 1.268 1.651 2.003 3.127l-2.003.934c-.468-1.107-1.158-2.215-1.981-3.213l1.98-.848zm-6.9-.672c-.221 1.28-.488 7.078-.488 10.836 0 2.105.11 2.843.534 3.452.467.695 1.468 1.085 2.782 1.085 2.358 0 4.183-1.302 5.184-3.691.468-1.15.735-2.171.935-3.778 1.446 1.107 1.936 1.412 3.249 1.975-.89 3.106-1.58 4.582-2.737 5.842C51.549 55.067 49.302 56 46.453 56c-1.647 0-3.115-.347-4.116-.977a4.984 4.984 0 0 1-2.003-2.627c-.2-.717-.334-1.825-.334-3.106 0-.977.022-2.388.089-5.276.066-2.975.09-4.3.09-4.973 0-.695-.024-.998-.09-1.607l3.716.066zM77.079 43.064c-.572-1.243-1.098-2.16-1.738-2.989l1.874-.72c.71.808 1.304 1.79 1.785 2.88l-1.921.83zm-2.676 1.112c-.572-1.33-1.006-2.093-1.76-3.075l1.943-.72c.709.829 1.189 1.658 1.76 2.988l-1.943.807zm.571 1.397c1.761 2.64 2.905 5.083 3.637 7.766l-3.202 1.44c-.457-2.553-2.104-6.457-3.407-8.094l2.972-1.112zM62.877 37c.709.37 1.738.72 3.247 1.09 1.784.437 4.391.786 5.786.786.092 0 .252 0 .48-.022l-.068 3.033c-.663.086-1.327.349-2.104.807-1.28.785-2.08 1.723-2.08 2.464 0 .393.159.742.547 1.244.16.174.183.218 1.327 1.374 1.486 1.527 2.058 2.66 2.058 4.036 0 2.42-2.012 4.188-4.756 4.188-1.716 0-3.202-.502-4.963-1.702.366-1.09.457-1.527.686-3.14 1.28 1.09 2.768 1.766 3.956 1.766.846 0 1.395-.524 1.395-1.374 0-.72-.274-1.222-1.418-2.487-.822-.894-1.143-1.265-1.395-1.68-.456-.72-.663-1.352-.663-2.05 0-1.44.961-2.836 2.699-4.014-1.647-.13-2.927-.437-5.1-1.178-.389-.13-.457-.152-.778-.24L62.877 37zm.184 9.99a8.387 8.387 0 0 0-.23.938c-.685 2.815-1.6 5.193-2.812 7.265-1.19-.764-1.693-1.026-3.019-1.505 1.235-1.876 2.378-4.953 2.88-7.657l3.18.96zM90.431 37.797c-.343.625-.367.667-.917 1.939-.115.28-.115.28-1.124 2.692l-1.627 3.814c1.123-.927 1.972-1.272 3.095-1.272 1.054 0 2.063.453 2.59 1.164.368.495.551 1.099.597 2.047.022.408.045.926.045 1.938 0 1.68.07 1.982.413 2.283.206.195.596.302 1.055.302 1.078 0 1.948-.733 2.544-2.132.413-.97.734-2.349.826-3.598 1.009.883 1.535 1.207 3.072 1.874-.437 2.046-1.032 3.469-1.949 4.675-1.146 1.465-2.935 2.305-4.93 2.305-1.466 0-2.59-.388-3.3-1.141-.688-.755-.963-1.638-.963-3.19 0-.128 0-.883.023-1.593v-.215c0-.561-.046-.841-.16-1.1-.138-.3-.482-.473-.917-.473-1.17 0-2.384 1.055-3.37 2.93-.712 1.314-1.56 3.576-1.88 4.954L80 54.967c.367-.733.367-.733 4.218-10.901 1.857-4.933 2.316-6.225 2.453-7.066l3.76.797zM108.667 42.128c-1.65 1.31-2.67 3.462-2.67 5.681 0 1.666.695 3.02 1.541 3.02.63 0 1.304-.866 1.999-2.664.803-1.975 1.476-4.772 1.737-7.147-1.043.133-1.76.444-2.607 1.11m3.454 8.035c-1.217 2.819-2.65 4.128-4.517 4.128-2.693 0-4.604-2.685-4.604-6.503 0-2.53.846-4.839 2.433-6.592C107.299 39.11 109.97 38 113.075 38c5.45 0 8.925 3.329 8.925 8.523 0 4.04-1.976 7.168-5.45 8.567-1.043.421-1.91.644-3.452.91-.456-1.398-.761-1.998-1.608-3.152 1.933-.156 3.28-.51 4.3-1.065 1.867-1.043 2.996-3.108 2.996-5.46 0-1.975-.846-3.64-2.322-4.638-.63-.422-1.151-.6-2.02-.71-.434 3.661-1.195 6.613-2.323 9.188M57.587 74.311c-.522-1.467-.957-2.38-1.717-3.634l2.239-.893c.847 1.297 1.195 2.019 1.804 3.57l-2.326.957zm-4.26 8.119c-.436-.914-.761-1.361-1.566-2.168 1.913-.765 2.587-1.126 3.74-1.976-1.327-.68-2.218-1.063-4.197-1.807l1.544-2.083.587.234c-.544-1.211-.87-1.786-1.696-3.018L54 70.634c1 1.466 1.326 2.04 2 3.571l-1.717.786c1.239.532 1.804.808 3.217 1.509 1.479-1.509 2.782-3.443 3.435-5.058.174-.425.196-.531.348-1.084l2.652 1.148a7.32 7.32 0 0 0-.674 1.19c-.957 2.04-1.957 3.528-3.348 5.08a53.604 53.604 0 0 1 3.63 2.23l-1.717 2.317c-1.587-1.211-2.239-1.657-3.891-2.656-1.413 1.19-2.609 1.955-4.37 2.763h10.5V69.572h-13.13V82.43h2.391zM48 86c.088-.68.13-1.445.13-2.847V69.529c0-1.02-.02-1.722-.108-2.529.782.085 1.413.106 2.543.106h13.87c1.108 0 1.74-.021 2.543-.106-.087.871-.108 1.446-.108 2.53v13.623c0 1.274.043 2.23.13 2.847h-2.913v-1.105H50.935V86H48z"/>
        <mask id="b" fill="#fff">
            <use xlink:href="#a"/>
        </mask>
        <path fill="#FFF" d="M87.406 83.252h.946V80.23h-.946v3.023zm-1.362-9.985c.462.046.716.068 1.5.068h1.94c.97 0 1.454-.022 1.986-.114v2.862c-.577-.09-1.109-.114-1.893-.114H87.66c-.738 0-1.246.024-1.616.092v-2.794zm-1.546 9.985h.946V80.23h-.946v3.023zm-2.932 0h.97V80.23h-.97v3.023zm-.647-8.565h1.086v-1.191h-1.086v1.191zm0-2.91h1.848v-1.03h-1.848v1.03zm0-2.793h1.062v-1.076H80.92v1.076zm-4.801 11.749c.485-1.489.554-1.787.761-3.527l1.755.527c-.207 1.213-.508 2.336-.923 3.595l-1.593-.595zm.323-10.375h.53c-.738-.801-1.153-1.42-1.868-2.702a12.94 12.94 0 0 1-1.755 2.702h3.093zM71.41 82.221c-.208-1.58-.508-2.885-.97-4.236l1.94-.71c.507 1.763.737 2.908.9 4.236l-1.87.71zm1.939-9.55c-.508 0-.947.023-1.362.092v-.939c-.324.298-.439.39-.854.733-.37-1.305-.578-1.832-1.132-2.771a12.194 12.194 0 0 0 2.24-2.13c.623-.779.969-1.374 1.385-2.45h2.909c.553 1.305 1.015 1.946 2.077 2.862v-.893c0-.824 0-1.054-.046-1.603.484.069.946.091 1.823.091h2.817c.808 0 1.455-.045 2.101-.114v2.428a14.163 14.163 0 0 0-1.385-.07v1.077c.553 0 .784-.022 1.084-.046-.045.321-.045.482-.045 1.146v.526c1.015-1.626 1.661-3.687 1.823-5.61l2.7.572c-.115.435-.138.459-.415 1.557-.046.252-.092.412-.162.687h1.086c.9 0 1.361-.023 1.916-.114v2.84a12.54 12.54 0 0 0-1.893-.115h-1.986c-.369.87-.669 1.443-1.269 2.45-.6-.664-1.131-1.121-1.8-1.511v.939c0 .71 0 .87.045 1.236-.415-.022-.484-.045-1.061-.045v1.191c.716 0 .9-.023 1.384-.069v2.313c-.415-.046-.738-.068-1.5-.068h-3.555c-.9 0-1.131 0-1.708.045.046-.48.046-.778.046-1.603v-5.862c-.416.572-.623.87-.923 1.35v1.947a12.314 12.314 0 0 0-1.386-.069h-.277v1.375h.232c.9 0 1.338-.024 1.754-.092v2.703c-.438-.07-.877-.092-1.754-.092h-.232v5.633c.877-.205 1.132-.274 2.194-.549l.023 1.534c.323.046.507.07.9.07h.185v-3.917c0-.802-.023-1.145-.07-1.649.508.046.855.068 1.755.068h8.01c.923 0 1.316-.022 1.847-.068-.07.481-.093.916-.093 1.649v3.916h.347c.3 0 .553-.023.877-.092v2.68a23.63 23.63 0 0 0-2.7-.138h-8.52c-.969 0-1.823.046-2.608.138v-1.718c-2.354.688-2.354.688-5.124 1.328-1.086.275-1.5.367-2.078.55l-.416-2.886c.647-.022 1.339-.114 3.001-.412v-6.137h-.715c-.831 0-1.57.045-2.17.114v-2.748c.623.069 1.316.115 2.17.115h.715V72.67h-.207zM104.372 80.786c-1.17 0-1.942.486-1.942 1.237 0 .707.661 1.149 1.743 1.149 1.28 0 1.832-.486 1.832-1.59 0-.2 0-.464-.022-.464-.64-.244-1.015-.332-1.611-.332zm-4.524-9.743c.971.221 2.318.332 4.127.332.617 0 1.015 0 1.765-.022 0-1.635 0-1.635-.022-3.115 0-.42-.023-.884-.089-1.149h3.267c-.132.73-.155 1.635-.155 4.042 1.456-.176 2.648-.419 3.575-.729l.11 3.005c-.264.023-.308.023-.86.133-.772.177-1.633.309-2.802.442.02 1.789.043 2.275.22 5.103 1.633.773 2.274 1.127 3.377 1.922.33.22.396.265.639.42l-1.213 3.18c-.508-.618-1.568-1.457-2.847-2.275.022.199.022.244.022.376 0 1.944-1.766 3.18-4.568 3.18-3.045 0-4.899-1.457-4.899-3.843 0-2.385 1.92-3.954 4.832-3.954.597 0 .972.044 1.59.176-.022-.75-.066-1.745-.132-4.087-.641.022-1.016.022-1.501.022-.795 0-2.76-.065-3.707-.132-.355-.022-.355-.022-.64-.022-.023 0-.067 0-.133.022l.044-3.027zm-1.17-3.733c-.463.928-1.125 4.065-1.456 6.716a42.514 42.514 0 0 0-.287 4.264c0 .441-.021 1.303-.021 1.657.485-1.194.639-1.591.993-2.298l1.875.751c-1.17 2.32-1.986 5.059-1.986 6.738 0 .088.022.309.044.707L94.684 86c-.022-.288-.022-.42-.088-.884-.441-2.939-.596-4.882-.596-7.246 0-2.077.133-4.043.42-5.943.088-.663.088-.663.529-3.049.177-.905.243-1.391.265-1.878l3.465.31zM47.903 112.242h1.913v-3.534h-1.913v3.534zm0-7.158h1.913v-3.473h-1.913v3.473zm-2.346 18.733c-.406-2.985-.58-3.868-1.303-6.55l3.388-.791c.84 2.528 1.217 3.96 1.71 6.488l-3.795.853zm-2.637-11.575h1.826v-3.534H42.92v3.534zm0-7.16h1.826v-3.472H42.92v3.473zM38.75 123.91c.029-.549.029-.975.029-1.25 0-1.492-.145-3.96-.348-5.544l3.39-.395c.463 2.985.608 4.386.723 6.884l-3.794.305zm-.87-11.667h1.884v-3.534H37.88v3.534zm0-7.16h1.884v-3.472H37.88v3.473zm-7.531 16.45c1.737-1.797 2.578-3.106 3.563-5.696l3.186 1.645c-1.216 3.046-1.94 4.325-3.736 6.519l-3.013-2.467zm4.316-18.917c-.666.67-1.1 1.067-2.289 1.98-.782-1.095-1.419-1.827-2.375-2.71 2.636-1.92 4.114-3.473 5.243-5.453A10.05 10.05 0 0 0 35.881 95l3.969.67c-.232.335-.261.396-.492.823-.32.518-.551.914-.957 1.554h13.82c1.737 0 2.78-.061 3.707-.183v3.93c-.927-.123-1.45-.153-2.724-.183v3.472h.957c1.419 0 1.97-.03 2.839-.152v3.93c-.87-.122-1.45-.153-2.84-.153h-.956v3.534h.406c1.42 0 1.999-.03 2.752-.153v3.869c-.811-.122-1.42-.153-2.694-.153h-.464c1.594 2.102 2.463 3.474 3.708 5.82l-3.302 2.162c-1.072-2.56-1.825-3.99-3.505-6.52L53 115.806H33.535c-1.102 0-1.739.031-2.492.153v-3.869c.782.122 1.477.153 2.839.153h.609v-3.534h-1.13c-1.333 0-1.999.03-2.84.152v-3.929c.87.122 1.42.152 2.84.152h1.303v-2.468zM80.508 109.871c.265 1.247.44 1.842.881 2.822 1.47-1.129 2.615-2.168 3.115-2.822h-3.996zm-5.083 7.93c2.086-.445 2.821-.623 4.172-1.038-1.263-2.17-1.91-3.922-2.497-6.892h-1.675v7.93zm0-11.078h6.817v-1.99h-6.817v1.99zm0-5.139h6.817v-1.871h-6.817v1.871zm12.104 10.544c-.175.09-.381.298-1.586 1.337-.587.535-1.675 1.396-2.732 2.169 1.351 1.604 2.761 2.672 4.789 3.712-.881 1.07-1.381 1.96-2.057 3.654-1.939-1.218-3.085-2.169-4.465-3.684-.53-.593-.911-1.068-1.41-1.782l.028 2.703c-2.174.624-2.937.832-5.787 1.516l-3.908.86c-.587.15-.91.238-1.204.328l-.676-3.98c.617 0 1.733-.15 3.262-.417V99.386c0-1.307-.03-2.02-.118-3.208.646.119 1.292.148 2.79.148h8.815c1.44 0 1.821-.03 2.702-.119-.088.624-.116 1.516-.116 3.297v7.19c0 1.603.028 2.137.116 3.237-.705-.03-.734-.03-1.086-.03l2.643 2.227zM61.176 99.03c0-1.01 0-1.306-.117-3 .617.09 1.117.119 2.232.119h4.437c1.263 0 1.821-.03 2.203-.148l1.822 2.436c-.118.267-.235.623-.382 1.039-1.028 2.852-1.469 3.95-2.585 6.268 1.821 2.732 2.379 4.276 2.379 6.771 0 1.693-.734 2.971-2.056 3.476-.705.297-1.821.446-3.261.475-.06-1.812-.205-2.614-.705-3.683.5.06.734.089 1.057.089 1.028 0 1.352-.268 1.352-1.158 0-.98-.206-2.02-.618-2.97-.381-.951-.763-1.575-1.791-2.793 1.145-2.228 1.557-3.356 2.468-6.356h-2.762v19.604c0 1.337.029 2.495.147 3.713H61c.118-.95.176-2.228.176-3.713V99.029zM106.446 106.23c.79 2.676 2.31 5.203 4.468 7.463 2.22 2.35 4.53 3.836 8.086 5.233-1.186 1.369-1.762 2.26-2.645 4.074-3.404-1.694-5.654-3.36-7.843-5.799-1.732-1.902-2.948-3.805-3.951-6.125-.912 2.558-2.25 4.639-4.256 6.69-2.31 2.35-4.5 3.807-7.782 5.234-.669-1.427-1.368-2.468-2.523-3.776 2.31-.892 3.587-1.546 5.168-2.677 3.8-2.676 5.746-5.858 6.384-10.318h-6.657c-2.068 0-2.95.03-4.044.18v-4.313c1.064.12 2.159.179 4.044.179h7.021c.031-1.28.061-2.082.061-3.093 0-1.457-.06-2.35-.213-3.182h4.742c-.181 1.1-.181 1.338-.212 4.223 0 .802-.03 1.04-.061 2.052h7.538c1.795 0 2.919-.06 4.043-.179v4.312c-1.307-.149-2.248-.179-4.012-.179h-7.356zM128.37 121h5.26v-4.776h-5.26V121zm.492-7.017c.03-.737.062-1.062.062-1.386 0-.383 0-.383-.093-2.123l-.523-9.7A54.73 54.73 0 0 0 128 97h6c-.123.854-.246 2.24-.308 3.774l-.523 9.7c-.091 1.799-.091 1.799-.091 2.152 0 .325.03.62.06 1.357h-4.276z" mask="url(#b)"/>
    </g>
</svg>
