<svg xmlns="http://www.w3.org/2000/svg" xmlns:xlink="http://www.w3.org/1999/xlink" width="160" height="160" viewBox="0 0 160 160">
    <defs>
        <path id="a" d="M0 160h160V0H0z"/>
    </defs>
    <g fill="none" fill-rule="evenodd">
        <path fill="#025C94" d="M160 80c0 44.183-35.817 80-80 80S0 124.183 0 80 35.817 0 80 0s80 35.817 80 80"/>
        <mask id="b" fill="#fff">
            <use xlink:href="#a"/>
        </mask>
        <path fill="#FFF" d="M44.883 43.682h6.126v-.91h-6.126v.91zm0-2.819h6.126v-.908h-6.126v.908zm-.093 8.638c-.046.295-.07.499-.07 1.158 1.787-.295 3.156-.75 4.595-1.477l1.416 2.068c-2.159.795-3.644 1.182-6.01 1.591v.727c0 .455.185.523 1.577.523 1.694 0 1.74-.045 1.81-1.863 1.114.408 1.532.522 2.53.659-.163 1.408-.232 1.727-.511 2.363.163.023.348.023.418.023.696 0 .836-.205 1.02-1.454.186-1.251.233-1.82.302-4.796h-7.31c-.231.25-.278.295-.44.478h.673zm-2.715 1.84c-.533.432-.603.5-1.09.796-.395-.932-.767-1.523-1.417-2.364v5.704c0 2.024-.672 2.523-3.318 2.523-.464 0-.835-.023-1.578-.068-.116-1.137-.232-1.681-.65-2.727.744.068 1.3.113 1.904.113.603 0 .742-.136.742-.727V50c-1.253.432-2.018.704-2.344.84L34 47.865c.696-.092 1.322-.25 2.668-.682v-3.5h-.812c-.534 0-1.044.023-1.647.113V40.91c.533.09.997.113 1.67.113h.79v-1.704c0-1.136-.024-1.682-.117-2.318h3.132c-.092.659-.116 1.182-.116 2.318v1.704h.743c.371 0 .603 0 1.068-.045v2.773a9.316 9.316 0 0 0-1.068-.068h-.743v2.477c.534-.205.79-.295 1.579-.637l.116 2.66c-.952.41-1.16.523-1.695.727v.772c1.926-.976 3.366-2.317 4.247-3.954-1.021 0-1.23 0-1.787.046.047-.66.07-1.296.07-2.205v-3.955c0-.863-.023-1.431-.093-2.067.696.068 1.439.113 2.274.113h7.426c.906 0 1.602-.023 2.227-.113-.092.659-.116 1.34-.116 2.204v3.864c0 .931.024 1.454.094 2.181-.65-.045-1.37-.068-2.345-.068h-4.71c-.162.318-.185.364-.557.909h6.66c.928 0 1.486-.022 2.042-.09-.07.431-.093 1.09-.162 2.977-.047 1.523-.256 4.182-.394 5.16-.28 1.75-.65 2.454-1.509 2.84-.58.273-1.346.386-2.552.386-.303 0-.349 0-1.347-.045-.046-.727-.092-1.023-.232-1.613-.673.136-1.461.181-2.738.181-3.319 0-3.991-.296-3.991-1.727V51.34zM65.256 52.143h2.087v-.774h-2.087v.774zm0-2.183h2.087v-.774h-2.087v.774zm4.737 5.4c.728-.728 1.338-1.455 2.018-2.37-.704-2.325-.986-4.462-1.22-9.04h-5.535v.845h2.837c1.056 0 1.502-.023 2.112-.094v2.16c-.587-.07-1.15-.094-2.112-.094h-2.837v.823h2.463c1.078 0 1.664-.025 2.157-.071-.07.54-.07.75-.07 1.667v2.935c0 .915 0 1.15.07 1.69-.61-.047-1.032-.07-2.157-.07h-2.463v.822h2.603c1.08 0 1.455-.024 2.134-.095v.893zm-9.287-3.217h1.946v-.774h-1.946v.774zm0-2.183h1.946v-.774h-1.946v.774zM68.21 56.7h-2.955v.563c0 .728.023 1.151.117 1.62h-2.814c.07-.493.093-.892.093-1.596v-.587h-3.471c-.961 0-1.477.023-2.11.094v-2.325c.633.071 1.078.095 2.11.095h3.471v-.823H60.33c-1.078 0-1.689.024-2.157.07.047-.633.07-.938.07-1.69v-2.934a17.9 17.9 0 0 0-.07-1.667c.468.046.984.07 2.157.07h2.322v-.822H59.65c-.962 0-1.407.024-2.111.094v-2.16c.68.07 1.102.094 2.111.094h3.002v-.845h-3.19c-1.125 0-1.782.024-2.462.118V41.46c.633.094 1.337.118 2.463.118h3.025v-.87h-2.064c-.985 0-1.548.025-2.157.094v-2.347c.586.07 1.125.094 2.157.094h2.064c0-.846-.023-1.127-.117-1.55h3.096c-.094.446-.118.704-.118 1.55h2.017c1.033 0 1.572-.023 2.159-.094v2.347c-.61-.07-1.173-.093-2.159-.093H65.35v.869h5.348c-.047-1.15-.07-1.62-.07-2.395-.023-.915-.048-1.573-.118-2.066h3.143c-.094.586-.117.962-.117 1.644 0 .164 0 .68.023 1.361v1.456h2.346c-.704-1.291-1.313-2.184-2.158-3.052l2.064-1.198c.985 1.104 1.524 1.831 2.275 3.076l-1.97 1.174c1.196 0 1.736-.024 2.369-.118v2.607c-.657-.094-1.29-.118-2.463-.118h-2.44a54.4 54.4 0 0 0 .423 5.659c.75-1.738 1.243-3.334 1.384-4.414l2.767.938c-.093.188-.258.681-.585 1.55-.75 2.066-1.62 3.921-2.557 5.494.281.68.68 1.455.868 1.714.328.47.328.47.375.47.164 0 .375-1.08.586-2.982.821.821 1.22 1.103 2.158 1.596-.212 1.526-.446 2.419-.867 3.334-.423.94-1.103 1.503-1.76 1.503-1.032 0-2.088-.986-3.19-2.958-1.032 1.268-1.618 1.877-2.978 3.146-.75-.798-1.103-1.08-2.37-1.855.305-.188.4-.259.634-.446h-.258zM95.9 49.994h2.375v-1.032h-2.374v1.032zm0-2.861h2.375v-.962h-2.374v.962zm-4.819 2.86h2.095v-1.031h-2.095v1.032zm0-2.86h2.095v-.962h-2.095v.962zm-3.189-1.08a9.387 9.387 0 0 0-1.49-.094h-.186c.768 1.478 1.187 2.041 2.118 2.956-.535.845-.791 1.454-1.117 2.603-.466-.632-.792-1.243-1.187-2.11.046.562.093 1.688.093 2.532v4.27c0 1.29.023 2.016.116 2.79h-3.05c.093-.867.14-1.665.14-2.79v-3.05c.047-1.547.07-2.44.093-2.697-.558 1.712-1.117 2.861-2.142 4.292A10.938 10.938 0 0 0 80 51.777c1.28-1.525 2.514-3.87 3.096-5.818h-.907c-.606 0-1.095.048-1.607.117v-2.93c.536.07 1.047.116 1.676.116h1.072v-2.227c-.699.14-.979.187-2.003.374a14.2 14.2 0 0 0-1-2.626c2.094-.235 4.003-.68 5.726-1.337.442-.188.652-.282.908-.446l1.443 2.51c-.07.023-.396.14-1.211.469-.21.07-.349.117-1.07.328v2.955h.325c.559 0 .885-.023 1.28-.07v-2.204c.49.047 1.282.093 2.19.093h3.258v-.797c-1.21.047-1.978.07-4.05.07-.28-.938-.512-1.525-.955-2.251.955.023 1.7.023 2.026.023 3.841 0 8.148-.446 9.591-1.009l1.723 2.322c-.187.024-.187.024-.652.117-1.14.211-3.026.446-4.958.587v.938h3.7c.909 0 1.7-.046 2.353-.14v2.532c-.607-.093-1.234-.117-2.143-.117h-3.91v.845h2.793c1.234 0 1.7-.024 2.305-.07-.07.585-.094 1.008-.094 1.993v3.753c0 1.055.024 1.5.094 2.157a22.06 22.06 0 0 0-1.979-.07H95.9v.914h3.003c1.211 0 1.723-.022 2.305-.093V55.2a23.458 23.458 0 0 0-2.281-.093h-3.026v.962h3.538c1.024 0 1.932-.047 2.561-.117v2.579c-.7-.093-1.537-.14-2.701-.14h-9.405c-1.164 0-2.048.047-2.677.14v-2.557c.536.048 1.513.095 2.607.095h3.352v-.962h-2.84c-1.07 0-1.653.023-2.304.07v-2.392c.651.07 1.14.093 2.328.093h2.816v-.914h-2.84c-1 0-1.467.023-1.932.07.023-.563.047-1.102.047-2.228v-3.588c0-1.08-.024-1.549-.047-2.087.536.046 1.001.07 2.165.07h2.607v-.845h-3.212c-.768 0-1.722.024-2.072.071v2.627zM119.993 43.593c-.114.303-.16.42-.273.724.363 2.432.682 3.6 1.57 5.588.704-1.8 1.069-3.764 1.182-6.312h-2.48zm-4.71 12.554c1.866-.959 3.186-2.01 4.368-3.436-.864-1.637-1.32-2.946-1.728-4.887-.365.608-.478.772-.979 1.38v2.315a15.52 15.52 0 0 0-1.752-.094c-.34 1.168-.637 1.846-1.228 2.782.705.327 1.024.514 1.888 1.006l-.569.934zm-4.709-4.722c-.205.374-.296.538-.637 1.098.842.305 1.137.398 1.638.608.41-.584.591-1.005.82-1.706h-1.82zM108.14 37.28c.864 1.17 1.206 1.753 1.73 2.923l-2.321 1.028c-.524-1.262-.956-2.01-1.684-2.97l2.275-.98zm18.518 6.406c-.431-.07-.614-.07-1.364-.093-.297 4.114-.91 6.545-2.298 9.118A11.95 11.95 0 0 0 127 55.984c-.66.958-1.092 1.753-1.57 2.945-1.57-.958-2.935-2.174-4.163-3.74a17.029 17.029 0 0 1-4.686 3.787c-.456-1.028-.934-1.73-1.548-2.384l-.751 1.239c-.842-.678-1.114-.866-2.184-1.474-1.524 1.31-3.07 2.058-5.437 2.643-.386-1.006-.796-1.73-1.388-2.572 1.889-.28 2.958-.632 4.255-1.38a38.469 38.469 0 0 0-3.299-1.332c.773-1.03 1.023-1.426 1.524-2.29h-.432c-.82 0-1.32.022-1.866.116v-2.783c.524.094 1.001.117 1.866.117h1.615c.182-.49.273-.771.524-1.496l2.82.515c-.204.467-.273.607-.432.981h3.344c.637 0 1.092-.023 1.456-.07-.545-.818-.932-1.263-1.524-1.824 1.616-1.87 2.684-4.395 3.367-7.949.16-.771.273-1.683.273-2.033l2.958.584c-.046.164-.16.608-.478 1.94-.114.491-.16.608-.365 1.38h3.619c1.114 0 1.637-.024 2.16-.117v2.899zm-13.696-3.414c.73-1.075 1.206-1.963 1.593-3.062l2.412 1.005c-.75 1.543-1.001 2.035-1.66 3.063h.159c.705 0 1.136-.024 1.41-.07v2.525c-.295-.047-.728-.07-1.434-.07h-1.274c.5.537 1.002.911 1.821 1.356-.592.748-.91 1.239-1.388 2.197-1.115-.958-1.251-1.098-1.888-2.08.022.257.068.724.068.865v.654c0 .257 0 .538.045.795h-2.843a3.62 3.62 0 0 0 .068-.678v-.678c0-.187.023-.584.046-.958-1.274 1.66-1.843 2.22-3.459 3.32-.523-.96-.818-1.38-1.638-2.268 1.57-.748 2.525-1.45 3.436-2.525h-.956c-.819 0-1.41.023-1.957.093v-2.572c.57.07 1.07.094 1.957.094h2.594v-2.595c0-.725-.023-1.123-.091-1.566h2.889c-.069.42-.091.818-.091 1.52v2.64h2.32l-2.139-1.005zM27 71c.997.152 1.752.183 3.293.183h3.293c1.813 0 2.235-.031 3.414-.122-.181 1.71-.242 3.022-.242 4.945v15.72c0 1.71.06 2.87.242 4.274h-5.528c.15-1.22.24-2.595.24-4.274V75.487h-1.328c-1.179 0-2.115.06-3.384.214V71zM49.76 79.821c-.03.248-.12.929-.15 1.27 1.446-1.115 3.015-1.64 5.066-1.64 2.442 0 4.614.835 6.122 2.413C62.276 83.381 63 85.331 63 87.87 63 93.533 59.38 97 53.5 97c-3.227 0-5.7-.929-7.389-2.755-.965-1.053-1.448-1.95-2.111-3.869l5.067-.928c.271.866.452 1.268.844 1.733.754.96 1.93 1.455 3.438 1.455 2.774 0 4.614-1.826 4.614-4.644 0-2.754-1.749-4.55-4.433-4.55-1.357 0-2.563.434-3.408 1.208-.392.402-.573.681-.844 1.362l-4.705-.465c.241-1.423.302-1.918.422-3.188l.694-7.986c.09-1.176.09-1.393.12-3.28 1.087.092 1.75.123 3.408.123h7.901c2.383 0 3.168-.03 4.585-.216v4.642c-1.417-.185-2.745-.247-4.524-.247h-7.027l-.392 4.426zM71.082 82.831c0 5.833 1.674 8.841 4.933 8.841 1.195 0 2.212-.43 2.96-1.228 1.255-1.32 1.943-3.96 1.943-7.336 0-5.802-1.674-8.78-4.903-8.78-3.11 0-4.933 3.131-4.933 8.503M69.23 93.33a9.335 9.335 0 0 1-2.064-3.253C66.39 87.927 66 85.533 66 83.046c0-3.254.717-6.6 1.853-8.503C69.557 71.596 72.457 70 76.015 70c2.69 0 5.052.921 6.756 2.67.927.952 1.645 2.058 2.063 3.254.777 2.149 1.166 4.544 1.166 7.06 0 3.224-.717 6.631-1.824 8.504C82.472 94.373 79.543 96 75.985 96c-2.72 0-5.052-.921-6.756-2.67M95.082 82.831c0 5.833 1.674 8.841 4.933 8.841 1.195 0 2.212-.43 2.96-1.228 1.255-1.32 1.943-3.96 1.943-7.336 0-5.802-1.674-8.78-4.903-8.78-3.11 0-4.933 3.131-4.933 8.503M93.23 93.33a9.335 9.335 0 0 1-2.064-3.253C90.39 87.927 90 85.533 90 83.046c0-3.254.717-6.6 1.853-8.503C93.557 71.596 96.457 70 100.015 70c2.69 0 5.052.921 6.756 2.67.927.952 1.645 2.058 2.063 3.254.777 2.149 1.166 4.544 1.166 7.06 0 3.224-.717 6.631-1.824 8.504-1.704 2.885-4.633 4.512-8.191 4.512-2.72 0-5.052-.921-6.756-2.67M130.9 87.994h2.375v-1.032h-2.374v1.032zm0-2.862h2.375v-.962h-2.374v.962zm-4.819 2.862h2.095v-1.032h-2.095v1.032zm0-2.862h2.095v-.962h-2.095v.962zm-3.189-1.079a9.395 9.395 0 0 0-1.49-.094h-.186c.768 1.478 1.187 2.04 2.118 2.956-.535.844-.791 1.454-1.117 2.603-.466-.633-.792-1.243-1.187-2.11.046.562.093 1.688.093 2.532v4.269c0 1.29.023 2.016.116 2.791h-3.05c.094-.868.14-1.666.14-2.791v-3.05c.047-1.547.07-2.439.093-2.697-.558 1.713-1.117 2.862-2.142 4.293a10.949 10.949 0 0 0-1.28-2.98c1.28-1.523 2.514-3.87 3.096-5.816h-.907c-.606 0-1.095.047-1.607.117v-2.93c.536.069 1.048.116 1.676.116h1.072v-2.228c-.699.141-.979.187-2.003.375a14.157 14.157 0 0 0-1-2.626c2.094-.235 4.003-.681 5.726-1.338.442-.187.652-.281.908-.445l1.443 2.51c-.07.023-.396.14-1.211.469-.21.07-.349.117-1.07.328v2.955h.325c.56 0 .885-.023 1.28-.07v-2.205c.49.047 1.282.094 2.19.094h3.258v-.798c-1.21.047-1.978.07-4.05.07-.279-.938-.512-1.524-.955-2.251.955.024 1.7.024 2.026.024 3.841 0 8.148-.446 9.591-1.009l1.723 2.322c-.187.023-.187.023-.652.117-1.14.211-3.026.446-4.958.587v.938h3.701c.908 0 1.699-.047 2.351-.14v2.532c-.606-.094-1.233-.117-2.142-.117h-3.91v.844h2.793c1.234 0 1.7-.023 2.305-.07-.07.586-.093 1.009-.093 1.993v3.753c0 1.056.023 1.5.093 2.158a22.06 22.06 0 0 0-1.979-.07h-3.12v.914h3.003c1.211 0 1.723-.023 2.305-.093V93.2a23.205 23.205 0 0 0-2.281-.093h-3.026v.961h3.538c1.024 0 1.932-.047 2.561-.117v2.58c-.7-.094-1.537-.14-2.701-.14h-9.405c-1.164 0-2.048.046-2.677.14v-2.557c.536.047 1.513.094 2.607.094h3.352v-.961h-2.84c-1.07 0-1.653.022-2.304.07v-2.392c.651.07 1.14.093 2.328.093h2.816v-.914h-2.84c-1 0-1.467.023-1.932.07.024-.563.047-1.102.047-2.228v-3.59c0-1.077-.023-1.547-.047-2.086.536.047 1.001.07 2.165.07h2.607v-.844h-3.212c-.768 0-1.722.023-2.072.07v2.627zM57.576 108.304c1.953 1.921 3.012 3.202 4.73 5.627l-2.87 1.922c-1.719-2.769-2.542-3.843-4.542-5.925l2.682-1.624zm10.353-1.281c-.047.458-.047.458-.118 1.99-.047 2.173-.423 4.895-.917 6.794-.447 1.716-.942 2.974-1.741 4.37 1.13 1.806 2.753 3.34 4.847 4.53-.847 1.097-1.294 1.83-1.882 3.11-1.86-1.304-3.435-2.95-4.8-4.987-1.813 2.15-4.141 3.752-7.53 5.17-.518-1.121-.988-1.83-1.765-2.7 4.495-1.715 7.06-3.751 8.66-6.839 1.246-2.471 1.905-5.88 1.905-9.929 0-.594-.024-1.006-.118-1.532l3.459.023zm-17.812 2.882c-.023-1.35-.047-1.99-.188-2.86h3.554c-.094.641-.119 1.305-.119 2.31v.573l.094 10.569A48.804 48.804 0 0 0 59.2 117.5l.612 2.836c-2.754 1.693-5.718 3.203-9.482 4.805-.895.388-.989.411-1.483.663L48 122.533c.823-.206 1.224-.32 2.235-.71l-.118-11.918zM83.492 124.804h6.161c1.316 0 2.424-.047 3.347-.166V128a28.838 28.838 0 0 0-3.3-.166H75.415c-1.108 0-2.285.048-3.415.166v-3.362c1.015.119 1.984.166 3.415.166h4.777V109.84c0-1.137-.046-1.847-.138-2.841h3.576c-.092.97-.138 1.681-.138 2.84v3.647h5.147c1.061 0 1.915-.047 2.814-.142v3.267c-.923-.094-1.8-.142-2.814-.142h-5.147v8.334zM99.308 127h4.385v-3.781h-4.385V127zm.41-5.555c.026-.584.051-.84.051-1.098 0-.303 0-.303-.077-1.68l-.435-7.68A40.893 40.893 0 0 0 99 108h5c-.102.677-.205 1.774-.256 2.987l-.435 7.68c-.078 1.424-.078 1.424-.078 1.704 0 .257.026.49.051 1.074h-3.564z" mask="url(#b)"/>
    </g>
</svg>
