<svg xmlns="http://www.w3.org/2000/svg" width="80" height="80" viewBox="0 0 80 80">
    <g fill="none" fill-rule="nonzero">
        <path fill="#FFECDC" d="M58.06 78.323H.87V1.694h57.19a4.63 4.63 0 0 1 4.636 4.626v67.378a4.63 4.63 0 0 1-4.637 4.625z"/>
        <path fill="#FFDBBB" d="M58.778 1.694h-4.79c2.646 0 4.79 2.07 4.79 4.626v67.378c0 2.554-2.144 4.625-4.79 4.625h4.79c2.645 0 4.79-2.07 4.79-4.625V6.32c0-2.555-2.145-4.626-4.79-4.626z"/>
        <path fill="#F98C2E" d="M.87 1.694h9.58v76.63H.87z"/>
        <path fill="#FFA85E" d="M6.095 1.694h4.354v76.63H6.095z"/>
        <path fill="#F98C2E" d="M52.504 31.3H21.513a.605.605 0 0 1-.614-.596v-9.256c0-.33.274-.597.614-.597h30.991c.34 0 .614.267.614.597v9.256c0 .33-.275.597-.614.597z"/>
        <path fill="#EBAD88" d="M37.444 63.475l-12.535 3.506c-.184.049-.333.013-.426-.08-.093-.092-.128-.241-.079-.426l3.506-12.534 9.534 9.534z"/>
        <path fill="#E89776" d="M34.241 60.037l-9.86 6.86c.094.097.245.134.43.083l12.633-3.642-3.203-3.301z"/>
        <path fill="#363636" d="M29.607 65.667l-4.7 1.314c-.366.096-.6-.137-.503-.503l1.315-4.7 3.888 3.889z"/>
        <path fill="#4FC6F5" d="M74.188 27.818l-9.75-9.75 3.463-3.463c.96-.96 2.515-.96 3.474 0l6.276 6.275c.96.96.96 2.515 0 3.475l-3.463 3.463z"/>
        <path fill="#3BB3E3" d="M77.612 20.702l-3.427-3.334a2.472 2.472 0 0 1 0 3.564l-3.652 3.552 3.427 3.334 3.652-3.552a2.472 2.472 0 0 0 0-3.564z"/>
        <path fill="#FFD659" d="M63.785 18.239l3.265 3.266-35.92 35.92-3.265-3.266z"/>
        <path fill="#FFBD54" d="M67.268 20.851l3.265 3.266-35.92 35.92-3.265-3.265z"/>
        <path fill="#FFA954" d="M70.751 24.335l3.266 3.265-35.92 35.92-3.266-3.266z"/>
        <path fill="#000" d="M78.176 19.83l-6.34-6.339a3.62 3.62 0 0 0-2.575-1.067c-.973 0-1.888.38-2.576 1.067l-2.454 2.455V5.756a5.81 5.81 0 0 0-5.805-5.803H1.161C.52-.047 0 .473 0 1.113V4.88a1.16 1.16 0 1 0 2.322 0V2.274h6.964v74.598H2.322V9.832a1.161 1.161 0 0 0-2.322 0v68.201c0 .641.52 1.16 1.16 1.16h57.266a5.81 5.81 0 0 0 5.804-5.803v-4.089a1.16 1.16 0 1 0-2.321 0v4.09a3.486 3.486 0 0 1-3.483 3.481H11.608V2.274h46.818a3.486 3.486 0 0 1 3.483 3.482v12.511l-7.352 7.352V21c0-.981-.799-1.78-1.78-1.78H21.513c-.981 0-1.78.799-1.78 1.78v9.596c0 .98.799 1.78 1.78 1.78H47.8l-9.127 9.126a1.16 1.16 0 1 0 1.642 1.641l23.694-23.692 1.641 1.64-34.473 34.474-1.642-1.642 7.278-7.277a1.16 1.16 0 1 0-1.642-1.642l-8.099 8.099a1.13 1.13 0 0 0-.087.1l-.017.021a1.07 1.07 0 0 0-.064.094c-.006.01-.01.019-.017.028a1.31 1.31 0 0 0-.055.109l-.007.016a1.12 1.12 0 0 0-.05.14l-3.487 12.47-.135.479a.07.07 0 0 0-.003.012l-.001.006c-.039.146-.058.29-.06.434-.006.427.148.828.443 1.122.18.181.401.31.644.38.145.042.298.063.456.063.15 0 .303-.02.456-.06l.018-.004.302-.085 12.647-3.537.003-.001c.047-.014.093-.03.138-.049l.014-.006c.038-.017.074-.036.11-.057l.027-.015c.033-.02.065-.042.096-.066l.021-.015a1.13 1.13 0 0 0 .1-.088l23.346-23.346v23.074a1.161 1.161 0 0 0 2.321 0V38.928l13.946-13.946a3.647 3.647 0 0 0 0-5.151zm-56.12 10.225v-8.512h30.18v6.397l-2.115 2.115H22.055zm45.235-7.32l1.641 1.641L34.46 58.85l-1.641-1.642L67.29 22.735zM30.008 64.732l-3.073-3.074 1.54-5.509 7.042 7.041-5.509 1.542zm-3.79-.508l1.224 1.225-1.7.476.476-1.701zm11.524-2.092l-1.641-1.641 34.473-34.473 1.642 1.642-34.474 34.472zM76.535 23.34l-2.678 2.677-8.207-8.208 2.677-2.677c.25-.25.581-.387.934-.387.353 0 .685.137.934.387l6.34 6.34a1.322 1.322 0 0 1 0 1.868z"/>
    </g>
</svg>
