<svg xmlns="http://www.w3.org/2000/svg" width="80" height="80" viewBox="0 0 80 80">
    <g fill="none" fill-rule="nonzero">
        <path fill="#000" d="M77.344 68.089a6.468 6.468 0 0 1 1.897 4.59 6.467 6.467 0 0 1-1.897 4.588 6.474 6.474 0 0 1-4.59 1.898 6.47 6.47 0 0 1-4.587-1.898l-18.921-18.92a1.557 1.557 0 0 1 0-2.21l.757-.757-1.858-1.857c-5.355 4.13-11.802 6.195-18.247 6.195-7.66 0-15.32-2.914-21.151-8.746-11.663-11.662-11.663-30.639 0-42.301 11.662-11.662 30.64-11.662 42.302 0C61.786 19.41 62.636 36.35 53.6 48.07l1.856 1.854.756-.756c.61-.611 1.601-.611 2.212 0l18.92 18.92zm-2.211 6.968a3.368 3.368 0 0 0 0-4.756L57.319 52.485l-4.757 4.757 17.814 17.815a3.368 3.368 0 0 0 4.757 0zm-18.45-45.236c0-7.153-2.786-13.88-7.845-18.939-5.06-5.058-11.786-7.845-18.94-7.845-7.156 0-13.882 2.787-18.941 7.845-5.06 5.06-7.844 11.786-7.844 18.94 0 7.153 2.785 13.88 7.844 18.938 5.059 5.06 11.785 7.846 18.941 7.846 7.154 0 13.88-2.787 18.94-7.846 5.059-5.059 7.845-11.785 7.845-18.939zM52.214 53.17l1.032-1.032-1.688-1.688c-.167.177-.338.35-.509.523-.173.173-.348.342-.523.509l1.688 1.688z"/>
        <path fill="#3DD0F2" d="M75.334 70.38a3.454 3.454 0 0 1 0 4.878 3.455 3.455 0 0 1-4.88 0l-18.27-18.272 4.878-4.879L75.334 70.38z"/>
        <path fill="#F48C6C" d="M48.264 10.607c5.02 5.02 7.785 11.693 7.785 18.791 0 7.098-2.765 13.771-7.785 18.79-5.019 5.02-11.692 7.785-18.79 7.785-7.1 0-13.774-2.765-18.793-7.784C5.662 43.169 2.9 36.496 2.9 29.398c0-7.098 2.763-13.771 7.782-18.79 5.02-5.02 11.693-7.785 18.793-7.785 7.098 0 13.771 2.765 18.79 7.784zm4.513 18.791c0-6.225-2.426-12.075-6.827-16.478a23.15 23.15 0 0 0-16.476-6.825 23.152 23.152 0 0 0-16.479 6.825 23.156 23.156 0 0 0-6.824 16.478 23.156 23.156 0 0 0 6.824 16.478 23.152 23.152 0 0 0 16.479 6.825 23.15 23.15 0 0 0 16.476-6.825c4.401-4.402 6.827-10.253 6.827-16.478zM53.15 52.34l-.733.734-1.2-1.2a21.24 21.24 0 0 0 .733-.733l1.2 1.2z"/>
        <path fill="#000" d="M46.355 13.48c4.38 4.383 6.795 10.206 6.795 16.401 0 6.196-2.415 12.018-6.795 16.4a23.04 23.04 0 0 1-16.398 6.793 23.042 23.042 0 0 1-16.4-6.793 23.046 23.046 0 0 1-6.792-16.4 23.046 23.046 0 0 1 6.792-16.4 23.042 23.042 0 0 1 16.4-6.792 23.04 23.04 0 0 1 16.398 6.792zm-2.181 30.618c7.838-7.84 7.838-20.593 0-28.433a19.974 19.974 0 0 0-14.217-5.889 19.974 19.974 0 0 0-14.216 5.889c-7.84 7.84-7.84 20.593 0 28.433a19.974 19.974 0 0 0 14.216 5.889c5.37 0 10.419-2.092 14.217-5.89z"/>
        <path fill="#000" d="M42.993 17.458a1.57 1.57 0 0 1 0 2.285c-.33.317-.76.475-1.19.475-.432 0-.863-.158-1.193-.475a16.301 16.301 0 0 0-3.08-2.324c-.794-.464-1.046-1.46-.563-2.223.483-.761 1.52-1.005 2.315-.541 1.341.784 2.59 1.727 3.71 2.803zM42.076 40.952a1.495 1.495 0 0 1 0 2.126 17.697 17.697 0 0 1-12.518 5.164 18.15 18.15 0 0 1-2.13-.126 1.504 1.504 0 0 1-1.326-1.671 1.51 1.51 0 0 1 1.683-1.316c4.511.532 8.94-.99 12.148-4.177a1.523 1.523 0 0 1 2.143 0zM32.512 11.729c.846.128 1.424.897 1.292 1.72-.132.82-.923 1.382-1.77 1.253-4.732-.716-9.58.82-12.962 4.108a1.559 1.559 0 0 1-1.094.441c-.397 0-.793-.146-1.096-.441a1.473 1.473 0 0 1 0-2.127c4.08-3.967 9.922-5.817 15.63-4.954zM22.38 43.267c.809.48 1.055 1.497.55 2.268-.326.5-.89.774-1.467.774a1.78 1.78 0 0 1-.912-.248 20.233 20.233 0 0 1-3.617-2.741 1.59 1.59 0 0 1 0-2.327 1.79 1.79 0 0 1 2.444 0 16.74 16.74 0 0 0 3.002 2.274z"/>
    </g>
</svg>
